%TF.GenerationSoftware,KiCad,Pcbnew,8.0.6*%
%TF.CreationDate,2024-12-11T15:10:48+01:00*%
%TF.ProjectId,fastLOGIC,66617374-4c4f-4474-9943-2e6b69636164,rev?*%
%TF.SameCoordinates,Original*%
%TF.FileFunction,Copper,L4,Bot*%
%TF.FilePolarity,Positive*%
%FSLAX46Y46*%
G04 Gerber Fmt 4.6, Leading zero omitted, Abs format (unit mm)*
G04 Created by KiCad (PCBNEW 8.0.6) date 2024-12-11 15:10:48*
%MOMM*%
%LPD*%
G01*
G04 APERTURE LIST*
G04 Aperture macros list*
%AMRoundRect*
0 Rectangle with rounded corners*
0 $1 Rounding radius*
0 $2 $3 $4 $5 $6 $7 $8 $9 X,Y pos of 4 corners*
0 Add a 4 corners polygon primitive as box body*
4,1,4,$2,$3,$4,$5,$6,$7,$8,$9,$2,$3,0*
0 Add four circle primitives for the rounded corners*
1,1,$1+$1,$2,$3*
1,1,$1+$1,$4,$5*
1,1,$1+$1,$6,$7*
1,1,$1+$1,$8,$9*
0 Add four rect primitives between the rounded corners*
20,1,$1+$1,$2,$3,$4,$5,0*
20,1,$1+$1,$4,$5,$6,$7,0*
20,1,$1+$1,$6,$7,$8,$9,0*
20,1,$1+$1,$8,$9,$2,$3,0*%
G04 Aperture macros list end*
%TA.AperFunction,ComponentPad*%
%ADD10R,1.700000X1.700000*%
%TD*%
%TA.AperFunction,ComponentPad*%
%ADD11O,1.700000X1.700000*%
%TD*%
%TA.AperFunction,ComponentPad*%
%ADD12R,2.600000X2.600000*%
%TD*%
%TA.AperFunction,ComponentPad*%
%ADD13C,2.600000*%
%TD*%
%TA.AperFunction,ComponentPad*%
%ADD14RoundRect,0.250500X0.499500X0.499500X-0.499500X0.499500X-0.499500X-0.499500X0.499500X-0.499500X0*%
%TD*%
%TA.AperFunction,ComponentPad*%
%ADD15C,1.500000*%
%TD*%
%TA.AperFunction,ComponentPad*%
%ADD16C,2.500000*%
%TD*%
%TA.AperFunction,ComponentPad*%
%ADD17C,3.000000*%
%TD*%
%TA.AperFunction,ComponentPad*%
%ADD18RoundRect,0.250000X-0.600000X-0.725000X0.600000X-0.725000X0.600000X0.725000X-0.600000X0.725000X0*%
%TD*%
%TA.AperFunction,ComponentPad*%
%ADD19O,1.700000X1.950000*%
%TD*%
%TA.AperFunction,ComponentPad*%
%ADD20C,1.700000*%
%TD*%
%TA.AperFunction,ComponentPad*%
%ADD21R,1.100000X1.100000*%
%TD*%
%TA.AperFunction,ComponentPad*%
%ADD22C,1.100000*%
%TD*%
%TA.AperFunction,ComponentPad*%
%ADD23O,1.100000X2.400000*%
%TD*%
%TA.AperFunction,SMDPad,CuDef*%
%ADD24C,2.000000*%
%TD*%
%TA.AperFunction,ComponentPad*%
%ADD25O,1.400000X2.000000*%
%TD*%
%TA.AperFunction,ComponentPad*%
%ADD26R,1.400000X2.000000*%
%TD*%
%TA.AperFunction,ViaPad*%
%ADD27C,0.800000*%
%TD*%
%TA.AperFunction,Conductor*%
%ADD28C,0.500000*%
%TD*%
%TA.AperFunction,Conductor*%
%ADD29C,0.200000*%
%TD*%
%TA.AperFunction,Conductor*%
%ADD30C,0.250000*%
%TD*%
%TA.AperFunction,Conductor*%
%ADD31C,1.000000*%
%TD*%
G04 APERTURE END LIST*
D10*
%TO.P,J11,1,Pin_1*%
%TO.N,Net-(J11-Pin_1)*%
X177750000Y-115040000D03*
D11*
%TO.P,J11,2,Pin_2*%
%TO.N,GND*%
X177750000Y-112500000D03*
%TD*%
D10*
%TO.P,J6,1,Pin_1*%
%TO.N,+12V*%
X170750000Y-112460000D03*
D11*
%TO.P,J6,2,Pin_2*%
%TO.N,Net-(J14-Pin_1)*%
X170750000Y-115000000D03*
%TD*%
D10*
%TO.P,J24,1,Pin_1*%
%TO.N,Net-(J15-Pin_3)*%
X166000000Y-115025000D03*
D11*
%TO.P,J24,2,Pin_2*%
%TO.N,GND*%
X166000000Y-112485000D03*
%TD*%
D12*
%TO.P,J9,1,Pin_1*%
%TO.N,+12V*%
X209000000Y-120795000D03*
D13*
%TO.P,J9,2,Pin_2*%
%TO.N,Net-(J9-Pin_2)*%
X212500000Y-120795000D03*
%TO.P,J9,3,Pin_3*%
%TO.N,GND*%
X216000000Y-120795000D03*
%TD*%
D10*
%TO.P,J22,1,Pin_1*%
%TO.N,+12V*%
X182500000Y-112475000D03*
D11*
%TO.P,J22,2,Pin_2*%
%TO.N,Net-(J16-Pin_1)*%
X182500000Y-115015000D03*
%TD*%
D12*
%TO.P,J2,1,Pin_1*%
%TO.N,Net-(J2-Pin_1)*%
X208300000Y-41800000D03*
D13*
%TO.P,J2,2,Pin_2*%
%TO.N,Net-(J2-Pin_2)*%
X204800000Y-41800000D03*
%TD*%
D14*
%TO.P,J23,1*%
%TO.N,TD+*%
X252190000Y-54610000D03*
D15*
%TO.P,J23,2*%
%TO.N,TD-*%
X250930000Y-57150000D03*
%TO.P,J23,3*%
%TO.N,RD+*%
X249650000Y-54610000D03*
%TO.P,J23,4*%
%TO.N,TC*%
X248390000Y-57150000D03*
%TO.P,J23,5*%
%TO.N,RC*%
X247110000Y-54610000D03*
%TO.P,J23,6*%
%TO.N,RD-*%
X245850000Y-57150000D03*
%TO.P,J23,7*%
%TO.N,N/C*%
X244570000Y-54610000D03*
%TO.P,J23,8*%
%TO.N,GND1*%
X243310000Y-57150000D03*
%TO.P,J23,9*%
%TO.N,+3.3V*%
X254375000Y-43350000D03*
%TO.P,J23,10*%
%TO.N,ETHERNET_LED_B*%
X251835000Y-43350000D03*
%TO.P,J23,11*%
%TO.N,ETHERNET_LED_A*%
X243665000Y-43350000D03*
%TO.P,J23,12*%
%TO.N,+3.3V*%
X241125000Y-43350000D03*
D16*
%TO.P,J23,SH*%
%TO.N,N/C*%
X255495000Y-51300000D03*
X240005000Y-51300000D03*
%TD*%
D10*
%TO.P,JP1,1,A*%
%TO.N,Net-(J2-Pin_1)*%
X206000000Y-49700000D03*
D11*
%TO.P,JP1,2,B*%
%TO.N,Net-(JP1-B)*%
X208540000Y-49700000D03*
%TD*%
D17*
%TO.P,K3,1*%
%TO.N,Net-(J16-Pin_2)*%
X187050000Y-87600000D03*
D16*
%TO.P,K3,2*%
%TO.N,Net-(D15-A)*%
X181000000Y-89550000D03*
D17*
%TO.P,K3,3*%
%TO.N,Net-(J16-Pin_1)*%
X181000000Y-101750000D03*
%TO.P,K3,4*%
%TO.N,Net-(J16-Pin_3)*%
X193050000Y-101800000D03*
D16*
%TO.P,K3,5*%
%TO.N,+5V*%
X193000000Y-89550000D03*
%TD*%
D12*
%TO.P,J4,1,Pin_1*%
%TO.N,+12V*%
X250282500Y-120750000D03*
D13*
%TO.P,J4,2,Pin_2*%
%TO.N,GND*%
X253782500Y-120750000D03*
%TD*%
D10*
%TO.P,J19,1,Pin_1*%
%TO.N,Net-(J16-Pin_3)*%
X189500000Y-115025000D03*
D11*
%TO.P,J19,2,Pin_2*%
%TO.N,GND*%
X189500000Y-112485000D03*
%TD*%
D18*
%TO.P,J1,1,Pin_1*%
%TO.N,+5V*%
X183250000Y-43282500D03*
D19*
%TO.P,J1,2,Pin_2*%
%TO.N,GND*%
X185750000Y-43282500D03*
%TO.P,J1,3,Pin_3*%
%TO.N,Net-(J1-Pin_3)*%
X188250000Y-43282500D03*
%TD*%
D10*
%TO.P,J10,1,Pin_1*%
%TO.N,DISPLAY_CS*%
X214240000Y-61141700D03*
D11*
%TO.P,J10,2,Pin_2*%
%TO.N,DISPLAY_RSE*%
X216780000Y-61141700D03*
%TO.P,J10,3,Pin_3*%
%TO.N,DISPLAY_RS*%
X219320000Y-61141700D03*
%TO.P,J10,4,Pin_4*%
%TO.N,DISPLAY_SCL*%
X221860000Y-61141700D03*
%TO.P,J10,5,Pin_5*%
%TO.N,DISPLAY_SI*%
X224400000Y-61141700D03*
%TO.P,J10,6,Pin_6*%
%TO.N,+3.3V*%
X226940000Y-61141700D03*
%TO.P,J10,7,Pin_7*%
%TO.N,GND*%
X229480000Y-61141700D03*
%TO.P,J10,8,Pin_8*%
%TO.N,+3.3V*%
X232040000Y-61143861D03*
%TO.P,J10,9,Pin_9*%
%TO.N,Net-(J10-Pin_9)*%
X234580000Y-61144926D03*
%TD*%
D18*
%TO.P,J3,1,Pin_1*%
%TO.N,+3.3V*%
X193750000Y-43282500D03*
D19*
%TO.P,J3,2,Pin_2*%
%TO.N,GND*%
X196250000Y-43282500D03*
%TO.P,J3,3,Pin_3*%
%TO.N,DS18B20_DATA*%
X198750000Y-43282500D03*
%TD*%
D10*
%TO.P,U2,1,x*%
%TO.N,unconnected-(U2-x-Pad1)*%
X163210000Y-78170000D03*
D11*
%TO.P,U2,2,Vdd*%
%TO.N,+5V*%
X165750000Y-78170000D03*
%TO.P,U2,3,GND*%
%TO.N,GND*%
X168290000Y-78170000D03*
D20*
%TO.P,U2,4,Vdd*%
%TO.N,+5V*%
X168290000Y-68170000D03*
D11*
%TO.P,U2,5,Out*%
%TO.N,Net-(U2-Out)*%
X165750000Y-68170000D03*
%TO.P,U2,6,GND*%
%TO.N,GND*%
X163210000Y-68170000D03*
%TD*%
D10*
%TO.P,JP2,1,A*%
%TO.N,BOOT_0*%
X153000000Y-79100000D03*
D11*
%TO.P,JP2,2,B*%
%TO.N,+3.3V*%
X150460000Y-79100000D03*
%TD*%
D12*
%TO.P,J14,1,Pin_1*%
%TO.N,Net-(J14-Pin_1)*%
X170750000Y-120750000D03*
D13*
%TO.P,J14,2,Pin_2*%
%TO.N,Net-(J14-Pin_2)*%
X174250000Y-120750000D03*
%TO.P,J14,3,Pin_3*%
%TO.N,Net-(J11-Pin_1)*%
X177750000Y-120750000D03*
%TD*%
D12*
%TO.P,J15,1,Pin_1*%
%TO.N,Net-(J15-Pin_1)*%
X159000000Y-120750000D03*
D13*
%TO.P,J15,2,Pin_2*%
%TO.N,Net-(J15-Pin_2)*%
X162500000Y-120750000D03*
%TO.P,J15,3,Pin_3*%
%TO.N,Net-(J15-Pin_3)*%
X166000000Y-120750000D03*
%TD*%
D17*
%TO.P,K2,1*%
%TO.N,Net-(J14-Pin_2)*%
X171050000Y-87600000D03*
D16*
%TO.P,K2,2*%
%TO.N,Net-(D5-A)*%
X165000000Y-89550000D03*
D17*
%TO.P,K2,3*%
%TO.N,Net-(J14-Pin_1)*%
X165000000Y-101750000D03*
%TO.P,K2,4*%
%TO.N,Net-(J11-Pin_1)*%
X177050000Y-101800000D03*
D16*
%TO.P,K2,5*%
%TO.N,+5V*%
X177000000Y-89550000D03*
%TD*%
D18*
%TO.P,J13,1,Pin_1*%
%TO.N,+5V*%
X172750000Y-43282500D03*
D19*
%TO.P,J13,2,Pin_2*%
%TO.N,GND*%
X175250000Y-43282500D03*
%TO.P,J13,3,Pin_3*%
%TO.N,Net-(J13-Pin_3)*%
X177750000Y-43282500D03*
%TD*%
D17*
%TO.P,K1,1*%
%TO.N,Net-(J15-Pin_2)*%
X155050000Y-87600000D03*
D16*
%TO.P,K1,2*%
%TO.N,Net-(D4-A)*%
X149000000Y-89550000D03*
D17*
%TO.P,K1,3*%
%TO.N,Net-(J15-Pin_1)*%
X149000000Y-101750000D03*
%TO.P,K1,4*%
%TO.N,Net-(J15-Pin_3)*%
X161050000Y-101800000D03*
D16*
%TO.P,K1,5*%
%TO.N,+5V*%
X161000000Y-89550000D03*
%TD*%
D12*
%TO.P,J8,1,Pin_1*%
%TO.N,+12V*%
X197000000Y-120795000D03*
D13*
%TO.P,J8,2,Pin_2*%
%TO.N,Net-(J8-Pin_2)*%
X200500000Y-120795000D03*
%TO.P,J8,3,Pin_3*%
%TO.N,GND*%
X204000000Y-120795000D03*
%TD*%
D12*
%TO.P,J16,1,Pin_1*%
%TO.N,Net-(J16-Pin_1)*%
X182500000Y-120750000D03*
D13*
%TO.P,J16,2,Pin_2*%
%TO.N,Net-(J16-Pin_2)*%
X186000000Y-120750000D03*
%TO.P,J16,3,Pin_3*%
%TO.N,Net-(J16-Pin_3)*%
X189500000Y-120750000D03*
%TD*%
D10*
%TO.P,J25,1,Pin_1*%
%TO.N,+12V*%
X159000000Y-112475000D03*
D11*
%TO.P,J25,2,Pin_2*%
%TO.N,Net-(J15-Pin_1)*%
X159000000Y-115015000D03*
%TD*%
D18*
%TO.P,J5,1,Pin_1*%
%TO.N,SDA_5V*%
X159750000Y-43282500D03*
D19*
%TO.P,J5,2,Pin_2*%
%TO.N,SCL_5V*%
X162250000Y-43282500D03*
%TO.P,J5,3,Pin_3*%
%TO.N,+5V*%
X164750000Y-43282500D03*
%TO.P,J5,4,Pin_4*%
%TO.N,GND*%
X167250000Y-43282500D03*
%TD*%
D18*
%TO.P,J26,1,Pin_1*%
%TO.N,GND*%
X162400000Y-64100000D03*
D19*
%TO.P,J26,2,Pin_2*%
%TO.N,+5V*%
X164900000Y-64100000D03*
%TO.P,J26,3,Pin_3*%
%TO.N,uC_RX2*%
X167400000Y-64100000D03*
%TO.P,J26,4,Pin_4*%
%TO.N,uC_TX2*%
X169900000Y-64100000D03*
%TD*%
D21*
%TO.P,J17,1,VBUS*%
%TO.N,Net-(J17-VBUS)*%
X232050000Y-42500000D03*
D22*
%TO.P,J17,2,D-*%
%TO.N,Net-(J17-D-)*%
X232850000Y-40750000D03*
%TO.P,J17,3,D+*%
%TO.N,Net-(J17-D+)*%
X233650000Y-42500000D03*
%TO.P,J17,4,ID*%
%TO.N,unconnected-(J17-ID-Pad4)*%
X234450000Y-40750000D03*
%TO.P,J17,5,GND*%
%TO.N,GND*%
X235250000Y-42500000D03*
D23*
%TO.P,J17,6,Shield*%
%TO.N,unconnected-(J17-Shield-Pad6)*%
X230000000Y-41625000D03*
X237300000Y-41625000D03*
%TD*%
D24*
%TO.P,TP1,1,1*%
%TO.N,PA4*%
X192300000Y-76100000D03*
%TD*%
%TO.P,TP5,1,1*%
%TO.N,GND*%
X174500000Y-52100000D03*
%TD*%
%TO.P,TP4,1,1*%
%TO.N,uC_TX*%
X181500000Y-52100000D03*
%TD*%
%TO.P,TP3,1,1*%
%TO.N,uC_RX*%
X178000000Y-52100000D03*
%TD*%
D25*
%TO.P,J20,*%
%TO.N,*%
X227467500Y-121000000D03*
%TO.P,J20,R1*%
%TO.N,unconnected-(J20-PadR1)*%
X221967500Y-118000000D03*
%TO.P,J20,R2*%
%TO.N,unconnected-(J20-PadR2)*%
X221967500Y-121000000D03*
%TO.P,J20,S*%
%TO.N,CURRENT_SENSOR_SUPPLY_1.65V*%
X226467500Y-112500000D03*
D26*
%TO.P,J20,T*%
%TO.N,CURRENT_SENSOR_A*%
X221967500Y-114000000D03*
%TD*%
D24*
%TO.P,TP9,1,1*%
%TO.N,+3.3V*%
X205300000Y-67000000D03*
%TD*%
%TO.P,TP8,1,1*%
%TO.N,GND*%
X208600000Y-67000000D03*
%TD*%
%TO.P,TP7,1,1*%
%TO.N,SDA_2*%
X208600000Y-62800000D03*
%TD*%
D25*
%TO.P,J12,*%
%TO.N,*%
X236467500Y-121000000D03*
%TO.P,J12,R1*%
%TO.N,unconnected-(J12-PadR1)*%
X230967500Y-118000000D03*
%TO.P,J12,R2*%
%TO.N,unconnected-(J12-PadR2)*%
X230967500Y-121000000D03*
%TO.P,J12,S*%
%TO.N,CURRENT_SENSOR_SUPPLY_1.65V*%
X235467500Y-112500000D03*
D26*
%TO.P,J12,T*%
%TO.N,CURRENT_SENSOR_B*%
X230967500Y-114000000D03*
%TD*%
D25*
%TO.P,J18,*%
%TO.N,*%
X245467500Y-121000000D03*
%TO.P,J18,R1*%
%TO.N,unconnected-(J18-PadR1)*%
X239967500Y-118000000D03*
%TO.P,J18,R2*%
%TO.N,unconnected-(J18-PadR2)*%
X239967500Y-121000000D03*
%TO.P,J18,S*%
%TO.N,CURRENT_SENSOR_SUPPLY_1.65V*%
X244467500Y-112500000D03*
D26*
%TO.P,J18,T*%
%TO.N,CURRENT_SENSOR_C*%
X239967500Y-114000000D03*
%TD*%
D24*
%TO.P,TP6,1,1*%
%TO.N,+3.3V*%
X171000000Y-52100000D03*
%TD*%
%TO.P,TP2,1,1*%
%TO.N,SCL_2*%
X205300000Y-62800000D03*
%TD*%
D27*
%TO.N,GND*%
X253600000Y-108200000D03*
X240525000Y-101025000D03*
X176000000Y-117400000D03*
X245900000Y-83150000D03*
X253500000Y-113000000D03*
X252900000Y-93000000D03*
X248100000Y-84850000D03*
X244250000Y-73250000D03*
X153200000Y-57750000D03*
X255400000Y-103500000D03*
X223000000Y-52500000D03*
X179600000Y-69800000D03*
X187900000Y-117400000D03*
X252500000Y-61000000D03*
X248500000Y-59750000D03*
X238800000Y-70400000D03*
X188200000Y-76900000D03*
X261300000Y-50300000D03*
X242500000Y-67250000D03*
X263300000Y-93800000D03*
X256750000Y-72750000D03*
X194800000Y-69000000D03*
X252100000Y-107400000D03*
X239000000Y-75800000D03*
X167600000Y-59600000D03*
X171500000Y-68150000D03*
X233000000Y-67200000D03*
X257000000Y-62750000D03*
X245250000Y-67750000D03*
X249750000Y-72750000D03*
X153300000Y-50750000D03*
X242200000Y-99500000D03*
X180250000Y-74000000D03*
X263900000Y-89000000D03*
X214600000Y-115500000D03*
X264000000Y-85100000D03*
X150000000Y-86750000D03*
X254100000Y-98500000D03*
X233550000Y-49620000D03*
X175800000Y-77800000D03*
X248000000Y-91500000D03*
X244100000Y-75700000D03*
X185800000Y-74000000D03*
X225900000Y-49700000D03*
X194600000Y-106300000D03*
X244000000Y-67250000D03*
X251500000Y-61000000D03*
X221500000Y-99500000D03*
X228900000Y-45500000D03*
X209300000Y-108200000D03*
X193300000Y-49400000D03*
X239000000Y-77800000D03*
X239000000Y-76800000D03*
X244100000Y-94900000D03*
X257250000Y-74500000D03*
X166000000Y-87000000D03*
X229000000Y-50000000D03*
X167700000Y-56600000D03*
X166000000Y-72400000D03*
X245750000Y-72750000D03*
X252500000Y-72500000D03*
X175000000Y-53300000D03*
X226200000Y-52500000D03*
X191700000Y-70100000D03*
X232300000Y-78900000D03*
X182000000Y-86500000D03*
X153200000Y-71750000D03*
X211400000Y-108200000D03*
X257500000Y-63250000D03*
X215000000Y-54300000D03*
X153100000Y-64750000D03*
X184600000Y-48000000D03*
X240250000Y-67250000D03*
X163900000Y-117500000D03*
X260400000Y-45500000D03*
X158600000Y-77500000D03*
X239025000Y-65725000D03*
X223500000Y-101600000D03*
X214500000Y-39900000D03*
X239000000Y-74800000D03*
X174500000Y-52100000D03*
X173200000Y-72800000D03*
X226200000Y-39100000D03*
X176600000Y-69500000D03*
X210300000Y-68500000D03*
X203300000Y-106900000D03*
X217500000Y-106750000D03*
X184700000Y-49500000D03*
X189750000Y-76850000D03*
X202800000Y-115500000D03*
X246250000Y-76500000D03*
X242200000Y-102550000D03*
X176900000Y-54600000D03*
X185800000Y-69700000D03*
X194800000Y-58200000D03*
X209900000Y-92200000D03*
X170600000Y-79300000D03*
X216800000Y-92200000D03*
X174200000Y-48000000D03*
X250500000Y-61000000D03*
X239000000Y-73300000D03*
X219500000Y-101300000D03*
X248750000Y-72750000D03*
X256500000Y-62250000D03*
X239000000Y-67250000D03*
X242600000Y-84300000D03*
X249700000Y-87000000D03*
X203600000Y-52600000D03*
%TO.N,+5V*%
X164200000Y-47850000D03*
X204900000Y-87700000D03*
X246400000Y-93800000D03*
X247300000Y-93800000D03*
X204100000Y-86900000D03*
X203400000Y-86200000D03*
X245500000Y-93800000D03*
%TO.N,+3.3V*%
X157150000Y-73300000D03*
X192500000Y-59200000D03*
X203500000Y-68600000D03*
X188200000Y-69100000D03*
X259975000Y-86550000D03*
X249400000Y-74700000D03*
X253812500Y-71900000D03*
X259975000Y-87500000D03*
X193100000Y-70100000D03*
X187000000Y-69900000D03*
X205700000Y-92800000D03*
X261000000Y-93600000D03*
X187287500Y-73262500D03*
X165200000Y-54700000D03*
X212500000Y-92800000D03*
X190600000Y-74200000D03*
X220800000Y-52500000D03*
X160500000Y-53500000D03*
X184900000Y-69000000D03*
X258900000Y-108200000D03*
X261000000Y-96950000D03*
X174000000Y-56100000D03*
X229500000Y-57100000D03*
X160700000Y-59600000D03*
X173000000Y-71200000D03*
X165850000Y-50150000D03*
X253812500Y-73500000D03*
X224500000Y-57300000D03*
X162350000Y-50150000D03*
X217900000Y-101200000D03*
X245000000Y-77750000D03*
X160700000Y-56700000D03*
X260900000Y-90100000D03*
X229600000Y-52200000D03*
X181300000Y-69900000D03*
X171000000Y-52100000D03*
%TO.N,rst*%
X206900000Y-58500000D03*
X180200000Y-67600000D03*
%TO.N,GND1*%
X240000000Y-61250000D03*
%TO.N,RC*%
X243750000Y-64250000D03*
X243750000Y-62250000D03*
%TO.N,DS18B20_DATA*%
X184550000Y-54600000D03*
%TO.N,DIG_IN_B*%
X212600000Y-90700000D03*
X195100000Y-64100000D03*
%TO.N,DIG_IN_A*%
X195300000Y-65600000D03*
X206200000Y-91000000D03*
%TO.N,+3.3VA*%
X247750000Y-73500000D03*
X249000000Y-63750000D03*
X251000000Y-71000000D03*
X253000000Y-64300000D03*
X253200000Y-69400000D03*
X250500000Y-63410000D03*
%TO.N,MISO*%
X253000000Y-86500000D03*
X249500000Y-77750000D03*
%TO.N,Net-(J17-D-)*%
X232750000Y-45250000D03*
%TO.N,D_OUT_C*%
X170500000Y-60900000D03*
X181800000Y-82500000D03*
%TO.N,D_OUT_A*%
X149500000Y-82400000D03*
X170900000Y-59200000D03*
%TO.N,D_OUT_B*%
X165300000Y-82200000D03*
X171400000Y-60300000D03*
%TO.N,SD_CMD*%
X180000000Y-64000000D03*
X219200000Y-57400000D03*
%TO.N,uC_RX*%
X178000000Y-52100000D03*
X234500000Y-58250000D03*
%TO.N,uC_TX*%
X233500000Y-57250000D03*
X181500000Y-52100000D03*
%TO.N,SD_SCK*%
X180000000Y-62250000D03*
X221900000Y-55700000D03*
%TO.N,SD_D2*%
X178400000Y-59800000D03*
X212700000Y-54200000D03*
%TO.N,SD_D3*%
X180000000Y-60500000D03*
X218400000Y-55300000D03*
%TO.N,SCK*%
X254250000Y-88000000D03*
X247500000Y-76750000D03*
%TO.N,SDA_1*%
X163500000Y-54750000D03*
X178250000Y-66750000D03*
%TO.N,SCL_1*%
X167000000Y-54750000D03*
X177500000Y-65750000D03*
%TO.N,5V_voltage_detect*%
X177900000Y-68400000D03*
X173000000Y-76100000D03*
%TO.N,IN_voltage_detect*%
X192600000Y-66150000D03*
X196250000Y-103750000D03*
%TO.N,SD_DET*%
X228100000Y-57400000D03*
X196250000Y-59250000D03*
%TO.N,SDA_2*%
X186600000Y-63400000D03*
%TO.N,SCL_2*%
X188200000Y-62600000D03*
%TO.N,MAX485_RE*%
X184800000Y-57900000D03*
X195200000Y-50000000D03*
%TO.N,ETH_CS*%
X253000000Y-91000000D03*
X247250000Y-78000000D03*
%TO.N,MAX485_DE*%
X185900000Y-58800000D03*
X195200000Y-51200000D03*
%TO.N,PA4*%
X187900000Y-67500000D03*
%TO.N,MAX485_DI*%
X182800000Y-58800000D03*
X195200000Y-52500000D03*
%TO.N,CURRENT_SENSOR_B*%
X184000000Y-66200000D03*
%TO.N,MAX485_RO*%
X195200000Y-48700000D03*
X181400000Y-57900000D03*
%TO.N,CURRENT_SENSOR_C*%
X182100000Y-66900000D03*
%TO.N,CURRENT_SENSOR_A*%
X185900000Y-66900000D03*
%TD*%
D28*
%TO.N,GND*%
X255250000Y-61000000D02*
X253500000Y-61000000D01*
D29*
X185825000Y-74000000D02*
X185800000Y-74000000D01*
X245900000Y-83150000D02*
X246400000Y-83150000D01*
X185800000Y-74000000D02*
X180250000Y-74000000D01*
D28*
X249750000Y-61000000D02*
X248500000Y-59750000D01*
D30*
X208600000Y-67000000D02*
X208800000Y-67000000D01*
D29*
X246400000Y-83150000D02*
X248100000Y-84850000D01*
D30*
X208800000Y-67000000D02*
X210300000Y-68500000D01*
D28*
X253500000Y-61000000D02*
X250500000Y-61000000D01*
X257500000Y-63250000D02*
X255250000Y-61000000D01*
X253500000Y-61000000D02*
X249750000Y-61000000D01*
D31*
%TO.N,+12V*%
X157025000Y-112475000D02*
X159000000Y-112475000D01*
X156750000Y-123250000D02*
X155750000Y-122250000D01*
X170750000Y-112460000D02*
X168500000Y-114710000D01*
X180250000Y-114725000D02*
X180250000Y-123250000D01*
X180250000Y-123250000D02*
X168500000Y-123250000D01*
X197000000Y-120795000D02*
X194545000Y-123250000D01*
X168500000Y-114710000D02*
X168500000Y-123250000D01*
X194545000Y-123250000D02*
X180250000Y-123250000D01*
X155750000Y-113750000D02*
X157025000Y-112475000D01*
X168500000Y-123250000D02*
X156750000Y-123250000D01*
X155750000Y-122250000D02*
X155750000Y-113750000D01*
X182500000Y-112475000D02*
X180250000Y-114725000D01*
D29*
%TO.N,+5V*%
X164200000Y-47850000D02*
X164750000Y-47300000D01*
D28*
X168290000Y-68170000D02*
X164900000Y-64780000D01*
D31*
X245500000Y-93800000D02*
X246400000Y-93800000D01*
X217300000Y-88800000D02*
X206000000Y-88800000D01*
X204100000Y-86900000D02*
X203400000Y-86200000D01*
X206000000Y-88800000D02*
X204900000Y-87700000D01*
D28*
X165750000Y-78170000D02*
X168290000Y-75630000D01*
D31*
X245500000Y-93800000D02*
X222300000Y-93800000D01*
D28*
X164900000Y-64780000D02*
X164900000Y-64100000D01*
X168290000Y-75630000D02*
X168290000Y-68170000D01*
D29*
X164750000Y-47300000D02*
X164750000Y-43282500D01*
D31*
X246400000Y-93800000D02*
X247300000Y-93800000D01*
X206000000Y-88800000D02*
X204100000Y-86900000D01*
X222300000Y-93800000D02*
X217300000Y-88800000D01*
D30*
%TO.N,+3.3V*%
X205100000Y-67000000D02*
X203500000Y-68600000D01*
X205300000Y-67000000D02*
X205100000Y-67000000D01*
D29*
%TO.N,rst*%
X199400000Y-58500000D02*
X196200000Y-61700000D01*
X183900000Y-61700000D02*
X180200000Y-65400000D01*
X206900000Y-58500000D02*
X199400000Y-58500000D01*
X196200000Y-61700000D02*
X183900000Y-61700000D01*
X180200000Y-65400000D02*
X180200000Y-67600000D01*
%TO.N,GND1*%
X240000000Y-59000000D02*
X240000000Y-61250000D01*
X240000000Y-59000000D02*
X241850000Y-57150000D01*
X241850000Y-57150000D02*
X243310000Y-57150000D01*
D30*
%TO.N,RC*%
X243750000Y-64250000D02*
X243750000Y-62250000D01*
D29*
%TO.N,DS18B20_DATA*%
X184550000Y-54600000D02*
X191450000Y-47700000D01*
X194332500Y-47700000D02*
X198750000Y-43282500D01*
X191450000Y-47700000D02*
X194332500Y-47700000D01*
%TO.N,DIG_IN_B*%
X200500000Y-70797307D02*
X196601346Y-66898653D01*
X202765686Y-90300000D02*
X200500000Y-88034314D01*
X200500000Y-88034314D02*
X200500000Y-70797307D01*
X212600000Y-90700000D02*
X212200000Y-90300000D01*
X212200000Y-90300000D02*
X202765686Y-90300000D01*
X196601346Y-66898653D02*
X196601346Y-65601346D01*
X196601346Y-65601346D02*
X195100000Y-64100000D01*
%TO.N,DIG_IN_A*%
X200100000Y-73300000D02*
X200100000Y-88200000D01*
X199268504Y-70131497D02*
X200100000Y-70962993D01*
X202200000Y-90300000D02*
X202900000Y-91000000D01*
X195300000Y-65600000D02*
X195300000Y-66162993D01*
X202900000Y-91000000D02*
X206200000Y-91000000D01*
X200100000Y-70962993D02*
X200100000Y-73300000D01*
X200100000Y-88200000D02*
X202200000Y-90300000D01*
X195300000Y-66162993D02*
X199268504Y-70131497D01*
%TO.N,+3.3VA*%
X251000000Y-71000000D02*
X249510050Y-71000000D01*
X247750000Y-72760050D02*
X247750000Y-73500000D01*
X249510050Y-71000000D02*
X247750000Y-72760050D01*
D30*
X250160000Y-63750000D02*
X250500000Y-63410000D01*
X249000000Y-63750000D02*
X250160000Y-63750000D01*
D29*
X253200000Y-64500000D02*
X253200000Y-69400000D01*
X253000000Y-64300000D02*
X253200000Y-64500000D01*
%TO.N,MISO*%
X253000000Y-86500000D02*
X252400000Y-85900000D01*
X252400000Y-85900000D02*
X252400000Y-80650000D01*
X252400000Y-80650000D02*
X249500000Y-77750000D01*
D31*
%TO.N,Net-(J14-Pin_2)*%
X171050000Y-87600000D02*
X174250000Y-90800000D01*
X174250000Y-90800000D02*
X174250000Y-120750000D01*
%TO.N,Net-(J15-Pin_2)*%
X162500000Y-110750000D02*
X162500000Y-120750000D01*
X155050000Y-87600000D02*
X155050000Y-103300000D01*
X155050000Y-103300000D02*
X162500000Y-110750000D01*
%TO.N,Net-(J16-Pin_2)*%
X186000000Y-120750000D02*
X186000000Y-88650000D01*
X186000000Y-88650000D02*
X187050000Y-87600000D01*
D29*
%TO.N,unconnected-(J17-Shield-Pad6)*%
X231725000Y-39900000D02*
X235575000Y-39900000D01*
X235575000Y-39900000D02*
X237300000Y-41625000D01*
X230000000Y-41625000D02*
X231725000Y-39900000D01*
%TO.N,Net-(J17-D-)*%
X232750000Y-45250000D02*
X231200000Y-43700000D01*
X232072183Y-40750000D02*
X232850000Y-40750000D01*
X231200000Y-43700000D02*
X231200000Y-41622183D01*
X231200000Y-41622183D02*
X232072183Y-40750000D01*
%TO.N,D_OUT_C*%
X160100000Y-63500000D02*
X160100000Y-79100000D01*
X181300000Y-82500000D02*
X181800000Y-82500000D01*
X170500000Y-60900000D02*
X169000000Y-62400000D01*
X169000000Y-62400000D02*
X161200000Y-62400000D01*
X161200000Y-62400000D02*
X160100000Y-63500000D01*
X161200000Y-80200000D02*
X179000000Y-80200000D01*
X160100000Y-79100000D02*
X161200000Y-80200000D01*
X179000000Y-80200000D02*
X181300000Y-82500000D01*
%TO.N,D_OUT_A*%
X168234314Y-61600000D02*
X160868628Y-61600000D01*
X149900000Y-82000000D02*
X149500000Y-82400000D01*
X160868628Y-61600000D02*
X159300000Y-63168628D01*
X158300000Y-82000000D02*
X149900000Y-82000000D01*
X170900000Y-59200000D02*
X170634314Y-59200000D01*
X159300000Y-81000000D02*
X158300000Y-82000000D01*
X159300000Y-63168628D02*
X159300000Y-81000000D01*
X170634314Y-59200000D02*
X168234314Y-61600000D01*
%TO.N,D_OUT_B*%
X161034314Y-62000000D02*
X168400000Y-62000000D01*
X165300000Y-82200000D02*
X162634314Y-82200000D01*
X171300000Y-60200000D02*
X171400000Y-60300000D01*
X168400000Y-62000000D02*
X170200000Y-60200000D01*
X159700000Y-79265686D02*
X159700000Y-63334314D01*
X162634314Y-82200000D02*
X159700000Y-79265686D01*
X170200000Y-60200000D02*
X171300000Y-60200000D01*
X159700000Y-63334314D02*
X161034314Y-62000000D01*
%TO.N,SD_CMD*%
X187950000Y-61300000D02*
X182700000Y-61300000D01*
X182700000Y-61300000D02*
X180000000Y-64000000D01*
X218700000Y-56900000D02*
X192350000Y-56900000D01*
X219200000Y-57400000D02*
X218700000Y-56900000D01*
X192350000Y-56900000D02*
X187950000Y-61300000D01*
%TO.N,SD_SCK*%
X219250000Y-56500000D02*
X191881372Y-56500000D01*
X187481372Y-60900000D02*
X181100000Y-60900000D01*
X221100000Y-56500000D02*
X221900000Y-55700000D01*
X219250000Y-56500000D02*
X221100000Y-56500000D01*
X181100000Y-60900000D02*
X180000000Y-62000000D01*
X191881372Y-56500000D02*
X187481372Y-60900000D01*
X180000000Y-62000000D02*
X180000000Y-62250000D01*
%TO.N,SD_D2*%
X191550000Y-55700000D02*
X211200000Y-55700000D01*
X191550000Y-55700000D02*
X187150000Y-60100000D01*
X180300000Y-59800000D02*
X180600000Y-60100000D01*
X187150000Y-60100000D02*
X180600000Y-60100000D01*
X178400000Y-59800000D02*
X180300000Y-59800000D01*
X211200000Y-55700000D02*
X212700000Y-54200000D01*
%TO.N,SD_D3*%
X191715686Y-56100000D02*
X187315686Y-60500000D01*
X212600000Y-56100000D02*
X217600000Y-56100000D01*
X217600000Y-56100000D02*
X218400000Y-55300000D01*
X187315686Y-60500000D02*
X180000000Y-60500000D01*
X212600000Y-56100000D02*
X191715686Y-56100000D01*
%TO.N,SCK*%
X252000000Y-86500000D02*
X253500000Y-88000000D01*
X253500000Y-88000000D02*
X254250000Y-88000000D01*
X247500000Y-76750000D02*
X252000000Y-81250000D01*
X252000000Y-81250000D02*
X252000000Y-86500000D01*
%TO.N,SDA_1*%
X170855025Y-55750000D02*
X176505025Y-61400000D01*
X177510050Y-66750000D02*
X178250000Y-66750000D01*
X176505025Y-65744975D02*
X177510050Y-66750000D01*
X176505025Y-61400000D02*
X176505025Y-65744975D01*
X164500000Y-55750000D02*
X170855025Y-55750000D01*
X163500000Y-54750000D02*
X164500000Y-55750000D01*
%TO.N,SCL_1*%
X176905025Y-61234314D02*
X170420711Y-54750000D01*
X176905025Y-65155025D02*
X176905025Y-61234314D01*
X177500000Y-65750000D02*
X176905025Y-65155025D01*
X170420711Y-54750000D02*
X167000000Y-54750000D01*
%TO.N,5V_voltage_detect*%
X173000000Y-76100000D02*
X177900000Y-71200000D01*
X177900000Y-71200000D02*
X177900000Y-68400000D01*
%TO.N,IN_voltage_detect*%
X194000000Y-69189950D02*
X194000000Y-86450000D01*
X192600000Y-66150000D02*
X192600000Y-67789950D01*
X192600000Y-67789950D02*
X194000000Y-69189950D01*
X194000000Y-86450000D02*
X196250000Y-88700000D01*
X196250000Y-88700000D02*
X196250000Y-103750000D01*
%TO.N,SD_DET*%
X216300000Y-57300000D02*
X217500000Y-58500000D01*
X217500000Y-58500000D02*
X227000000Y-58500000D01*
X227000000Y-58500000D02*
X228100000Y-57400000D01*
X198200000Y-57300000D02*
X216300000Y-57300000D01*
X196250000Y-59250000D02*
X198200000Y-57300000D01*
D30*
%TO.N,SDA_2*%
X197488604Y-63325000D02*
X199213604Y-65050000D01*
X186675000Y-63325000D02*
X197488604Y-63325000D01*
X206350000Y-65050000D02*
X208600000Y-62800000D01*
X199213604Y-65050000D02*
X206350000Y-65050000D01*
X186600000Y-63400000D02*
X186675000Y-63325000D01*
%TO.N,SCL_2*%
X203500000Y-64600000D02*
X205300000Y-62800000D01*
X189400000Y-62600000D02*
X189675000Y-62875000D01*
X188200000Y-62600000D02*
X189400000Y-62600000D01*
X197675000Y-62875000D02*
X199400000Y-64600000D01*
X199400000Y-64600000D02*
X203500000Y-64600000D01*
X189675000Y-62875000D02*
X197675000Y-62875000D01*
D29*
%TO.N,MAX485_RE*%
X187652944Y-57900000D02*
X184800000Y-57900000D01*
X187726472Y-57826472D02*
X187652944Y-57900000D01*
X194250000Y-50950000D02*
X194250000Y-51302943D01*
X188100000Y-57452943D02*
X187726472Y-57826472D01*
X194250000Y-51302943D02*
X188100000Y-57452943D01*
X195200000Y-50000000D02*
X194250000Y-50950000D01*
%TO.N,ETH_CS*%
X251500000Y-81315686D02*
X249717157Y-79532843D01*
X248782843Y-79532843D02*
X247250000Y-78000000D01*
X249717157Y-79532843D02*
X248782843Y-79532843D01*
X251500000Y-89500000D02*
X251500000Y-81315686D01*
X253000000Y-91000000D02*
X251500000Y-89500000D01*
%TO.N,MAX485_DE*%
X187318630Y-58800000D02*
X188959315Y-57159315D01*
X191309315Y-54809314D02*
X194918629Y-51200000D01*
X188959315Y-57159315D02*
X191309315Y-54809314D01*
X185900000Y-58800000D02*
X187318630Y-58800000D01*
X194918629Y-51200000D02*
X195200000Y-51200000D01*
D30*
%TO.N,PA4*%
X192300000Y-76100000D02*
X192300000Y-71900000D01*
X187900000Y-67500000D02*
X192300000Y-71900000D01*
D29*
%TO.N,MAX485_DI*%
X188692157Y-57992157D02*
X186984314Y-59700000D01*
X183700000Y-59700000D02*
X182800000Y-58800000D01*
X186984314Y-59700000D02*
X183700000Y-59700000D01*
X195200000Y-52500000D02*
X194184314Y-52500000D01*
X194184314Y-52500000D02*
X188692157Y-57992157D01*
%TO.N,CURRENT_SENSOR_B*%
X199300000Y-90766814D02*
X199300000Y-71294364D01*
X230967500Y-113700000D02*
X228235000Y-110967500D01*
X228235000Y-110967500D02*
X219500686Y-110967500D01*
X219500686Y-110967500D02*
X199300000Y-90766814D01*
X230967500Y-114000000D02*
X230967500Y-113700000D01*
X185150000Y-65050000D02*
X184000000Y-66200000D01*
X199300000Y-71294364D02*
X193055636Y-65050000D01*
X193055636Y-65050000D02*
X185150000Y-65050000D01*
%TO.N,MAX485_RO*%
X193593628Y-51393628D02*
X193793628Y-51193628D01*
X193793628Y-50106372D02*
X193793628Y-51193628D01*
X182100000Y-57200000D02*
X187787257Y-57200000D01*
X187787257Y-57200000D02*
X193593628Y-51393628D01*
X195200000Y-48700000D02*
X193793628Y-50106372D01*
X181400000Y-57900000D02*
X182100000Y-57200000D01*
%TO.N,CURRENT_SENSOR_C*%
X236367500Y-110567500D02*
X239800000Y-114000000D01*
X219666372Y-110567500D02*
X236367500Y-110567500D01*
X184400000Y-64600000D02*
X193171321Y-64600000D01*
X193171321Y-64600000D02*
X199700000Y-71128679D01*
X182100000Y-66900000D02*
X184400000Y-64600000D01*
X239800000Y-114000000D02*
X239967500Y-114000000D01*
X199700000Y-90601128D02*
X219666372Y-110567500D01*
X199700000Y-71128679D02*
X199700000Y-90601128D01*
%TO.N,CURRENT_SENSOR_A*%
X186465686Y-66900000D02*
X187915686Y-65450000D01*
X198900000Y-90932500D02*
X221967500Y-114000000D01*
X192889950Y-65450000D02*
X198900000Y-71460050D01*
X185900000Y-66900000D02*
X186465686Y-66900000D01*
X187915686Y-65450000D02*
X192889950Y-65450000D01*
X198900000Y-71460050D02*
X198900000Y-90932500D01*
%TD*%
M02*
