%TF.GenerationSoftware,KiCad,Pcbnew,8.0.6*%
%TF.CreationDate,2024-12-11T15:10:48+01:00*%
%TF.ProjectId,fastLOGIC,66617374-4c4f-4474-9943-2e6b69636164,rev?*%
%TF.SameCoordinates,Original*%
%TF.FileFunction,Paste,Top*%
%TF.FilePolarity,Positive*%
%FSLAX46Y46*%
G04 Gerber Fmt 4.6, Leading zero omitted, Abs format (unit mm)*
G04 Created by KiCad (PCBNEW 8.0.6) date 2024-12-11 15:10:48*
%MOMM*%
%LPD*%
G01*
G04 APERTURE LIST*
G04 Aperture macros list*
%AMRoundRect*
0 Rectangle with rounded corners*
0 $1 Rounding radius*
0 $2 $3 $4 $5 $6 $7 $8 $9 X,Y pos of 4 corners*
0 Add a 4 corners polygon primitive as box body*
4,1,4,$2,$3,$4,$5,$6,$7,$8,$9,$2,$3,0*
0 Add four circle primitives for the rounded corners*
1,1,$1+$1,$2,$3*
1,1,$1+$1,$4,$5*
1,1,$1+$1,$6,$7*
1,1,$1+$1,$8,$9*
0 Add four rect primitives between the rounded corners*
20,1,$1+$1,$2,$3,$4,$5,0*
20,1,$1+$1,$4,$5,$6,$7,0*
20,1,$1+$1,$6,$7,$8,$9,0*
20,1,$1+$1,$8,$9,$2,$3,0*%
G04 Aperture macros list end*
%ADD10RoundRect,0.140000X0.140000X0.170000X-0.140000X0.170000X-0.140000X-0.170000X0.140000X-0.170000X0*%
%ADD11RoundRect,0.200000X0.200000X0.275000X-0.200000X0.275000X-0.200000X-0.275000X0.200000X-0.275000X0*%
%ADD12RoundRect,0.225000X-0.225000X-0.250000X0.225000X-0.250000X0.225000X0.250000X-0.225000X0.250000X0*%
%ADD13RoundRect,0.140000X0.170000X-0.140000X0.170000X0.140000X-0.170000X0.140000X-0.170000X-0.140000X0*%
%ADD14RoundRect,0.200000X-0.200000X-0.275000X0.200000X-0.275000X0.200000X0.275000X-0.200000X0.275000X0*%
%ADD15RoundRect,0.250000X-0.325000X-0.650000X0.325000X-0.650000X0.325000X0.650000X-0.325000X0.650000X0*%
%ADD16R,0.700000X1.200000*%
%ADD17R,1.000000X0.800000*%
%ADD18R,1.000000X1.200000*%
%ADD19R,1.000000X2.800000*%
%ADD20R,1.300000X1.900000*%
%ADD21RoundRect,0.200000X-0.275000X0.200000X-0.275000X-0.200000X0.275000X-0.200000X0.275000X0.200000X0*%
%ADD22RoundRect,0.243750X0.243750X0.456250X-0.243750X0.456250X-0.243750X-0.456250X0.243750X-0.456250X0*%
%ADD23RoundRect,0.150000X-0.587500X-0.150000X0.587500X-0.150000X0.587500X0.150000X-0.587500X0.150000X0*%
%ADD24RoundRect,0.250000X0.325000X0.650000X-0.325000X0.650000X-0.325000X-0.650000X0.325000X-0.650000X0*%
%ADD25RoundRect,0.250000X1.000000X0.650000X-1.000000X0.650000X-1.000000X-0.650000X1.000000X-0.650000X0*%
%ADD26RoundRect,0.250000X-1.050000X-0.550000X1.050000X-0.550000X1.050000X0.550000X-1.050000X0.550000X0*%
%ADD27RoundRect,0.135000X-0.135000X-0.185000X0.135000X-0.185000X0.135000X0.185000X-0.135000X0.185000X0*%
%ADD28RoundRect,0.243750X-0.456250X0.243750X-0.456250X-0.243750X0.456250X-0.243750X0.456250X0.243750X0*%
%ADD29RoundRect,0.225000X-0.225000X0.225000X-0.225000X-0.225000X0.225000X-0.225000X0.225000X0.225000X0*%
%ADD30RoundRect,0.062500X-0.062500X0.337500X-0.062500X-0.337500X0.062500X-0.337500X0.062500X0.337500X0*%
%ADD31RoundRect,0.062500X-0.337500X0.062500X-0.337500X-0.062500X0.337500X-0.062500X0.337500X0.062500X0*%
%ADD32RoundRect,0.243750X-0.243750X-0.456250X0.243750X-0.456250X0.243750X0.456250X-0.243750X0.456250X0*%
%ADD33RoundRect,0.250000X-0.650000X0.325000X-0.650000X-0.325000X0.650000X-0.325000X0.650000X0.325000X0*%
%ADD34RoundRect,0.225000X0.250000X-0.225000X0.250000X0.225000X-0.250000X0.225000X-0.250000X-0.225000X0*%
%ADD35RoundRect,0.140000X-0.170000X0.140000X-0.170000X-0.140000X0.170000X-0.140000X0.170000X0.140000X0*%
%ADD36RoundRect,0.250000X0.850000X0.350000X-0.850000X0.350000X-0.850000X-0.350000X0.850000X-0.350000X0*%
%ADD37RoundRect,0.250000X1.275000X1.125000X-1.275000X1.125000X-1.275000X-1.125000X1.275000X-1.125000X0*%
%ADD38RoundRect,0.225000X-0.250000X0.225000X-0.250000X-0.225000X0.250000X-0.225000X0.250000X0.225000X0*%
%ADD39RoundRect,0.375000X-0.375000X0.625000X-0.375000X-0.625000X0.375000X-0.625000X0.375000X0.625000X0*%
%ADD40RoundRect,0.500000X-1.400000X0.500000X-1.400000X-0.500000X1.400000X-0.500000X1.400000X0.500000X0*%
%ADD41R,2.800000X1.000000*%
%ADD42RoundRect,0.218750X0.218750X0.381250X-0.218750X0.381250X-0.218750X-0.381250X0.218750X-0.381250X0*%
%ADD43RoundRect,0.150000X0.150000X-0.587500X0.150000X0.587500X-0.150000X0.587500X-0.150000X-0.587500X0*%
%ADD44R,2.000000X2.400000*%
%ADD45RoundRect,0.200000X0.275000X-0.200000X0.275000X0.200000X-0.275000X0.200000X-0.275000X-0.200000X0*%
%ADD46RoundRect,0.250000X0.650000X-0.325000X0.650000X0.325000X-0.650000X0.325000X-0.650000X-0.325000X0*%
%ADD47R,1.600000X3.100000*%
%ADD48RoundRect,0.250000X0.262500X0.450000X-0.262500X0.450000X-0.262500X-0.450000X0.262500X-0.450000X0*%
%ADD49RoundRect,0.225000X0.225000X0.250000X-0.225000X0.250000X-0.225000X-0.250000X0.225000X-0.250000X0*%
%ADD50RoundRect,0.150000X-0.675000X-0.150000X0.675000X-0.150000X0.675000X0.150000X-0.675000X0.150000X0*%
%ADD51R,1.400000X1.200000*%
%ADD52RoundRect,0.250000X0.250000X0.475000X-0.250000X0.475000X-0.250000X-0.475000X0.250000X-0.475000X0*%
%ADD53R,2.600000X3.600000*%
%ADD54RoundRect,0.250000X-0.250000X-0.475000X0.250000X-0.475000X0.250000X0.475000X-0.250000X0.475000X0*%
%ADD55RoundRect,0.075000X-0.075000X0.662500X-0.075000X-0.662500X0.075000X-0.662500X0.075000X0.662500X0*%
%ADD56RoundRect,0.075000X-0.662500X0.075000X-0.662500X-0.075000X0.662500X-0.075000X0.662500X0.075000X0*%
%ADD57RoundRect,0.075000X0.075000X-0.725000X0.075000X0.725000X-0.075000X0.725000X-0.075000X-0.725000X0*%
%ADD58RoundRect,0.075000X0.725000X-0.075000X0.725000X0.075000X-0.725000X0.075000X-0.725000X-0.075000X0*%
G04 APERTURE END LIST*
D10*
%TO.C,C44*%
X240980000Y-76750000D03*
X240020000Y-76750000D03*
%TD*%
D11*
%TO.C,R32*%
X197575000Y-106250000D03*
X195925000Y-106250000D03*
%TD*%
D12*
%TO.C,C9*%
X164825000Y-57500000D03*
X166375000Y-57500000D03*
%TD*%
D13*
%TO.C,C21*%
X185800000Y-75980000D03*
X185800000Y-75020000D03*
%TD*%
D14*
%TO.C,R56*%
X181925000Y-46500000D03*
X183575000Y-46500000D03*
%TD*%
D15*
%TO.C,C6*%
X250100000Y-98500000D03*
X253050000Y-98500000D03*
%TD*%
D14*
%TO.C,R21*%
X207425000Y-92250000D03*
X209075000Y-92250000D03*
%TD*%
D16*
%TO.C,J21*%
X217525000Y-53790000D03*
X218625000Y-53790000D03*
X219725000Y-53790000D03*
X220825000Y-53790000D03*
X221925000Y-53790000D03*
X223025000Y-53790000D03*
X224125000Y-53790000D03*
X225225000Y-53790000D03*
X226175000Y-53790000D03*
D17*
X227125000Y-43290000D03*
D18*
X227125000Y-49490000D03*
D19*
X227125000Y-39140000D03*
D18*
X215975000Y-53790000D03*
D20*
X213625000Y-38690000D03*
%TD*%
D21*
%TO.C,R18*%
X165750000Y-83425000D03*
X165750000Y-85075000D03*
%TD*%
D22*
%TO.C,D6*%
X175187500Y-115500000D03*
X173312500Y-115500000D03*
%TD*%
D11*
%TO.C,R54*%
X240575000Y-83750000D03*
X238925000Y-83750000D03*
%TD*%
D23*
%TO.C,Q1*%
X151562500Y-83300000D03*
X151562500Y-85200000D03*
X153437500Y-84250000D03*
%TD*%
D15*
%TO.C,C18*%
X259800000Y-89000000D03*
X262750000Y-89000000D03*
%TD*%
D24*
%TO.C,C4*%
X247175000Y-96250000D03*
X244225000Y-96250000D03*
%TD*%
D12*
%TO.C,C31*%
X253725000Y-72750000D03*
X255275000Y-72750000D03*
%TD*%
D21*
%TO.C,R36*%
X158600000Y-72075000D03*
X158600000Y-73725000D03*
%TD*%
D10*
%TO.C,C39*%
X241000000Y-73250000D03*
X240040000Y-73250000D03*
%TD*%
D21*
%TO.C,R50*%
X250500000Y-64250000D03*
X250500000Y-65900000D03*
%TD*%
D25*
%TO.C,D4*%
X161250000Y-84250000D03*
X157250000Y-84250000D03*
%TD*%
D26*
%TO.C,C3*%
X249900000Y-103500000D03*
X253500000Y-103500000D03*
%TD*%
D21*
%TO.C,R42*%
X248157500Y-67500000D03*
X248157500Y-69150000D03*
%TD*%
D23*
%TO.C,Q2*%
X167750000Y-83260000D03*
X167750000Y-85160000D03*
X169625000Y-84210000D03*
%TD*%
D27*
%TO.C,R38*%
X246582500Y-81675000D03*
X247602500Y-81675000D03*
%TD*%
D28*
%TO.C,D3*%
X188000000Y-49462500D03*
X188000000Y-51337500D03*
%TD*%
D14*
%TO.C,R6*%
X214425000Y-106750000D03*
X216075000Y-106750000D03*
%TD*%
D29*
%TO.C,U9*%
X234670000Y-48500000D03*
X233550000Y-48500000D03*
X232430000Y-48500000D03*
X234670000Y-49620000D03*
X233550000Y-49620000D03*
X232430000Y-49620000D03*
X234670000Y-50740000D03*
X233550000Y-50740000D03*
X232430000Y-50740000D03*
D30*
X235050000Y-47170000D03*
X234550000Y-47170000D03*
X234050000Y-47170000D03*
X233550000Y-47170000D03*
X233050000Y-47170000D03*
X232550000Y-47170000D03*
X232050000Y-47170000D03*
D31*
X231100000Y-48120000D03*
X231100000Y-48620000D03*
X231100000Y-49120000D03*
X231100000Y-49620000D03*
X231100000Y-50120000D03*
X231100000Y-50620000D03*
X231100000Y-51120000D03*
D30*
X232050000Y-52070000D03*
X232550000Y-52070000D03*
X233050000Y-52070000D03*
X233550000Y-52070000D03*
X234050000Y-52070000D03*
X234550000Y-52070000D03*
X235050000Y-52070000D03*
D31*
X236000000Y-51120000D03*
X236000000Y-50620000D03*
X236000000Y-50120000D03*
X236000000Y-49620000D03*
X236000000Y-49120000D03*
X236000000Y-48620000D03*
X236000000Y-48120000D03*
%TD*%
D32*
%TO.C,D13*%
X174762500Y-76500000D03*
X176637500Y-76500000D03*
%TD*%
D33*
%TO.C,C28*%
X240250000Y-62775000D03*
X240250000Y-65725000D03*
%TD*%
D11*
%TO.C,R7*%
X212825000Y-106750000D03*
X211175000Y-106750000D03*
%TD*%
D21*
%TO.C,R9*%
X186000000Y-52775000D03*
X186000000Y-54425000D03*
%TD*%
D10*
%TO.C,C40*%
X241000000Y-74750000D03*
X240040000Y-74750000D03*
%TD*%
D34*
%TO.C,C11*%
X252000000Y-94525000D03*
X252000000Y-92975000D03*
%TD*%
D11*
%TO.C,R53*%
X240575000Y-79250000D03*
X238925000Y-79250000D03*
%TD*%
D35*
%TO.C,C29*%
X244250000Y-82750000D03*
X244250000Y-83710000D03*
%TD*%
D36*
%TO.C,U1*%
X246825000Y-103305000D03*
D37*
X242200000Y-102550000D03*
X242200000Y-99500000D03*
X238850000Y-102550000D03*
X238850000Y-99500000D03*
D36*
X246825000Y-98745000D03*
%TD*%
D38*
%TO.C,C15*%
X158600000Y-75125000D03*
X158600000Y-76675000D03*
%TD*%
D39*
%TO.C,U10*%
X263300000Y-92100000D03*
X261000000Y-92100000D03*
D40*
X261000000Y-98400000D03*
D39*
X258700000Y-92100000D03*
%TD*%
D34*
%TO.C,C19*%
X175000000Y-56000000D03*
X175000000Y-54450000D03*
%TD*%
D14*
%TO.C,R10*%
X256987500Y-111750000D03*
X258637500Y-111750000D03*
%TD*%
D15*
%TO.C,C5*%
X248025000Y-107250000D03*
X250975000Y-107250000D03*
%TD*%
D13*
%TO.C,C41*%
X252500000Y-62730000D03*
X252500000Y-61770000D03*
%TD*%
D41*
%TO.C,SW5*%
X156150000Y-75750000D03*
X150350000Y-75750000D03*
X156150000Y-71750000D03*
X150350000Y-71750000D03*
%TD*%
D12*
%TO.C,C27*%
X192225000Y-69000000D03*
X193775000Y-69000000D03*
%TD*%
D14*
%TO.C,R44*%
X238925000Y-82250000D03*
X240575000Y-82250000D03*
%TD*%
D28*
%TO.C,D1*%
X186000000Y-49462500D03*
X186000000Y-51337500D03*
%TD*%
D22*
%TO.C,D7*%
X163437500Y-115500000D03*
X161562500Y-115500000D03*
%TD*%
D35*
%TO.C,C38*%
X245907500Y-65115000D03*
X245907500Y-66075000D03*
%TD*%
D42*
%TO.C,L1*%
X253812500Y-71000000D03*
X251687500Y-71000000D03*
%TD*%
D13*
%TO.C,C43*%
X251500000Y-62730000D03*
X251500000Y-61770000D03*
%TD*%
D28*
%TO.C,D16*%
X190000000Y-49462500D03*
X190000000Y-51337500D03*
%TD*%
D11*
%TO.C,R13*%
X206075000Y-106750000D03*
X204425000Y-106750000D03*
%TD*%
D34*
%TO.C,C7*%
X229500000Y-48775000D03*
X229500000Y-47225000D03*
%TD*%
D43*
%TO.C,Q4*%
X161475000Y-50125000D03*
X163375000Y-50125000D03*
X162425000Y-48250000D03*
%TD*%
D21*
%TO.C,R37*%
X170400000Y-67475000D03*
X170400000Y-69125000D03*
%TD*%
D44*
%TO.C,Y2*%
X180200000Y-76500000D03*
X183900000Y-76500000D03*
%TD*%
D21*
%TO.C,R52*%
X244657500Y-64175000D03*
X244657500Y-65825000D03*
%TD*%
D22*
%TO.C,D14*%
X186937500Y-115500000D03*
X185062500Y-115500000D03*
%TD*%
D35*
%TO.C,C37*%
X248407500Y-65115000D03*
X248407500Y-66075000D03*
%TD*%
D11*
%TO.C,R59*%
X227025000Y-57300000D03*
X225375000Y-57300000D03*
%TD*%
D14*
%TO.C,R1*%
X257162500Y-109500000D03*
X258812500Y-109500000D03*
%TD*%
D22*
%TO.C,D10*%
X260375000Y-49000000D03*
X258500000Y-49000000D03*
%TD*%
D35*
%TO.C,C30*%
X249750000Y-82750000D03*
X249750000Y-83710000D03*
%TD*%
%TO.C,C20*%
X178300000Y-75040000D03*
X178300000Y-76000000D03*
%TD*%
D22*
%TO.C,D9*%
X213437500Y-115500000D03*
X211562500Y-115500000D03*
%TD*%
D45*
%TO.C,R23*%
X195000000Y-115575000D03*
X195000000Y-113925000D03*
%TD*%
%TO.C,R19*%
X164062500Y-85075000D03*
X164062500Y-83425000D03*
%TD*%
D14*
%TO.C,R33*%
X161675000Y-53500000D03*
X163325000Y-53500000D03*
%TD*%
%TO.C,R45*%
X238925000Y-80750000D03*
X240575000Y-80750000D03*
%TD*%
D46*
%TO.C,C12*%
X249500000Y-94475000D03*
X249500000Y-91525000D03*
%TD*%
D14*
%TO.C,R16*%
X161800000Y-56000000D03*
X163450000Y-56000000D03*
%TD*%
D47*
%TO.C,U4*%
X205730000Y-103945000D03*
X208270000Y-103945000D03*
X208270000Y-95055000D03*
X205730000Y-95055000D03*
%TD*%
D11*
%TO.C,R8*%
X173150000Y-48000000D03*
X171500000Y-48000000D03*
%TD*%
D12*
%TO.C,C14*%
X229725000Y-45500000D03*
X231275000Y-45500000D03*
%TD*%
D14*
%TO.C,R34*%
X164925000Y-53500000D03*
X166575000Y-53500000D03*
%TD*%
%TO.C,R15*%
X161800000Y-59600000D03*
X163450000Y-59600000D03*
%TD*%
D21*
%TO.C,R63*%
X190000000Y-52775000D03*
X190000000Y-54425000D03*
%TD*%
D12*
%TO.C,C23*%
X191975000Y-58250000D03*
X193525000Y-58250000D03*
%TD*%
D28*
%TO.C,D17*%
X192000000Y-49462500D03*
X192000000Y-51337500D03*
%TD*%
D22*
%TO.C,D8*%
X201437500Y-115500000D03*
X199562500Y-115500000D03*
%TD*%
D23*
%TO.C,Q3*%
X183750000Y-83300000D03*
X183750000Y-85200000D03*
X185625000Y-84250000D03*
%TD*%
D45*
%TO.C,R24*%
X207250000Y-115575000D03*
X207250000Y-113925000D03*
%TD*%
%TO.C,R62*%
X219500000Y-104100000D03*
X219500000Y-102450000D03*
%TD*%
D14*
%TO.C,R12*%
X214175000Y-92250000D03*
X215825000Y-92250000D03*
%TD*%
D48*
%TO.C,R27*%
X208912500Y-46500000D03*
X207087500Y-46500000D03*
%TD*%
D21*
%TO.C,R64*%
X192000000Y-52775000D03*
X192000000Y-54425000D03*
%TD*%
D14*
%TO.C,R14*%
X161800000Y-57500000D03*
X163450000Y-57500000D03*
%TD*%
D21*
%TO.C,R61*%
X218000000Y-102450000D03*
X218000000Y-104100000D03*
%TD*%
D14*
%TO.C,R31*%
X195925000Y-107750000D03*
X197575000Y-107750000D03*
%TD*%
D46*
%TO.C,C1*%
X221500000Y-104000000D03*
X221500000Y-101050000D03*
%TD*%
D21*
%TO.C,R51*%
X247157500Y-64250000D03*
X247157500Y-65900000D03*
%TD*%
%TO.C,R40*%
X251157500Y-67500000D03*
X251157500Y-69150000D03*
%TD*%
D22*
%TO.C,D19*%
X231437500Y-55750000D03*
X229562500Y-55750000D03*
%TD*%
D11*
%TO.C,R47*%
X248575000Y-62500000D03*
X246925000Y-62500000D03*
%TD*%
D49*
%TO.C,C34*%
X248525000Y-61000000D03*
X246975000Y-61000000D03*
%TD*%
D15*
%TO.C,C22*%
X259825000Y-85100000D03*
X262775000Y-85100000D03*
%TD*%
D50*
%TO.C,U8*%
X196975000Y-48495000D03*
X196975000Y-49765000D03*
X196975000Y-51035000D03*
X196975000Y-52305000D03*
X202225000Y-52305000D03*
X202225000Y-51035000D03*
X202225000Y-49765000D03*
X202225000Y-48495000D03*
%TD*%
D14*
%TO.C,R4*%
X164925000Y-46500000D03*
X166575000Y-46500000D03*
%TD*%
D45*
%TO.C,R20*%
X147750000Y-85075000D03*
X147750000Y-83425000D03*
%TD*%
D41*
%TO.C,SW3*%
X150350000Y-57750000D03*
X156150000Y-57750000D03*
X150350000Y-61750000D03*
X156150000Y-61750000D03*
%TD*%
D32*
%TO.C,D2*%
X253625000Y-111750000D03*
X255500000Y-111750000D03*
%TD*%
D38*
%TO.C,C8*%
X189750000Y-74225000D03*
X189750000Y-75775000D03*
%TD*%
D14*
%TO.C,R22*%
X207600000Y-106750000D03*
X209250000Y-106750000D03*
%TD*%
D51*
%TO.C,Y3*%
X248100000Y-83150000D03*
X245900000Y-83150000D03*
X245900000Y-84850000D03*
X248100000Y-84850000D03*
%TD*%
D21*
%TO.C,R3*%
X181750000Y-83425000D03*
X181750000Y-85075000D03*
%TD*%
D32*
%TO.C,D11*%
X253625000Y-109500000D03*
X255500000Y-109500000D03*
%TD*%
D14*
%TO.C,R57*%
X166975000Y-72400000D03*
X168625000Y-72400000D03*
%TD*%
%TO.C,R25*%
X192675000Y-46500000D03*
X194325000Y-46500000D03*
%TD*%
%TO.C,R26*%
X164925000Y-52000000D03*
X166575000Y-52000000D03*
%TD*%
%TO.C,R66*%
X234925000Y-55000000D03*
X236575000Y-55000000D03*
%TD*%
D52*
%TO.C,C45*%
X240700000Y-71750000D03*
X238800000Y-71750000D03*
%TD*%
D45*
%TO.C,R2*%
X180000000Y-85075000D03*
X180000000Y-83425000D03*
%TD*%
D53*
%TO.C,BT1*%
X203000000Y-78900000D03*
X232300000Y-78900000D03*
%TD*%
D14*
%TO.C,R35*%
X171500000Y-46500000D03*
X173150000Y-46500000D03*
%TD*%
D38*
%TO.C,C17*%
X174250000Y-71225000D03*
X174250000Y-72775000D03*
%TD*%
D13*
%TO.C,C42*%
X250500000Y-62730000D03*
X250500000Y-61770000D03*
%TD*%
D47*
%TO.C,U3*%
X212480000Y-103945000D03*
X215020000Y-103945000D03*
X215020000Y-95055000D03*
X212480000Y-95055000D03*
%TD*%
D23*
%TO.C,Q6*%
X233000000Y-64250000D03*
X233000000Y-66150000D03*
X234875000Y-65200000D03*
%TD*%
D11*
%TO.C,R58*%
X168625000Y-70900000D03*
X166975000Y-70900000D03*
%TD*%
D41*
%TO.C,SW4*%
X150350000Y-64750000D03*
X156150000Y-64750000D03*
X150350000Y-68750000D03*
X156150000Y-68750000D03*
%TD*%
D34*
%TO.C,C36*%
X242500000Y-65775000D03*
X242500000Y-64225000D03*
%TD*%
D54*
%TO.C,C32*%
X253800000Y-74500000D03*
X255700000Y-74500000D03*
%TD*%
D12*
%TO.C,C10*%
X164825000Y-56000000D03*
X166375000Y-56000000D03*
%TD*%
D55*
%TO.C,U13*%
X249750000Y-71247500D03*
X249250000Y-71247500D03*
X248750000Y-71247500D03*
X248250000Y-71247500D03*
X247750000Y-71247500D03*
X247250000Y-71247500D03*
X246750000Y-71247500D03*
X246250000Y-71247500D03*
X245750000Y-71247500D03*
X245250000Y-71247500D03*
X244750000Y-71247500D03*
X244250000Y-71247500D03*
D56*
X242837500Y-72660000D03*
X242837500Y-73160000D03*
X242837500Y-73660000D03*
X242837500Y-74160000D03*
X242837500Y-74660000D03*
X242837500Y-75160000D03*
X242837500Y-75660000D03*
X242837500Y-76160000D03*
X242837500Y-76660000D03*
X242837500Y-77160000D03*
X242837500Y-77660000D03*
X242837500Y-78160000D03*
D55*
X244250000Y-79572500D03*
X244750000Y-79572500D03*
X245250000Y-79572500D03*
X245750000Y-79572500D03*
X246250000Y-79572500D03*
X246750000Y-79572500D03*
X247250000Y-79572500D03*
X247750000Y-79572500D03*
X248250000Y-79572500D03*
X248750000Y-79572500D03*
X249250000Y-79572500D03*
X249750000Y-79572500D03*
D56*
X251162500Y-78160000D03*
X251162500Y-77660000D03*
X251162500Y-77160000D03*
X251162500Y-76660000D03*
X251162500Y-76160000D03*
X251162500Y-75660000D03*
X251162500Y-75160000D03*
X251162500Y-74660000D03*
X251162500Y-74160000D03*
X251162500Y-73660000D03*
X251162500Y-73160000D03*
X251162500Y-72660000D03*
%TD*%
D34*
%TO.C,C24*%
X223500000Y-104075000D03*
X223500000Y-102525000D03*
%TD*%
D11*
%TO.C,R55*%
X183575000Y-48000000D03*
X181925000Y-48000000D03*
%TD*%
D10*
%TO.C,C35*%
X240980000Y-75750000D03*
X240020000Y-75750000D03*
%TD*%
D14*
%TO.C,R5*%
X161675000Y-52000000D03*
X163325000Y-52000000D03*
%TD*%
D10*
%TO.C,C33*%
X240980000Y-77750000D03*
X240020000Y-77750000D03*
%TD*%
D38*
%TO.C,C16*%
X188250000Y-74225000D03*
X188250000Y-75775000D03*
%TD*%
D22*
%TO.C,D12*%
X260375000Y-47000000D03*
X258500000Y-47000000D03*
%TD*%
D21*
%TO.C,R48*%
X171500000Y-77575000D03*
X171500000Y-79225000D03*
%TD*%
D22*
%TO.C,D18*%
X231437500Y-53750000D03*
X229562500Y-53750000D03*
%TD*%
D57*
%TO.C,U6*%
X176325000Y-71675000D03*
X176825000Y-71675000D03*
X177325000Y-71675000D03*
X177825000Y-71675000D03*
X178325000Y-71675000D03*
X178825000Y-71675000D03*
X179325000Y-71675000D03*
X179825000Y-71675000D03*
X180325000Y-71675000D03*
X180825000Y-71675000D03*
X181325000Y-71675000D03*
X181825000Y-71675000D03*
X182325000Y-71675000D03*
X182825000Y-71675000D03*
X183325000Y-71675000D03*
X183825000Y-71675000D03*
X184325000Y-71675000D03*
X184825000Y-71675000D03*
X185325000Y-71675000D03*
X185825000Y-71675000D03*
X186325000Y-71675000D03*
X186825000Y-71675000D03*
X187325000Y-71675000D03*
X187825000Y-71675000D03*
X188325000Y-71675000D03*
D58*
X190000000Y-70000000D03*
X190000000Y-69500000D03*
X190000000Y-69000000D03*
X190000000Y-68500000D03*
X190000000Y-68000000D03*
X190000000Y-67500000D03*
X190000000Y-67000000D03*
X190000000Y-66500000D03*
X190000000Y-66000000D03*
X190000000Y-65500000D03*
X190000000Y-65000000D03*
X190000000Y-64500000D03*
X190000000Y-64000000D03*
X190000000Y-63500000D03*
X190000000Y-63000000D03*
X190000000Y-62500000D03*
X190000000Y-62000000D03*
X190000000Y-61500000D03*
X190000000Y-61000000D03*
X190000000Y-60500000D03*
X190000000Y-60000000D03*
X190000000Y-59500000D03*
X190000000Y-59000000D03*
X190000000Y-58500000D03*
X190000000Y-58000000D03*
D57*
X188325000Y-56325000D03*
X187825000Y-56325000D03*
X187325000Y-56325000D03*
X186825000Y-56325000D03*
X186325000Y-56325000D03*
X185825000Y-56325000D03*
X185325000Y-56325000D03*
X184825000Y-56325000D03*
X184325000Y-56325000D03*
X183825000Y-56325000D03*
X183325000Y-56325000D03*
X182825000Y-56325000D03*
X182325000Y-56325000D03*
X181825000Y-56325000D03*
X181325000Y-56325000D03*
X180825000Y-56325000D03*
X180325000Y-56325000D03*
X179825000Y-56325000D03*
X179325000Y-56325000D03*
X178825000Y-56325000D03*
X178325000Y-56325000D03*
X177825000Y-56325000D03*
X177325000Y-56325000D03*
X176825000Y-56325000D03*
X176325000Y-56325000D03*
D58*
X174650000Y-58000000D03*
X174650000Y-58500000D03*
X174650000Y-59000000D03*
X174650000Y-59500000D03*
X174650000Y-60000000D03*
X174650000Y-60500000D03*
X174650000Y-61000000D03*
X174650000Y-61500000D03*
X174650000Y-62000000D03*
X174650000Y-62500000D03*
X174650000Y-63000000D03*
X174650000Y-63500000D03*
X174650000Y-64000000D03*
X174650000Y-64500000D03*
X174650000Y-65000000D03*
X174650000Y-65500000D03*
X174650000Y-66000000D03*
X174650000Y-66500000D03*
X174650000Y-67000000D03*
X174650000Y-67500000D03*
X174650000Y-68000000D03*
X174650000Y-68500000D03*
X174650000Y-69000000D03*
X174650000Y-69500000D03*
X174650000Y-70000000D03*
%TD*%
D21*
%TO.C,R17*%
X149500000Y-83425000D03*
X149500000Y-85075000D03*
%TD*%
D12*
%TO.C,C2*%
X164825000Y-59600000D03*
X166375000Y-59600000D03*
%TD*%
D11*
%TO.C,R46*%
X245232500Y-69075000D03*
X243582500Y-69075000D03*
%TD*%
D43*
%TO.C,Q5*%
X165050000Y-50125000D03*
X166950000Y-50125000D03*
X166000000Y-48250000D03*
%TD*%
D21*
%TO.C,R43*%
X246657500Y-67500000D03*
X246657500Y-69150000D03*
%TD*%
D11*
%TO.C,R30*%
X176725000Y-74750000D03*
X175075000Y-74750000D03*
%TD*%
D41*
%TO.C,SW1*%
X150350000Y-50750000D03*
X156150000Y-50750000D03*
X150350000Y-54750000D03*
X156150000Y-54750000D03*
%TD*%
D27*
%TO.C,R28*%
X181540000Y-74000000D03*
X182560000Y-74000000D03*
%TD*%
D25*
%TO.C,D5*%
X177250000Y-84250000D03*
X173250000Y-84250000D03*
%TD*%
D21*
%TO.C,R11*%
X188000000Y-52775000D03*
X188000000Y-54425000D03*
%TD*%
D11*
%TO.C,R39*%
X163500000Y-46500000D03*
X161850000Y-46500000D03*
%TD*%
D21*
%TO.C,R41*%
X249657500Y-67500000D03*
X249657500Y-69150000D03*
%TD*%
D14*
%TO.C,R65*%
X234925000Y-53500000D03*
X236575000Y-53500000D03*
%TD*%
D45*
%TO.C,R60*%
X231125000Y-65825000D03*
X231125000Y-64175000D03*
%TD*%
D12*
%TO.C,C13*%
X235975000Y-45500000D03*
X237525000Y-45500000D03*
%TD*%
D21*
%TO.C,R49*%
X252000000Y-64250000D03*
X252000000Y-65900000D03*
%TD*%
D25*
%TO.C,D15*%
X193500000Y-84250000D03*
X189500000Y-84250000D03*
%TD*%
D45*
%TO.C,R29*%
X173000000Y-79225000D03*
X173000000Y-77575000D03*
%TD*%
M02*
