%TF.GenerationSoftware,KiCad,Pcbnew,8.0.6*%
%TF.CreationDate,2024-12-11T15:10:48+01:00*%
%TF.ProjectId,fastLOGIC,66617374-4c4f-4474-9943-2e6b69636164,rev?*%
%TF.SameCoordinates,Original*%
%TF.FileFunction,Soldermask,Bot*%
%TF.FilePolarity,Negative*%
%FSLAX46Y46*%
G04 Gerber Fmt 4.6, Leading zero omitted, Abs format (unit mm)*
G04 Created by KiCad (PCBNEW 8.0.6) date 2024-12-11 15:10:48*
%MOMM*%
%LPD*%
G01*
G04 APERTURE LIST*
G04 Aperture macros list*
%AMRoundRect*
0 Rectangle with rounded corners*
0 $1 Rounding radius*
0 $2 $3 $4 $5 $6 $7 $8 $9 X,Y pos of 4 corners*
0 Add a 4 corners polygon primitive as box body*
4,1,4,$2,$3,$4,$5,$6,$7,$8,$9,$2,$3,0*
0 Add four circle primitives for the rounded corners*
1,1,$1+$1,$2,$3*
1,1,$1+$1,$4,$5*
1,1,$1+$1,$6,$7*
1,1,$1+$1,$8,$9*
0 Add four rect primitives between the rounded corners*
20,1,$1+$1,$2,$3,$4,$5,0*
20,1,$1+$1,$4,$5,$6,$7,0*
20,1,$1+$1,$6,$7,$8,$9,0*
20,1,$1+$1,$8,$9,$2,$3,0*%
G04 Aperture macros list end*
%ADD10R,1.700000X1.700000*%
%ADD11O,1.700000X1.700000*%
%ADD12R,2.600000X2.600000*%
%ADD13C,2.600000*%
%ADD14C,3.200000*%
%ADD15C,3.250000*%
%ADD16RoundRect,0.250500X0.499500X0.499500X-0.499500X0.499500X-0.499500X-0.499500X0.499500X-0.499500X0*%
%ADD17C,1.500000*%
%ADD18C,2.500000*%
%ADD19C,3.000000*%
%ADD20RoundRect,0.250000X-0.600000X-0.725000X0.600000X-0.725000X0.600000X0.725000X-0.600000X0.725000X0*%
%ADD21O,1.700000X1.950000*%
%ADD22C,1.700000*%
%ADD23R,1.100000X1.100000*%
%ADD24C,1.100000*%
%ADD25O,1.100000X2.400000*%
%ADD26C,2.000000*%
%ADD27C,1.200000*%
%ADD28O,1.400000X2.000000*%
%ADD29R,1.400000X2.000000*%
G04 APERTURE END LIST*
D10*
%TO.C,J11*%
X177750000Y-115040000D03*
D11*
X177750000Y-112500000D03*
%TD*%
D10*
%TO.C,J6*%
X170750000Y-112460000D03*
D11*
X170750000Y-115000000D03*
%TD*%
D10*
%TO.C,J24*%
X166000000Y-115025000D03*
D11*
X166000000Y-112485000D03*
%TD*%
D12*
%TO.C,J9*%
X209000000Y-120795000D03*
D13*
X212500000Y-120795000D03*
X216000000Y-120795000D03*
%TD*%
D10*
%TO.C,J22*%
X182500000Y-112475000D03*
D11*
X182500000Y-115015000D03*
%TD*%
D14*
%TO.C,H2*%
X149000000Y-41250000D03*
%TD*%
D12*
%TO.C,J2*%
X208300000Y-41800000D03*
D13*
X204800000Y-41800000D03*
%TD*%
D15*
%TO.C,J23*%
X253465000Y-48250000D03*
X242035000Y-48250000D03*
D16*
X252190000Y-54610000D03*
D17*
X250930000Y-57150000D03*
X249650000Y-54610000D03*
X248390000Y-57150000D03*
X247110000Y-54610000D03*
X245850000Y-57150000D03*
X244570000Y-54610000D03*
X243310000Y-57150000D03*
X254375000Y-43350000D03*
X251835000Y-43350000D03*
X243665000Y-43350000D03*
X241125000Y-43350000D03*
D18*
X255495000Y-51300000D03*
X240005000Y-51300000D03*
%TD*%
D10*
%TO.C,JP1*%
X206000000Y-49700000D03*
D11*
X208540000Y-49700000D03*
%TD*%
D19*
%TO.C,K3*%
X187050000Y-87600000D03*
D18*
X181000000Y-89550000D03*
D19*
X181000000Y-101750000D03*
X193050000Y-101800000D03*
D18*
X193000000Y-89550000D03*
%TD*%
D12*
%TO.C,J4*%
X250282500Y-120750000D03*
D13*
X253782500Y-120750000D03*
%TD*%
D10*
%TO.C,J19*%
X189500000Y-115025000D03*
D11*
X189500000Y-112485000D03*
%TD*%
D20*
%TO.C,J1*%
X183250000Y-43282500D03*
D21*
X185750000Y-43282500D03*
X188250000Y-43282500D03*
%TD*%
D14*
%TO.C,H5*%
X264000000Y-41250000D03*
%TD*%
D10*
%TO.C,J10*%
X214240000Y-61141700D03*
D11*
X216780000Y-61141700D03*
X219320000Y-61141700D03*
X221860000Y-61141700D03*
X224400000Y-61141700D03*
X226940000Y-61141700D03*
X229480000Y-61141700D03*
X232040000Y-61143861D03*
X234580000Y-61144926D03*
%TD*%
D20*
%TO.C,J3*%
X193750000Y-43282500D03*
D21*
X196250000Y-43282500D03*
X198750000Y-43282500D03*
%TD*%
D10*
%TO.C,U2*%
X163210000Y-78170000D03*
D11*
X165750000Y-78170000D03*
X168290000Y-78170000D03*
D22*
X168290000Y-68170000D03*
D11*
X165750000Y-68170000D03*
X163210000Y-68170000D03*
%TD*%
D10*
%TO.C,JP2*%
X153000000Y-79100000D03*
D11*
X150460000Y-79100000D03*
%TD*%
D12*
%TO.C,J14*%
X170750000Y-120750000D03*
D13*
X174250000Y-120750000D03*
X177750000Y-120750000D03*
%TD*%
D12*
%TO.C,J15*%
X159000000Y-120750000D03*
D13*
X162500000Y-120750000D03*
X166000000Y-120750000D03*
%TD*%
D19*
%TO.C,K2*%
X171050000Y-87600000D03*
D18*
X165000000Y-89550000D03*
D19*
X165000000Y-101750000D03*
X177050000Y-101800000D03*
D18*
X177000000Y-89550000D03*
%TD*%
D20*
%TO.C,J13*%
X172750000Y-43282500D03*
D21*
X175250000Y-43282500D03*
X177750000Y-43282500D03*
%TD*%
D19*
%TO.C,K1*%
X155050000Y-87600000D03*
D18*
X149000000Y-89550000D03*
D19*
X149000000Y-101750000D03*
X161050000Y-101800000D03*
D18*
X161000000Y-89550000D03*
%TD*%
D12*
%TO.C,J8*%
X197000000Y-120795000D03*
D13*
X200500000Y-120795000D03*
X204000000Y-120795000D03*
%TD*%
D14*
%TO.C,H1*%
X149000000Y-121250000D03*
%TD*%
D12*
%TO.C,J16*%
X182500000Y-120750000D03*
D13*
X186000000Y-120750000D03*
X189500000Y-120750000D03*
%TD*%
D14*
%TO.C,H3*%
X264000000Y-121250000D03*
%TD*%
D10*
%TO.C,J25*%
X159000000Y-112475000D03*
D11*
X159000000Y-115015000D03*
%TD*%
D20*
%TO.C,J5*%
X159750000Y-43282500D03*
D21*
X162250000Y-43282500D03*
X164750000Y-43282500D03*
X167250000Y-43282500D03*
%TD*%
D20*
%TO.C,J26*%
X162400000Y-64100000D03*
D21*
X164900000Y-64100000D03*
X167400000Y-64100000D03*
X169900000Y-64100000D03*
%TD*%
D23*
%TO.C,J17*%
X232050000Y-42500000D03*
D24*
X232850000Y-40750000D03*
X233650000Y-42500000D03*
X234450000Y-40750000D03*
X235250000Y-42500000D03*
D25*
X230000000Y-41625000D03*
X237300000Y-41625000D03*
%TD*%
D26*
%TO.C,TP1*%
X192300000Y-76100000D03*
%TD*%
%TO.C,TP5*%
X174500000Y-52100000D03*
%TD*%
%TO.C,TP4*%
X181500000Y-52100000D03*
%TD*%
%TO.C,TP3*%
X178000000Y-52100000D03*
%TD*%
D27*
%TO.C,J20*%
X224267500Y-112700000D03*
X224267500Y-119700000D03*
D28*
X227467500Y-121000000D03*
X221967500Y-118000000D03*
X221967500Y-121000000D03*
X226467500Y-112500000D03*
D29*
X221967500Y-114000000D03*
%TD*%
D26*
%TO.C,TP9*%
X205300000Y-67000000D03*
%TD*%
%TO.C,TP8*%
X208600000Y-67000000D03*
%TD*%
%TO.C,TP7*%
X208600000Y-62800000D03*
%TD*%
D27*
%TO.C,J12*%
X233267500Y-112700000D03*
X233267500Y-119700000D03*
D28*
X236467500Y-121000000D03*
X230967500Y-118000000D03*
X230967500Y-121000000D03*
X235467500Y-112500000D03*
D29*
X230967500Y-114000000D03*
%TD*%
D27*
%TO.C,J18*%
X242267500Y-112700000D03*
X242267500Y-119700000D03*
D28*
X245467500Y-121000000D03*
X239967500Y-118000000D03*
X239967500Y-121000000D03*
X244467500Y-112500000D03*
D29*
X239967500Y-114000000D03*
%TD*%
D26*
%TO.C,TP6*%
X171000000Y-52100000D03*
%TD*%
%TO.C,TP2*%
X205300000Y-62800000D03*
%TD*%
M02*
