%TF.GenerationSoftware,KiCad,Pcbnew,8.0.6*%
%TF.CreationDate,2024-12-11T15:10:48+01:00*%
%TF.ProjectId,fastLOGIC,66617374-4c4f-4474-9943-2e6b69636164,rev?*%
%TF.SameCoordinates,Original*%
%TF.FileFunction,Copper,L1,Top*%
%TF.FilePolarity,Positive*%
%FSLAX46Y46*%
G04 Gerber Fmt 4.6, Leading zero omitted, Abs format (unit mm)*
G04 Created by KiCad (PCBNEW 8.0.6) date 2024-12-11 15:10:48*
%MOMM*%
%LPD*%
G01*
G04 APERTURE LIST*
G04 Aperture macros list*
%AMRoundRect*
0 Rectangle with rounded corners*
0 $1 Rounding radius*
0 $2 $3 $4 $5 $6 $7 $8 $9 X,Y pos of 4 corners*
0 Add a 4 corners polygon primitive as box body*
4,1,4,$2,$3,$4,$5,$6,$7,$8,$9,$2,$3,0*
0 Add four circle primitives for the rounded corners*
1,1,$1+$1,$2,$3*
1,1,$1+$1,$4,$5*
1,1,$1+$1,$6,$7*
1,1,$1+$1,$8,$9*
0 Add four rect primitives between the rounded corners*
20,1,$1+$1,$2,$3,$4,$5,0*
20,1,$1+$1,$4,$5,$6,$7,0*
20,1,$1+$1,$6,$7,$8,$9,0*
20,1,$1+$1,$8,$9,$2,$3,0*%
G04 Aperture macros list end*
%TA.AperFunction,ComponentPad*%
%ADD10R,1.700000X1.700000*%
%TD*%
%TA.AperFunction,ComponentPad*%
%ADD11O,1.700000X1.700000*%
%TD*%
%TA.AperFunction,SMDPad,CuDef*%
%ADD12RoundRect,0.140000X0.140000X0.170000X-0.140000X0.170000X-0.140000X-0.170000X0.140000X-0.170000X0*%
%TD*%
%TA.AperFunction,SMDPad,CuDef*%
%ADD13RoundRect,0.200000X0.200000X0.275000X-0.200000X0.275000X-0.200000X-0.275000X0.200000X-0.275000X0*%
%TD*%
%TA.AperFunction,SMDPad,CuDef*%
%ADD14RoundRect,0.225000X-0.225000X-0.250000X0.225000X-0.250000X0.225000X0.250000X-0.225000X0.250000X0*%
%TD*%
%TA.AperFunction,SMDPad,CuDef*%
%ADD15RoundRect,0.140000X0.170000X-0.140000X0.170000X0.140000X-0.170000X0.140000X-0.170000X-0.140000X0*%
%TD*%
%TA.AperFunction,SMDPad,CuDef*%
%ADD16RoundRect,0.200000X-0.200000X-0.275000X0.200000X-0.275000X0.200000X0.275000X-0.200000X0.275000X0*%
%TD*%
%TA.AperFunction,SMDPad,CuDef*%
%ADD17RoundRect,0.250000X-0.325000X-0.650000X0.325000X-0.650000X0.325000X0.650000X-0.325000X0.650000X0*%
%TD*%
%TA.AperFunction,SMDPad,CuDef*%
%ADD18R,0.700000X1.200000*%
%TD*%
%TA.AperFunction,SMDPad,CuDef*%
%ADD19R,1.000000X0.800000*%
%TD*%
%TA.AperFunction,SMDPad,CuDef*%
%ADD20R,1.000000X1.200000*%
%TD*%
%TA.AperFunction,SMDPad,CuDef*%
%ADD21R,1.000000X2.800000*%
%TD*%
%TA.AperFunction,SMDPad,CuDef*%
%ADD22R,1.300000X1.900000*%
%TD*%
%TA.AperFunction,SMDPad,CuDef*%
%ADD23RoundRect,0.200000X-0.275000X0.200000X-0.275000X-0.200000X0.275000X-0.200000X0.275000X0.200000X0*%
%TD*%
%TA.AperFunction,SMDPad,CuDef*%
%ADD24RoundRect,0.243750X0.243750X0.456250X-0.243750X0.456250X-0.243750X-0.456250X0.243750X-0.456250X0*%
%TD*%
%TA.AperFunction,SMDPad,CuDef*%
%ADD25RoundRect,0.150000X-0.587500X-0.150000X0.587500X-0.150000X0.587500X0.150000X-0.587500X0.150000X0*%
%TD*%
%TA.AperFunction,SMDPad,CuDef*%
%ADD26RoundRect,0.250000X0.325000X0.650000X-0.325000X0.650000X-0.325000X-0.650000X0.325000X-0.650000X0*%
%TD*%
%TA.AperFunction,SMDPad,CuDef*%
%ADD27RoundRect,0.250000X1.000000X0.650000X-1.000000X0.650000X-1.000000X-0.650000X1.000000X-0.650000X0*%
%TD*%
%TA.AperFunction,SMDPad,CuDef*%
%ADD28RoundRect,0.250000X-1.050000X-0.550000X1.050000X-0.550000X1.050000X0.550000X-1.050000X0.550000X0*%
%TD*%
%TA.AperFunction,SMDPad,CuDef*%
%ADD29RoundRect,0.135000X-0.135000X-0.185000X0.135000X-0.185000X0.135000X0.185000X-0.135000X0.185000X0*%
%TD*%
%TA.AperFunction,ComponentPad*%
%ADD30R,2.600000X2.600000*%
%TD*%
%TA.AperFunction,ComponentPad*%
%ADD31C,2.600000*%
%TD*%
%TA.AperFunction,SMDPad,CuDef*%
%ADD32RoundRect,0.243750X-0.456250X0.243750X-0.456250X-0.243750X0.456250X-0.243750X0.456250X0.243750X0*%
%TD*%
%TA.AperFunction,SMDPad,CuDef*%
%ADD33RoundRect,0.062500X-0.062500X0.337500X-0.062500X-0.337500X0.062500X-0.337500X0.062500X0.337500X0*%
%TD*%
%TA.AperFunction,SMDPad,CuDef*%
%ADD34RoundRect,0.062500X-0.337500X0.062500X-0.337500X-0.062500X0.337500X-0.062500X0.337500X0.062500X0*%
%TD*%
%TA.AperFunction,HeatsinkPad*%
%ADD35R,3.350000X3.350000*%
%TD*%
%TA.AperFunction,SMDPad,CuDef*%
%ADD36RoundRect,0.243750X-0.243750X-0.456250X0.243750X-0.456250X0.243750X0.456250X-0.243750X0.456250X0*%
%TD*%
%TA.AperFunction,SMDPad,CuDef*%
%ADD37RoundRect,0.250000X-0.650000X0.325000X-0.650000X-0.325000X0.650000X-0.325000X0.650000X0.325000X0*%
%TD*%
%TA.AperFunction,SMDPad,CuDef*%
%ADD38RoundRect,0.225000X0.250000X-0.225000X0.250000X0.225000X-0.250000X0.225000X-0.250000X-0.225000X0*%
%TD*%
%TA.AperFunction,SMDPad,CuDef*%
%ADD39RoundRect,0.140000X-0.170000X0.140000X-0.170000X-0.140000X0.170000X-0.140000X0.170000X0.140000X0*%
%TD*%
%TA.AperFunction,SMDPad,CuDef*%
%ADD40RoundRect,0.250000X0.850000X0.350000X-0.850000X0.350000X-0.850000X-0.350000X0.850000X-0.350000X0*%
%TD*%
%TA.AperFunction,SMDPad,CuDef*%
%ADD41RoundRect,0.250000X1.275000X1.125000X-1.275000X1.125000X-1.275000X-1.125000X1.275000X-1.125000X0*%
%TD*%
%TA.AperFunction,SMDPad,CuDef*%
%ADD42RoundRect,0.249997X2.950003X2.650003X-2.950003X2.650003X-2.950003X-2.650003X2.950003X-2.650003X0*%
%TD*%
%TA.AperFunction,SMDPad,CuDef*%
%ADD43RoundRect,0.225000X-0.250000X0.225000X-0.250000X-0.225000X0.250000X-0.225000X0.250000X0.225000X0*%
%TD*%
%TA.AperFunction,SMDPad,CuDef*%
%ADD44RoundRect,0.375000X-0.375000X0.625000X-0.375000X-0.625000X0.375000X-0.625000X0.375000X0.625000X0*%
%TD*%
%TA.AperFunction,SMDPad,CuDef*%
%ADD45RoundRect,0.500000X-1.400000X0.500000X-1.400000X-0.500000X1.400000X-0.500000X1.400000X0.500000X0*%
%TD*%
%TA.AperFunction,SMDPad,CuDef*%
%ADD46R,2.800000X1.000000*%
%TD*%
%TA.AperFunction,SMDPad,CuDef*%
%ADD47RoundRect,0.218750X0.218750X0.381250X-0.218750X0.381250X-0.218750X-0.381250X0.218750X-0.381250X0*%
%TD*%
%TA.AperFunction,ComponentPad*%
%ADD48RoundRect,0.250500X0.499500X0.499500X-0.499500X0.499500X-0.499500X-0.499500X0.499500X-0.499500X0*%
%TD*%
%TA.AperFunction,ComponentPad*%
%ADD49C,1.500000*%
%TD*%
%TA.AperFunction,ComponentPad*%
%ADD50C,2.500000*%
%TD*%
%TA.AperFunction,SMDPad,CuDef*%
%ADD51RoundRect,0.150000X0.150000X-0.587500X0.150000X0.587500X-0.150000X0.587500X-0.150000X-0.587500X0*%
%TD*%
%TA.AperFunction,SMDPad,CuDef*%
%ADD52R,2.000000X2.400000*%
%TD*%
%TA.AperFunction,ComponentPad*%
%ADD53C,3.000000*%
%TD*%
%TA.AperFunction,SMDPad,CuDef*%
%ADD54RoundRect,0.200000X0.275000X-0.200000X0.275000X0.200000X-0.275000X0.200000X-0.275000X-0.200000X0*%
%TD*%
%TA.AperFunction,SMDPad,CuDef*%
%ADD55RoundRect,0.250000X0.650000X-0.325000X0.650000X0.325000X-0.650000X0.325000X-0.650000X-0.325000X0*%
%TD*%
%TA.AperFunction,SMDPad,CuDef*%
%ADD56R,1.600000X3.100000*%
%TD*%
%TA.AperFunction,SMDPad,CuDef*%
%ADD57RoundRect,0.250000X0.262500X0.450000X-0.262500X0.450000X-0.262500X-0.450000X0.262500X-0.450000X0*%
%TD*%
%TA.AperFunction,ComponentPad*%
%ADD58RoundRect,0.250000X-0.600000X-0.725000X0.600000X-0.725000X0.600000X0.725000X-0.600000X0.725000X0*%
%TD*%
%TA.AperFunction,ComponentPad*%
%ADD59O,1.700000X1.950000*%
%TD*%
%TA.AperFunction,SMDPad,CuDef*%
%ADD60RoundRect,0.225000X0.225000X0.250000X-0.225000X0.250000X-0.225000X-0.250000X0.225000X-0.250000X0*%
%TD*%
%TA.AperFunction,SMDPad,CuDef*%
%ADD61RoundRect,0.150000X-0.675000X-0.150000X0.675000X-0.150000X0.675000X0.150000X-0.675000X0.150000X0*%
%TD*%
%TA.AperFunction,ComponentPad*%
%ADD62C,1.700000*%
%TD*%
%TA.AperFunction,SMDPad,CuDef*%
%ADD63R,1.400000X1.200000*%
%TD*%
%TA.AperFunction,SMDPad,CuDef*%
%ADD64RoundRect,0.250000X0.250000X0.475000X-0.250000X0.475000X-0.250000X-0.475000X0.250000X-0.475000X0*%
%TD*%
%TA.AperFunction,SMDPad,CuDef*%
%ADD65R,2.600000X3.600000*%
%TD*%
%TA.AperFunction,SMDPad,CuDef*%
%ADD66RoundRect,0.250000X-0.250000X-0.475000X0.250000X-0.475000X0.250000X0.475000X-0.250000X0.475000X0*%
%TD*%
%TA.AperFunction,SMDPad,CuDef*%
%ADD67RoundRect,0.075000X-0.075000X0.662500X-0.075000X-0.662500X0.075000X-0.662500X0.075000X0.662500X0*%
%TD*%
%TA.AperFunction,SMDPad,CuDef*%
%ADD68RoundRect,0.075000X-0.662500X0.075000X-0.662500X-0.075000X0.662500X-0.075000X0.662500X0.075000X0*%
%TD*%
%TA.AperFunction,SMDPad,CuDef*%
%ADD69RoundRect,0.075000X0.075000X-0.725000X0.075000X0.725000X-0.075000X0.725000X-0.075000X-0.725000X0*%
%TD*%
%TA.AperFunction,SMDPad,CuDef*%
%ADD70RoundRect,0.075000X0.725000X-0.075000X0.725000X0.075000X-0.725000X0.075000X-0.725000X-0.075000X0*%
%TD*%
%TA.AperFunction,ComponentPad*%
%ADD71R,1.100000X1.100000*%
%TD*%
%TA.AperFunction,ComponentPad*%
%ADD72C,1.100000*%
%TD*%
%TA.AperFunction,ComponentPad*%
%ADD73O,1.100000X2.400000*%
%TD*%
%TA.AperFunction,ComponentPad*%
%ADD74O,1.400000X2.000000*%
%TD*%
%TA.AperFunction,ComponentPad*%
%ADD75R,1.400000X2.000000*%
%TD*%
%TA.AperFunction,ViaPad*%
%ADD76C,0.800000*%
%TD*%
%TA.AperFunction,Conductor*%
%ADD77C,0.200000*%
%TD*%
%TA.AperFunction,Conductor*%
%ADD78C,0.250000*%
%TD*%
%TA.AperFunction,Conductor*%
%ADD79C,0.500000*%
%TD*%
%TA.AperFunction,Conductor*%
%ADD80C,1.000000*%
%TD*%
G04 APERTURE END LIST*
D10*
%TO.P,J11,1,Pin_1*%
%TO.N,Net-(J11-Pin_1)*%
X177750000Y-115040000D03*
D11*
%TO.P,J11,2,Pin_2*%
%TO.N,GND*%
X177750000Y-112500000D03*
%TD*%
D12*
%TO.P,C44,1*%
%TO.N,+3.3VA*%
X240980000Y-76750000D03*
%TO.P,C44,2*%
%TO.N,GND*%
X240020000Y-76750000D03*
%TD*%
D10*
%TO.P,J6,1,Pin_1*%
%TO.N,+12V*%
X170750000Y-112460000D03*
D11*
%TO.P,J6,2,Pin_2*%
%TO.N,Net-(J14-Pin_1)*%
X170750000Y-115000000D03*
%TD*%
D13*
%TO.P,R32,1*%
%TO.N,IN_voltage_detect*%
X197575000Y-106250000D03*
%TO.P,R32,2*%
%TO.N,GND*%
X195925000Y-106250000D03*
%TD*%
D14*
%TO.P,C9,1*%
%TO.N,BUTTON_PLUS_IN*%
X164825000Y-57500000D03*
%TO.P,C9,2*%
%TO.N,GND*%
X166375000Y-57500000D03*
%TD*%
D15*
%TO.P,C21,1*%
%TO.N,Net-(U6-PH1)*%
X185800000Y-75980000D03*
%TO.P,C21,2*%
%TO.N,GND*%
X185800000Y-75020000D03*
%TD*%
D16*
%TO.P,R56,1*%
%TO.N,0-5V_IN_A*%
X181925000Y-46500000D03*
%TO.P,R56,2*%
%TO.N,Net-(J1-Pin_3)*%
X183575000Y-46500000D03*
%TD*%
D17*
%TO.P,C6,1*%
%TO.N,+5V*%
X250100000Y-98500000D03*
%TO.P,C6,2*%
%TO.N,GND*%
X253050000Y-98500000D03*
%TD*%
D16*
%TO.P,R21,1*%
%TO.N,DIG_IN_A*%
X207425000Y-92250000D03*
%TO.P,R21,2*%
%TO.N,GND*%
X209075000Y-92250000D03*
%TD*%
D18*
%TO.P,J21,1,DAT2*%
%TO.N,SD_D2*%
X217525000Y-53790000D03*
%TO.P,J21,2,DAT3/CD*%
%TO.N,SD_D3*%
X218625000Y-53790000D03*
%TO.P,J21,3,CMD*%
%TO.N,SD_CMD*%
X219725000Y-53790000D03*
%TO.P,J21,4,VDD*%
%TO.N,+3.3V*%
X220825000Y-53790000D03*
%TO.P,J21,5,CLK*%
%TO.N,SD_SCK*%
X221925000Y-53790000D03*
%TO.P,J21,6,VSS*%
%TO.N,GND*%
X223025000Y-53790000D03*
%TO.P,J21,7,DAT0*%
%TO.N,SD_D0*%
X224125000Y-53790000D03*
%TO.P,J21,8,DAT1*%
%TO.N,SD_D1*%
X225225000Y-53790000D03*
%TO.P,J21,9,DET_B*%
%TO.N,GND*%
X226175000Y-53790000D03*
D19*
%TO.P,J21,10,DET_A*%
%TO.N,SD_DET*%
X227125000Y-43290000D03*
D20*
%TO.P,J21,11,SHIELD*%
%TO.N,GND*%
X227125000Y-49490000D03*
D21*
X227125000Y-39140000D03*
D20*
X215975000Y-53790000D03*
D22*
X213625000Y-38690000D03*
%TD*%
D23*
%TO.P,R18,1*%
%TO.N,D_OUT_B*%
X165750000Y-83425000D03*
%TO.P,R18,2*%
%TO.N,Net-(Q2-B)*%
X165750000Y-85075000D03*
%TD*%
D24*
%TO.P,D6,1,K*%
%TO.N,GND*%
X175187500Y-115500000D03*
%TO.P,D6,2,A*%
%TO.N,Net-(D6-A)*%
X173312500Y-115500000D03*
%TD*%
D13*
%TO.P,R54,1*%
%TO.N,Net-(U13-DUPLED)*%
X240575000Y-83750000D03*
%TO.P,R54,2*%
%TO.N,Net-(D12-A)*%
X238925000Y-83750000D03*
%TD*%
D25*
%TO.P,Q1,1,B*%
%TO.N,Net-(Q1-B)*%
X151562500Y-83300000D03*
%TO.P,Q1,2,E*%
%TO.N,GND*%
X151562500Y-85200000D03*
%TO.P,Q1,3,C*%
%TO.N,Net-(D4-A)*%
X153437500Y-84250000D03*
%TD*%
D17*
%TO.P,C18,1*%
%TO.N,+3.3V*%
X259800000Y-89000000D03*
%TO.P,C18,2*%
%TO.N,GND*%
X262750000Y-89000000D03*
%TD*%
D26*
%TO.P,C4,1*%
%TO.N,+5V*%
X247175000Y-96250000D03*
%TO.P,C4,2*%
%TO.N,GND*%
X244225000Y-96250000D03*
%TD*%
D14*
%TO.P,C31,1*%
%TO.N,+3.3V*%
X253725000Y-72750000D03*
%TO.P,C31,2*%
%TO.N,GND*%
X255275000Y-72750000D03*
%TD*%
D23*
%TO.P,R36,1*%
%TO.N,+3.3V*%
X158600000Y-72075000D03*
%TO.P,R36,2*%
%TO.N,rst*%
X158600000Y-73725000D03*
%TD*%
D12*
%TO.P,C39,1*%
%TO.N,+3.3VA*%
X241000000Y-73250000D03*
%TO.P,C39,2*%
%TO.N,GND*%
X240040000Y-73250000D03*
%TD*%
D23*
%TO.P,R50,1*%
%TO.N,+3.3VA*%
X250500000Y-64250000D03*
%TO.P,R50,2*%
%TO.N,TD+*%
X250500000Y-65900000D03*
%TD*%
D27*
%TO.P,D4,1,K*%
%TO.N,+5V*%
X161250000Y-84250000D03*
%TO.P,D4,2,A*%
%TO.N,Net-(D4-A)*%
X157250000Y-84250000D03*
%TD*%
D28*
%TO.P,C3,1*%
%TO.N,+12V*%
X249900000Y-103500000D03*
%TO.P,C3,2*%
%TO.N,GND*%
X253500000Y-103500000D03*
%TD*%
D23*
%TO.P,R42,1*%
%TO.N,Net-(C37-Pad2)*%
X248157500Y-67500000D03*
%TO.P,R42,2*%
%TO.N,Net-(U13-RXN)*%
X248157500Y-69150000D03*
%TD*%
D25*
%TO.P,Q2,1,B*%
%TO.N,Net-(Q2-B)*%
X167750000Y-83260000D03*
%TO.P,Q2,2,E*%
%TO.N,GND*%
X167750000Y-85160000D03*
%TO.P,Q2,3,C*%
%TO.N,Net-(D5-A)*%
X169625000Y-84210000D03*
%TD*%
D29*
%TO.P,R38,1*%
%TO.N,Net-(U13-XI{slash}CLKIN)*%
X246582500Y-81675000D03*
%TO.P,R38,2*%
%TO.N,Net-(U13-XO)*%
X247602500Y-81675000D03*
%TD*%
D10*
%TO.P,J24,1,Pin_1*%
%TO.N,Net-(J15-Pin_3)*%
X166000000Y-115025000D03*
D11*
%TO.P,J24,2,Pin_2*%
%TO.N,GND*%
X166000000Y-112485000D03*
%TD*%
D30*
%TO.P,J9,1,Pin_1*%
%TO.N,+12V*%
X209000000Y-120795000D03*
D31*
%TO.P,J9,2,Pin_2*%
%TO.N,Net-(J9-Pin_2)*%
X212500000Y-120795000D03*
%TO.P,J9,3,Pin_3*%
%TO.N,GND*%
X216000000Y-120795000D03*
%TD*%
D32*
%TO.P,D3,1,K*%
%TO.N,GND*%
X188000000Y-49462500D03*
%TO.P,D3,2,A*%
%TO.N,Net-(D3-A)*%
X188000000Y-51337500D03*
%TD*%
D16*
%TO.P,R6,1*%
%TO.N,Net-(R6-Pad1)*%
X214425000Y-106750000D03*
%TO.P,R6,2*%
%TO.N,GND*%
X216075000Y-106750000D03*
%TD*%
D33*
%TO.P,U9,1,~{DCD}*%
%TO.N,unconnected-(U9-~{DCD}-Pad1)*%
X235050000Y-47170000D03*
%TO.P,U9,2,~{RI}/CLK*%
%TO.N,unconnected-(U9-~{RI}{slash}CLK-Pad2)*%
X234550000Y-47170000D03*
%TO.P,U9,3,GND*%
%TO.N,GND*%
X234050000Y-47170000D03*
%TO.P,U9,4,D+*%
%TO.N,Net-(J17-D+)*%
X233550000Y-47170000D03*
%TO.P,U9,5,D-*%
%TO.N,Net-(J17-D-)*%
X233050000Y-47170000D03*
%TO.P,U9,6,VDD*%
%TO.N,Net-(U9-VDD)*%
X232550000Y-47170000D03*
%TO.P,U9,7,REGIN*%
%TO.N,Net-(J17-VBUS)*%
X232050000Y-47170000D03*
D34*
%TO.P,U9,8,VBUS*%
X231100000Y-48120000D03*
%TO.P,U9,9,~{RSTb}*%
%TO.N,unconnected-(U9-~{RSTb}-Pad9)*%
X231100000Y-48620000D03*
%TO.P,U9,10,NC*%
%TO.N,unconnected-(U9-NC-Pad10)*%
X231100000Y-49120000D03*
%TO.P,U9,11,~{SUSPENDb}*%
%TO.N,unconnected-(U9-~{SUSPENDb}-Pad11)*%
X231100000Y-49620000D03*
%TO.P,U9,12,SUSPEND*%
%TO.N,unconnected-(U9-SUSPEND-Pad12)*%
X231100000Y-50120000D03*
%TO.P,U9,13,CHREN*%
%TO.N,unconnected-(U9-CHREN-Pad13)*%
X231100000Y-50620000D03*
%TO.P,U9,14,CHR1*%
%TO.N,unconnected-(U9-CHR1-Pad14)*%
X231100000Y-51120000D03*
D33*
%TO.P,U9,15,CHR0*%
%TO.N,unconnected-(U9-CHR0-Pad15)*%
X232050000Y-52070000D03*
%TO.P,U9,16,~{WAKEUP}/GPIO.3*%
%TO.N,unconnected-(U9-~{WAKEUP}{slash}GPIO.3-Pad16)*%
X232550000Y-52070000D03*
%TO.P,U9,17,RS485/GPIO.2*%
%TO.N,unconnected-(U9-RS485{slash}GPIO.2-Pad17)*%
X233050000Y-52070000D03*
%TO.P,U9,18,~{RXT}/GPIO.1*%
%TO.N,unconnected-(U9-~{RXT}{slash}GPIO.1-Pad18)*%
X233550000Y-52070000D03*
%TO.P,U9,19,~{TXT}/GPIO.0*%
%TO.N,unconnected-(U9-~{TXT}{slash}GPIO.0-Pad19)*%
X234050000Y-52070000D03*
%TO.P,U9,20,GPIO.6*%
%TO.N,unconnected-(U9-GPIO.6-Pad20)*%
X234550000Y-52070000D03*
%TO.P,U9,21,GPIO.5*%
%TO.N,unconnected-(U9-GPIO.5-Pad21)*%
X235050000Y-52070000D03*
D34*
%TO.P,U9,22,GPIO.4*%
%TO.N,unconnected-(U9-GPIO.4-Pad22)*%
X236000000Y-51120000D03*
%TO.P,U9,23,~{CTS}*%
%TO.N,unconnected-(U9-~{CTS}-Pad23)*%
X236000000Y-50620000D03*
%TO.P,U9,24,~{RTS}*%
%TO.N,unconnected-(U9-~{RTS}-Pad24)*%
X236000000Y-50120000D03*
%TO.P,U9,25,RXD*%
%TO.N,uC_TX*%
X236000000Y-49620000D03*
%TO.P,U9,26,TXD*%
%TO.N,uC_RX*%
X236000000Y-49120000D03*
%TO.P,U9,27,~{DSR}*%
%TO.N,unconnected-(U9-~{DSR}-Pad27)*%
X236000000Y-48620000D03*
%TO.P,U9,28,~{DTR}*%
%TO.N,Net-(U9-~{DTR})*%
X236000000Y-48120000D03*
D35*
%TO.P,U9,29,GND*%
%TO.N,GND*%
X233550000Y-49620000D03*
%TD*%
D36*
%TO.P,D13,1,K*%
%TO.N,GND*%
X174762500Y-76500000D03*
%TO.P,D13,2,A*%
%TO.N,Net-(D13-A)*%
X176637500Y-76500000D03*
%TD*%
D37*
%TO.P,C28,1*%
%TO.N,GND1*%
X240250000Y-62775000D03*
%TO.P,C28,2*%
%TO.N,GND*%
X240250000Y-65725000D03*
%TD*%
D13*
%TO.P,R7,1*%
%TO.N,Net-(J9-Pin_2)*%
X212825000Y-106750000D03*
%TO.P,R7,2*%
%TO.N,GND*%
X211175000Y-106750000D03*
%TD*%
D10*
%TO.P,J22,1,Pin_1*%
%TO.N,+12V*%
X182500000Y-112475000D03*
D11*
%TO.P,J22,2,Pin_2*%
%TO.N,Net-(J16-Pin_1)*%
X182500000Y-115015000D03*
%TD*%
D23*
%TO.P,R9,1*%
%TO.N,Net-(D1-A)*%
X186000000Y-52775000D03*
%TO.P,R9,2*%
%TO.N,LED_A*%
X186000000Y-54425000D03*
%TD*%
D12*
%TO.P,C40,1*%
%TO.N,+3.3VA*%
X241000000Y-74750000D03*
%TO.P,C40,2*%
%TO.N,GND*%
X240040000Y-74750000D03*
%TD*%
D38*
%TO.P,C11,1*%
%TO.N,+5V*%
X252000000Y-94525000D03*
%TO.P,C11,2*%
%TO.N,GND*%
X252000000Y-92975000D03*
%TD*%
D13*
%TO.P,R53,1*%
%TO.N,Net-(U13-SPDLED)*%
X240575000Y-79250000D03*
%TO.P,R53,2*%
%TO.N,Net-(D10-A)*%
X238925000Y-79250000D03*
%TD*%
D39*
%TO.P,C29,1*%
%TO.N,GND*%
X244250000Y-82750000D03*
%TO.P,C29,2*%
%TO.N,Net-(U13-XI{slash}CLKIN)*%
X244250000Y-83710000D03*
%TD*%
D40*
%TO.P,U1,1,VI*%
%TO.N,+12V*%
X246825000Y-103305000D03*
D41*
%TO.P,U1,2,GND*%
%TO.N,GND*%
X242200000Y-102550000D03*
X242200000Y-99500000D03*
D42*
X240525000Y-101025000D03*
D41*
X238850000Y-102550000D03*
X238850000Y-99500000D03*
D40*
%TO.P,U1,3,VO*%
%TO.N,+5V*%
X246825000Y-98745000D03*
%TD*%
D43*
%TO.P,C15,1*%
%TO.N,rst*%
X158600000Y-75125000D03*
%TO.P,C15,2*%
%TO.N,GND*%
X158600000Y-76675000D03*
%TD*%
D44*
%TO.P,U10,1,GND*%
%TO.N,GND*%
X263300000Y-92100000D03*
%TO.P,U10,2,VO*%
%TO.N,+3.3V*%
X261000000Y-92100000D03*
D45*
X261000000Y-98400000D03*
D44*
%TO.P,U10,3,VI*%
%TO.N,+5V*%
X258700000Y-92100000D03*
%TD*%
D38*
%TO.P,C19,1*%
%TO.N,+3.3V*%
X175000000Y-56000000D03*
%TO.P,C19,2*%
%TO.N,GND*%
X175000000Y-54450000D03*
%TD*%
D16*
%TO.P,R10,1*%
%TO.N,Net-(D2-A)*%
X256987500Y-111750000D03*
%TO.P,R10,2*%
%TO.N,+5V*%
X258637500Y-111750000D03*
%TD*%
D17*
%TO.P,C5,1*%
%TO.N,+12V*%
X248025000Y-107250000D03*
%TO.P,C5,2*%
%TO.N,GND*%
X250975000Y-107250000D03*
%TD*%
D15*
%TO.P,C41,1*%
%TO.N,+3.3VA*%
X252500000Y-62730000D03*
%TO.P,C41,2*%
%TO.N,GND*%
X252500000Y-61770000D03*
%TD*%
D46*
%TO.P,SW5,1,1*%
%TO.N,rst*%
X156150000Y-75750000D03*
X150350000Y-75750000D03*
%TO.P,SW5,2,2*%
%TO.N,GND*%
X156150000Y-71750000D03*
X150350000Y-71750000D03*
%TD*%
D14*
%TO.P,C27,1*%
%TO.N,+3.3V*%
X192225000Y-69000000D03*
%TO.P,C27,2*%
%TO.N,GND*%
X193775000Y-69000000D03*
%TD*%
D16*
%TO.P,R44,1*%
%TO.N,ETHERNET_LED_A*%
X238925000Y-82250000D03*
%TO.P,R44,2*%
%TO.N,Net-(U13-LINKLED)*%
X240575000Y-82250000D03*
%TD*%
D32*
%TO.P,D1,1,K*%
%TO.N,GND*%
X186000000Y-49462500D03*
%TO.P,D1,2,A*%
%TO.N,Net-(D1-A)*%
X186000000Y-51337500D03*
%TD*%
D24*
%TO.P,D7,1,K*%
%TO.N,GND*%
X163437500Y-115500000D03*
%TO.P,D7,2,A*%
%TO.N,Net-(D7-A)*%
X161562500Y-115500000D03*
%TD*%
D39*
%TO.P,C38,1*%
%TO.N,RD+*%
X245907500Y-65115000D03*
%TO.P,C38,2*%
%TO.N,Net-(C38-Pad2)*%
X245907500Y-66075000D03*
%TD*%
D47*
%TO.P,L1,1,1*%
%TO.N,+3.3V*%
X253812500Y-71000000D03*
%TO.P,L1,2,2*%
%TO.N,+3.3VA*%
X251687500Y-71000000D03*
%TD*%
D15*
%TO.P,C43,1*%
%TO.N,+3.3VA*%
X251500000Y-62730000D03*
%TO.P,C43,2*%
%TO.N,GND*%
X251500000Y-61770000D03*
%TD*%
D32*
%TO.P,D16,1,K*%
%TO.N,GND*%
X190000000Y-49462500D03*
%TO.P,D16,2,A*%
%TO.N,Net-(D16-A)*%
X190000000Y-51337500D03*
%TD*%
D13*
%TO.P,R13,1*%
%TO.N,Net-(J8-Pin_2)*%
X206075000Y-106750000D03*
%TO.P,R13,2*%
%TO.N,GND*%
X204425000Y-106750000D03*
%TD*%
D30*
%TO.P,J2,1,Pin_1*%
%TO.N,Net-(J2-Pin_1)*%
X208300000Y-41800000D03*
D31*
%TO.P,J2,2,Pin_2*%
%TO.N,Net-(J2-Pin_2)*%
X204800000Y-41800000D03*
%TD*%
D38*
%TO.P,C7,1*%
%TO.N,GND*%
X229500000Y-48775000D03*
%TO.P,C7,2*%
%TO.N,Net-(J17-VBUS)*%
X229500000Y-47225000D03*
%TD*%
D48*
%TO.P,J23,1*%
%TO.N,TD+*%
X252190000Y-54610000D03*
D49*
%TO.P,J23,2*%
%TO.N,TD-*%
X250930000Y-57150000D03*
%TO.P,J23,3*%
%TO.N,RD+*%
X249650000Y-54610000D03*
%TO.P,J23,4*%
%TO.N,TC*%
X248390000Y-57150000D03*
%TO.P,J23,5*%
%TO.N,RC*%
X247110000Y-54610000D03*
%TO.P,J23,6*%
%TO.N,RD-*%
X245850000Y-57150000D03*
%TO.P,J23,7*%
%TO.N,N/C*%
X244570000Y-54610000D03*
%TO.P,J23,8*%
%TO.N,GND1*%
X243310000Y-57150000D03*
%TO.P,J23,9*%
%TO.N,+3.3V*%
X254375000Y-43350000D03*
%TO.P,J23,10*%
%TO.N,ETHERNET_LED_B*%
X251835000Y-43350000D03*
%TO.P,J23,11*%
%TO.N,ETHERNET_LED_A*%
X243665000Y-43350000D03*
%TO.P,J23,12*%
%TO.N,+3.3V*%
X241125000Y-43350000D03*
D50*
%TO.P,J23,SH*%
%TO.N,N/C*%
X255495000Y-51300000D03*
X240005000Y-51300000D03*
%TD*%
D51*
%TO.P,Q4,1,G*%
%TO.N,+3.3V*%
X161475000Y-50125000D03*
%TO.P,Q4,2,S*%
%TO.N,SDA_1*%
X163375000Y-50125000D03*
%TO.P,Q4,3,D*%
%TO.N,SDA_5V*%
X162425000Y-48250000D03*
%TD*%
D23*
%TO.P,R37,1*%
%TO.N,BOOT_0*%
X170400000Y-67475000D03*
%TO.P,R37,2*%
%TO.N,GND*%
X170400000Y-69125000D03*
%TD*%
D52*
%TO.P,Y2,1,1*%
%TO.N,Net-(U6-PH0)*%
X180200000Y-76500000D03*
%TO.P,Y2,2,2*%
%TO.N,Net-(U6-PH1)*%
X183900000Y-76500000D03*
%TD*%
D10*
%TO.P,JP1,1,A*%
%TO.N,Net-(J2-Pin_1)*%
X206000000Y-49700000D03*
D11*
%TO.P,JP1,2,B*%
%TO.N,Net-(JP1-B)*%
X208540000Y-49700000D03*
%TD*%
D23*
%TO.P,R52,1*%
%TO.N,RC*%
X244657500Y-64175000D03*
%TO.P,R52,2*%
%TO.N,Net-(C38-Pad2)*%
X244657500Y-65825000D03*
%TD*%
D24*
%TO.P,D14,1,K*%
%TO.N,GND*%
X186937500Y-115500000D03*
%TO.P,D14,2,A*%
%TO.N,Net-(D14-A)*%
X185062500Y-115500000D03*
%TD*%
D39*
%TO.P,C37,1*%
%TO.N,RD-*%
X248407500Y-65115000D03*
%TO.P,C37,2*%
%TO.N,Net-(C37-Pad2)*%
X248407500Y-66075000D03*
%TD*%
D13*
%TO.P,R59,1*%
%TO.N,SD_DET*%
X227025000Y-57300000D03*
%TO.P,R59,2*%
%TO.N,+3.3V*%
X225375000Y-57300000D03*
%TD*%
D53*
%TO.P,K3,1*%
%TO.N,Net-(J16-Pin_2)*%
X187050000Y-87600000D03*
D50*
%TO.P,K3,2*%
%TO.N,Net-(D15-A)*%
X181000000Y-89550000D03*
D53*
%TO.P,K3,3*%
%TO.N,Net-(J16-Pin_1)*%
X181000000Y-101750000D03*
%TO.P,K3,4*%
%TO.N,Net-(J16-Pin_3)*%
X193050000Y-101800000D03*
D50*
%TO.P,K3,5*%
%TO.N,+5V*%
X193000000Y-89550000D03*
%TD*%
D16*
%TO.P,R1,1*%
%TO.N,Net-(D11-A)*%
X257162500Y-109500000D03*
%TO.P,R1,2*%
%TO.N,+3.3V*%
X258812500Y-109500000D03*
%TD*%
D24*
%TO.P,D10,1,K*%
%TO.N,GND*%
X260375000Y-49000000D03*
%TO.P,D10,2,A*%
%TO.N,Net-(D10-A)*%
X258500000Y-49000000D03*
%TD*%
D39*
%TO.P,C30,1*%
%TO.N,Net-(U13-XO)*%
X249750000Y-82750000D03*
%TO.P,C30,2*%
%TO.N,GND*%
X249750000Y-83710000D03*
%TD*%
%TO.P,C20,1*%
%TO.N,GND*%
X178300000Y-75040000D03*
%TO.P,C20,2*%
%TO.N,Net-(U6-PH0)*%
X178300000Y-76000000D03*
%TD*%
D24*
%TO.P,D9,1,K*%
%TO.N,GND*%
X213437500Y-115500000D03*
%TO.P,D9,2,A*%
%TO.N,Net-(D9-A)*%
X211562500Y-115500000D03*
%TD*%
D54*
%TO.P,R23,1*%
%TO.N,Net-(D8-A)*%
X195000000Y-115575000D03*
%TO.P,R23,2*%
%TO.N,DIG_IN_A*%
X195000000Y-113925000D03*
%TD*%
%TO.P,R19,1*%
%TO.N,Net-(D6-A)*%
X164062500Y-85075000D03*
%TO.P,R19,2*%
%TO.N,D_OUT_B*%
X164062500Y-83425000D03*
%TD*%
D16*
%TO.P,R33,1*%
%TO.N,+3.3V*%
X161675000Y-53500000D03*
%TO.P,R33,2*%
%TO.N,SDA_1*%
X163325000Y-53500000D03*
%TD*%
%TO.P,R45,1*%
%TO.N,ETHERNET_LED_B*%
X238925000Y-80750000D03*
%TO.P,R45,2*%
%TO.N,Net-(U13-ACTLED)*%
X240575000Y-80750000D03*
%TD*%
D55*
%TO.P,C12,1*%
%TO.N,+5V*%
X249500000Y-94475000D03*
%TO.P,C12,2*%
%TO.N,GND*%
X249500000Y-91525000D03*
%TD*%
D16*
%TO.P,R16,1*%
%TO.N,+3.3V*%
X161800000Y-56000000D03*
%TO.P,R16,2*%
%TO.N,BUTTON_SET_IN*%
X163450000Y-56000000D03*
%TD*%
D56*
%TO.P,U4,1*%
%TO.N,Net-(J8-Pin_2)*%
X205730000Y-103945000D03*
%TO.P,U4,2*%
%TO.N,Net-(R22-Pad1)*%
X208270000Y-103945000D03*
%TO.P,U4,3*%
%TO.N,DIG_IN_A*%
X208270000Y-95055000D03*
%TO.P,U4,4*%
%TO.N,+3.3V*%
X205730000Y-95055000D03*
%TD*%
D13*
%TO.P,R8,1*%
%TO.N,GND*%
X173150000Y-48000000D03*
%TO.P,R8,2*%
%TO.N,0-5V_IN_B*%
X171500000Y-48000000D03*
%TD*%
D14*
%TO.P,C14,1*%
%TO.N,GND*%
X229725000Y-45500000D03*
%TO.P,C14,2*%
%TO.N,Net-(U9-VDD)*%
X231275000Y-45500000D03*
%TD*%
D30*
%TO.P,J4,1,Pin_1*%
%TO.N,+12V*%
X250282500Y-120750000D03*
D31*
%TO.P,J4,2,Pin_2*%
%TO.N,GND*%
X253782500Y-120750000D03*
%TD*%
D16*
%TO.P,R34,1*%
%TO.N,+3.3V*%
X164925000Y-53500000D03*
%TO.P,R34,2*%
%TO.N,SCL_1*%
X166575000Y-53500000D03*
%TD*%
%TO.P,R15,1*%
%TO.N,+3.3V*%
X161800000Y-59600000D03*
%TO.P,R15,2*%
%TO.N,BUTTON_MINUS_IN*%
X163450000Y-59600000D03*
%TD*%
D23*
%TO.P,R63,1*%
%TO.N,Net-(D16-A)*%
X190000000Y-52775000D03*
%TO.P,R63,2*%
%TO.N,LED_C*%
X190000000Y-54425000D03*
%TD*%
D14*
%TO.P,C23,1*%
%TO.N,+3.3V*%
X191975000Y-58250000D03*
%TO.P,C23,2*%
%TO.N,GND*%
X193525000Y-58250000D03*
%TD*%
D32*
%TO.P,D17,1,K*%
%TO.N,GND*%
X192000000Y-49462500D03*
%TO.P,D17,2,A*%
%TO.N,Net-(D17-A)*%
X192000000Y-51337500D03*
%TD*%
D24*
%TO.P,D8,1,K*%
%TO.N,GND*%
X201437500Y-115500000D03*
%TO.P,D8,2,A*%
%TO.N,Net-(D8-A)*%
X199562500Y-115500000D03*
%TD*%
D25*
%TO.P,Q3,1,B*%
%TO.N,Net-(Q3-B)*%
X183750000Y-83300000D03*
%TO.P,Q3,2,E*%
%TO.N,GND*%
X183750000Y-85200000D03*
%TO.P,Q3,3,C*%
%TO.N,Net-(D15-A)*%
X185625000Y-84250000D03*
%TD*%
D54*
%TO.P,R24,1*%
%TO.N,Net-(D9-A)*%
X207250000Y-115575000D03*
%TO.P,R24,2*%
%TO.N,DIG_IN_B*%
X207250000Y-113925000D03*
%TD*%
D10*
%TO.P,J19,1,Pin_1*%
%TO.N,Net-(J16-Pin_3)*%
X189500000Y-115025000D03*
D11*
%TO.P,J19,2,Pin_2*%
%TO.N,GND*%
X189500000Y-112485000D03*
%TD*%
D54*
%TO.P,R62,1*%
%TO.N,CURRENT_SENSOR_SUPPLY_1.65V*%
X219500000Y-104100000D03*
%TO.P,R62,2*%
%TO.N,GND*%
X219500000Y-102450000D03*
%TD*%
D16*
%TO.P,R12,1*%
%TO.N,DIG_IN_B*%
X214175000Y-92250000D03*
%TO.P,R12,2*%
%TO.N,GND*%
X215825000Y-92250000D03*
%TD*%
D57*
%TO.P,R27,1*%
%TO.N,Net-(JP1-B)*%
X208912500Y-46500000D03*
%TO.P,R27,2*%
%TO.N,Net-(J2-Pin_2)*%
X207087500Y-46500000D03*
%TD*%
D23*
%TO.P,R64,1*%
%TO.N,Net-(D17-A)*%
X192000000Y-52775000D03*
%TO.P,R64,2*%
%TO.N,LED_D*%
X192000000Y-54425000D03*
%TD*%
D16*
%TO.P,R14,1*%
%TO.N,+3.3V*%
X161800000Y-57500000D03*
%TO.P,R14,2*%
%TO.N,BUTTON_PLUS_IN*%
X163450000Y-57500000D03*
%TD*%
D23*
%TO.P,R61,1*%
%TO.N,+3.3V*%
X218000000Y-102450000D03*
%TO.P,R61,2*%
%TO.N,CURRENT_SENSOR_SUPPLY_1.65V*%
X218000000Y-104100000D03*
%TD*%
D16*
%TO.P,R31,1*%
%TO.N,+12V*%
X195925000Y-107750000D03*
%TO.P,R31,2*%
%TO.N,IN_voltage_detect*%
X197575000Y-107750000D03*
%TD*%
D58*
%TO.P,J1,1,Pin_1*%
%TO.N,+5V*%
X183250000Y-43282500D03*
D59*
%TO.P,J1,2,Pin_2*%
%TO.N,GND*%
X185750000Y-43282500D03*
%TO.P,J1,3,Pin_3*%
%TO.N,Net-(J1-Pin_3)*%
X188250000Y-43282500D03*
%TD*%
D55*
%TO.P,C1,1*%
%TO.N,CURRENT_SENSOR_SUPPLY_1.65V*%
X221500000Y-104000000D03*
%TO.P,C1,2*%
%TO.N,GND*%
X221500000Y-101050000D03*
%TD*%
D23*
%TO.P,R51,1*%
%TO.N,RC*%
X247157500Y-64250000D03*
%TO.P,R51,2*%
%TO.N,Net-(C37-Pad2)*%
X247157500Y-65900000D03*
%TD*%
%TO.P,R40,1*%
%TO.N,TD-*%
X251157500Y-67500000D03*
%TO.P,R40,2*%
%TO.N,Net-(U13-TXN)*%
X251157500Y-69150000D03*
%TD*%
D24*
%TO.P,D19,1,K*%
%TO.N,Net-(D19-K)*%
X231437500Y-55750000D03*
%TO.P,D19,2,A*%
%TO.N,+3.3V*%
X229562500Y-55750000D03*
%TD*%
D13*
%TO.P,R47,1*%
%TO.N,+3.3VA*%
X248575000Y-62500000D03*
%TO.P,R47,2*%
%TO.N,TC*%
X246925000Y-62500000D03*
%TD*%
D60*
%TO.P,C34,1*%
%TO.N,GND*%
X248525000Y-61000000D03*
%TO.P,C34,2*%
%TO.N,TC*%
X246975000Y-61000000D03*
%TD*%
D17*
%TO.P,C22,1*%
%TO.N,+3.3V*%
X259825000Y-85100000D03*
%TO.P,C22,2*%
%TO.N,GND*%
X262775000Y-85100000D03*
%TD*%
D61*
%TO.P,U8,1,RO*%
%TO.N,MAX485_RO*%
X196975000Y-48495000D03*
%TO.P,U8,2,~{RE}*%
%TO.N,MAX485_RE*%
X196975000Y-49765000D03*
%TO.P,U8,3,DE*%
%TO.N,MAX485_DE*%
X196975000Y-51035000D03*
%TO.P,U8,4,DI*%
%TO.N,MAX485_DI*%
X196975000Y-52305000D03*
%TO.P,U8,5,GND*%
%TO.N,GND*%
X202225000Y-52305000D03*
%TO.P,U8,6,A*%
%TO.N,Net-(J2-Pin_1)*%
X202225000Y-51035000D03*
%TO.P,U8,7,B*%
%TO.N,Net-(J2-Pin_2)*%
X202225000Y-49765000D03*
%TO.P,U8,8,VCC*%
%TO.N,+5V*%
X202225000Y-48495000D03*
%TD*%
D16*
%TO.P,R4,1*%
%TO.N,+5V*%
X164925000Y-46500000D03*
%TO.P,R4,2*%
%TO.N,SCL_5V*%
X166575000Y-46500000D03*
%TD*%
D54*
%TO.P,R20,1*%
%TO.N,Net-(D7-A)*%
X147750000Y-85075000D03*
%TO.P,R20,2*%
%TO.N,D_OUT_A*%
X147750000Y-83425000D03*
%TD*%
D46*
%TO.P,SW3,1,1*%
%TO.N,GND*%
X150350000Y-57750000D03*
X156150000Y-57750000D03*
%TO.P,SW3,2,2*%
%TO.N,BUTTON_PLUS_IN*%
X150350000Y-61750000D03*
X156150000Y-61750000D03*
%TD*%
D10*
%TO.P,J10,1,Pin_1*%
%TO.N,DISPLAY_CS*%
X214240000Y-61141700D03*
D11*
%TO.P,J10,2,Pin_2*%
%TO.N,DISPLAY_RSE*%
X216780000Y-61141700D03*
%TO.P,J10,3,Pin_3*%
%TO.N,DISPLAY_RS*%
X219320000Y-61141700D03*
%TO.P,J10,4,Pin_4*%
%TO.N,DISPLAY_SCL*%
X221860000Y-61141700D03*
%TO.P,J10,5,Pin_5*%
%TO.N,DISPLAY_SI*%
X224400000Y-61141700D03*
%TO.P,J10,6,Pin_6*%
%TO.N,+3.3V*%
X226940000Y-61141700D03*
%TO.P,J10,7,Pin_7*%
%TO.N,GND*%
X229480000Y-61141700D03*
%TO.P,J10,8,Pin_8*%
%TO.N,+3.3V*%
X232040000Y-61143861D03*
%TO.P,J10,9,Pin_9*%
%TO.N,Net-(J10-Pin_9)*%
X234580000Y-61144926D03*
%TD*%
D58*
%TO.P,J3,1,Pin_1*%
%TO.N,+3.3V*%
X193750000Y-43282500D03*
D59*
%TO.P,J3,2,Pin_2*%
%TO.N,GND*%
X196250000Y-43282500D03*
%TO.P,J3,3,Pin_3*%
%TO.N,DS18B20_DATA*%
X198750000Y-43282500D03*
%TD*%
D36*
%TO.P,D2,1,K*%
%TO.N,GND*%
X253625000Y-111750000D03*
%TO.P,D2,2,A*%
%TO.N,Net-(D2-A)*%
X255500000Y-111750000D03*
%TD*%
D10*
%TO.P,U2,1,x*%
%TO.N,unconnected-(U2-x-Pad1)*%
X163210000Y-78170000D03*
D11*
%TO.P,U2,2,Vdd*%
%TO.N,+5V*%
X165750000Y-78170000D03*
%TO.P,U2,3,GND*%
%TO.N,GND*%
X168290000Y-78170000D03*
D62*
%TO.P,U2,4,Vdd*%
%TO.N,+5V*%
X168290000Y-68170000D03*
D11*
%TO.P,U2,5,Out*%
%TO.N,Net-(U2-Out)*%
X165750000Y-68170000D03*
%TO.P,U2,6,GND*%
%TO.N,GND*%
X163210000Y-68170000D03*
%TD*%
D43*
%TO.P,C8,1*%
%TO.N,+3.3V*%
X189750000Y-74225000D03*
%TO.P,C8,2*%
%TO.N,GND*%
X189750000Y-75775000D03*
%TD*%
D16*
%TO.P,R22,1*%
%TO.N,Net-(R22-Pad1)*%
X207600000Y-106750000D03*
%TO.P,R22,2*%
%TO.N,GND*%
X209250000Y-106750000D03*
%TD*%
D10*
%TO.P,JP2,1,A*%
%TO.N,BOOT_0*%
X153000000Y-79100000D03*
D11*
%TO.P,JP2,2,B*%
%TO.N,+3.3V*%
X150460000Y-79100000D03*
%TD*%
D30*
%TO.P,J14,1,Pin_1*%
%TO.N,Net-(J14-Pin_1)*%
X170750000Y-120750000D03*
D31*
%TO.P,J14,2,Pin_2*%
%TO.N,Net-(J14-Pin_2)*%
X174250000Y-120750000D03*
%TO.P,J14,3,Pin_3*%
%TO.N,Net-(J11-Pin_1)*%
X177750000Y-120750000D03*
%TD*%
D63*
%TO.P,Y3,1,1*%
%TO.N,Net-(U13-XO)*%
X248100000Y-83150000D03*
%TO.P,Y3,2,2*%
%TO.N,GND*%
X245900000Y-83150000D03*
%TO.P,Y3,3,3*%
%TO.N,Net-(U13-XI{slash}CLKIN)*%
X245900000Y-84850000D03*
%TO.P,Y3,4,4*%
%TO.N,GND*%
X248100000Y-84850000D03*
%TD*%
D23*
%TO.P,R3,1*%
%TO.N,D_OUT_C*%
X181750000Y-83425000D03*
%TO.P,R3,2*%
%TO.N,Net-(Q3-B)*%
X181750000Y-85075000D03*
%TD*%
D36*
%TO.P,D11,1,K*%
%TO.N,GND*%
X253625000Y-109500000D03*
%TO.P,D11,2,A*%
%TO.N,Net-(D11-A)*%
X255500000Y-109500000D03*
%TD*%
D16*
%TO.P,R57,1*%
%TO.N,GND*%
X166975000Y-72400000D03*
%TO.P,R57,2*%
%TO.N,PRESSURE_IN*%
X168625000Y-72400000D03*
%TD*%
%TO.P,R25,1*%
%TO.N,+3.3V*%
X192675000Y-46500000D03*
%TO.P,R25,2*%
%TO.N,DS18B20_DATA*%
X194325000Y-46500000D03*
%TD*%
%TO.P,R26,1*%
%TO.N,+3.3V*%
X164925000Y-52000000D03*
%TO.P,R26,2*%
%TO.N,SCL_1*%
X166575000Y-52000000D03*
%TD*%
%TO.P,R66,1*%
%TO.N,Net-(D19-K)*%
X234925000Y-55000000D03*
%TO.P,R66,2*%
%TO.N,uC_RX*%
X236575000Y-55000000D03*
%TD*%
D64*
%TO.P,C45,1*%
%TO.N,+3.3VA*%
X240700000Y-71750000D03*
%TO.P,C45,2*%
%TO.N,GND*%
X238800000Y-71750000D03*
%TD*%
D54*
%TO.P,R2,1*%
%TO.N,Net-(D14-A)*%
X180000000Y-85075000D03*
%TO.P,R2,2*%
%TO.N,D_OUT_C*%
X180000000Y-83425000D03*
%TD*%
D65*
%TO.P,BT1,1,+*%
%TO.N,Net-(BT1-+)*%
X203000000Y-78900000D03*
%TO.P,BT1,2,-*%
%TO.N,GND*%
X232300000Y-78900000D03*
%TD*%
D16*
%TO.P,R35,1*%
%TO.N,0-5V_IN_B*%
X171500000Y-46500000D03*
%TO.P,R35,2*%
%TO.N,Net-(J13-Pin_3)*%
X173150000Y-46500000D03*
%TD*%
D43*
%TO.P,C17,1*%
%TO.N,+3.3V*%
X174250000Y-71225000D03*
%TO.P,C17,2*%
%TO.N,GND*%
X174250000Y-72775000D03*
%TD*%
D15*
%TO.P,C42,1*%
%TO.N,+3.3VA*%
X250500000Y-62730000D03*
%TO.P,C42,2*%
%TO.N,GND*%
X250500000Y-61770000D03*
%TD*%
D30*
%TO.P,J15,1,Pin_1*%
%TO.N,Net-(J15-Pin_1)*%
X159000000Y-120750000D03*
D31*
%TO.P,J15,2,Pin_2*%
%TO.N,Net-(J15-Pin_2)*%
X162500000Y-120750000D03*
%TO.P,J15,3,Pin_3*%
%TO.N,Net-(J15-Pin_3)*%
X166000000Y-120750000D03*
%TD*%
D56*
%TO.P,U3,1*%
%TO.N,Net-(J9-Pin_2)*%
X212480000Y-103945000D03*
%TO.P,U3,2*%
%TO.N,Net-(R6-Pad1)*%
X215020000Y-103945000D03*
%TO.P,U3,3*%
%TO.N,DIG_IN_B*%
X215020000Y-95055000D03*
%TO.P,U3,4*%
%TO.N,+3.3V*%
X212480000Y-95055000D03*
%TD*%
D25*
%TO.P,Q6,1,B*%
%TO.N,Net-(Q6-B)*%
X233000000Y-64250000D03*
%TO.P,Q6,2,E*%
%TO.N,GND*%
X233000000Y-66150000D03*
%TO.P,Q6,3,C*%
%TO.N,Net-(J10-Pin_9)*%
X234875000Y-65200000D03*
%TD*%
D13*
%TO.P,R58,1*%
%TO.N,PRESSURE_IN*%
X168625000Y-70900000D03*
%TO.P,R58,2*%
%TO.N,Net-(U2-Out)*%
X166975000Y-70900000D03*
%TD*%
D46*
%TO.P,SW4,1,1*%
%TO.N,GND*%
X150350000Y-64750000D03*
X156150000Y-64750000D03*
%TO.P,SW4,2,2*%
%TO.N,BUTTON_MINUS_IN*%
X150350000Y-68750000D03*
X156150000Y-68750000D03*
%TD*%
D38*
%TO.P,C36,1*%
%TO.N,GND*%
X242500000Y-65775000D03*
%TO.P,C36,2*%
%TO.N,RC*%
X242500000Y-64225000D03*
%TD*%
D53*
%TO.P,K2,1*%
%TO.N,Net-(J14-Pin_2)*%
X171050000Y-87600000D03*
D50*
%TO.P,K2,2*%
%TO.N,Net-(D5-A)*%
X165000000Y-89550000D03*
D53*
%TO.P,K2,3*%
%TO.N,Net-(J14-Pin_1)*%
X165000000Y-101750000D03*
%TO.P,K2,4*%
%TO.N,Net-(J11-Pin_1)*%
X177050000Y-101800000D03*
D50*
%TO.P,K2,5*%
%TO.N,+5V*%
X177000000Y-89550000D03*
%TD*%
D66*
%TO.P,C32,1*%
%TO.N,+3.3V*%
X253800000Y-74500000D03*
%TO.P,C32,2*%
%TO.N,GND*%
X255700000Y-74500000D03*
%TD*%
D14*
%TO.P,C10,1*%
%TO.N,BUTTON_SET_IN*%
X164825000Y-56000000D03*
%TO.P,C10,2*%
%TO.N,GND*%
X166375000Y-56000000D03*
%TD*%
D67*
%TO.P,U13,1,TXN*%
%TO.N,Net-(U13-TXN)*%
X249750000Y-71247500D03*
%TO.P,U13,2,TXP*%
%TO.N,Net-(U13-TXP)*%
X249250000Y-71247500D03*
%TO.P,U13,3,AGND*%
%TO.N,GND*%
X248750000Y-71247500D03*
%TO.P,U13,4,AVDD*%
%TO.N,+3.3VA*%
X248250000Y-71247500D03*
%TO.P,U13,5,RXN*%
%TO.N,Net-(U13-RXN)*%
X247750000Y-71247500D03*
%TO.P,U13,6,RXP*%
%TO.N,Net-(U13-RXP)*%
X247250000Y-71247500D03*
%TO.P,U13,7,DNC*%
%TO.N,unconnected-(U13-DNC-Pad7)*%
X246750000Y-71247500D03*
%TO.P,U13,8,AVDD*%
%TO.N,+3.3VA*%
X246250000Y-71247500D03*
%TO.P,U13,9,AGND*%
%TO.N,GND*%
X245750000Y-71247500D03*
%TO.P,U13,10,EXRES1*%
%TO.N,Net-(U13-EXRES1)*%
X245250000Y-71247500D03*
%TO.P,U13,11,AVDD*%
%TO.N,+3.3VA*%
X244750000Y-71247500D03*
%TO.P,U13,12,NC*%
%TO.N,unconnected-(U13-NC-Pad12)*%
X244250000Y-71247500D03*
D68*
%TO.P,U13,13,NC*%
%TO.N,unconnected-(U13-NC-Pad13)*%
X242837500Y-72660000D03*
%TO.P,U13,14,AGND*%
%TO.N,GND*%
X242837500Y-73160000D03*
%TO.P,U13,15,AVDD*%
%TO.N,+3.3VA*%
X242837500Y-73660000D03*
%TO.P,U13,16,AGND*%
%TO.N,GND*%
X242837500Y-74160000D03*
%TO.P,U13,17,AVDD*%
%TO.N,+3.3VA*%
X242837500Y-74660000D03*
%TO.P,U13,18,VBG*%
%TO.N,unconnected-(U13-VBG-Pad18)*%
X242837500Y-75160000D03*
%TO.P,U13,19,AGND*%
%TO.N,GND*%
X242837500Y-75660000D03*
%TO.P,U13,20,TOCAP*%
%TO.N,Net-(U13-TOCAP)*%
X242837500Y-76160000D03*
%TO.P,U13,21,AVDD*%
%TO.N,+3.3VA*%
X242837500Y-76660000D03*
%TO.P,U13,22,1V2O*%
%TO.N,Net-(U13-1V2O)*%
X242837500Y-77160000D03*
%TO.P,U13,23,RSVD*%
%TO.N,unconnected-(U13-RSVD-Pad23)*%
X242837500Y-77660000D03*
%TO.P,U13,24,SPDLED*%
%TO.N,Net-(U13-SPDLED)*%
X242837500Y-78160000D03*
D67*
%TO.P,U13,25,LINKLED*%
%TO.N,Net-(U13-LINKLED)*%
X244250000Y-79572500D03*
%TO.P,U13,26,DUPLED*%
%TO.N,Net-(U13-DUPLED)*%
X244750000Y-79572500D03*
%TO.P,U13,27,ACTLED*%
%TO.N,Net-(U13-ACTLED)*%
X245250000Y-79572500D03*
%TO.P,U13,28,VDD*%
%TO.N,+3.3V*%
X245750000Y-79572500D03*
%TO.P,U13,29,GND*%
%TO.N,GND*%
X246250000Y-79572500D03*
%TO.P,U13,30,XI/CLKIN*%
%TO.N,Net-(U13-XI{slash}CLKIN)*%
X246750000Y-79572500D03*
%TO.P,U13,31,XO*%
%TO.N,Net-(U13-XO)*%
X247250000Y-79572500D03*
%TO.P,U13,32,~{SCS}*%
%TO.N,ETH_CS*%
X247750000Y-79572500D03*
%TO.P,U13,33,SCLK*%
%TO.N,SCK*%
X248250000Y-79572500D03*
%TO.P,U13,34,MISO*%
%TO.N,MISO*%
X248750000Y-79572500D03*
%TO.P,U13,35,MOSI*%
%TO.N,MOSI*%
X249250000Y-79572500D03*
%TO.P,U13,36,~{INT}*%
%TO.N,ETH_INT*%
X249750000Y-79572500D03*
D68*
%TO.P,U13,37,~{RST}*%
%TO.N,ETH_RST*%
X251162500Y-78160000D03*
%TO.P,U13,38,RSVD*%
%TO.N,unconnected-(U13-RSVD-Pad38)*%
X251162500Y-77660000D03*
%TO.P,U13,39,RSVD*%
%TO.N,unconnected-(U13-RSVD-Pad39)*%
X251162500Y-77160000D03*
%TO.P,U13,40,RSVD*%
%TO.N,unconnected-(U13-RSVD-Pad40)*%
X251162500Y-76660000D03*
%TO.P,U13,41,RSVD*%
%TO.N,unconnected-(U13-RSVD-Pad41)*%
X251162500Y-76160000D03*
%TO.P,U13,42,RSVD*%
%TO.N,unconnected-(U13-RSVD-Pad42)*%
X251162500Y-75660000D03*
%TO.P,U13,43,PMODE2*%
%TO.N,+3.3V*%
X251162500Y-75160000D03*
%TO.P,U13,44,PMODE1*%
X251162500Y-74660000D03*
%TO.P,U13,45,PMODE0*%
X251162500Y-74160000D03*
%TO.P,U13,46,NC*%
%TO.N,unconnected-(U13-NC-Pad46)*%
X251162500Y-73660000D03*
%TO.P,U13,47,NC*%
%TO.N,unconnected-(U13-NC-Pad47)*%
X251162500Y-73160000D03*
%TO.P,U13,48,AGND*%
%TO.N,GND*%
X251162500Y-72660000D03*
%TD*%
D58*
%TO.P,J13,1,Pin_1*%
%TO.N,+5V*%
X172750000Y-43282500D03*
D59*
%TO.P,J13,2,Pin_2*%
%TO.N,GND*%
X175250000Y-43282500D03*
%TO.P,J13,3,Pin_3*%
%TO.N,Net-(J13-Pin_3)*%
X177750000Y-43282500D03*
%TD*%
D53*
%TO.P,K1,1*%
%TO.N,Net-(J15-Pin_2)*%
X155050000Y-87600000D03*
D50*
%TO.P,K1,2*%
%TO.N,Net-(D4-A)*%
X149000000Y-89550000D03*
D53*
%TO.P,K1,3*%
%TO.N,Net-(J15-Pin_1)*%
X149000000Y-101750000D03*
%TO.P,K1,4*%
%TO.N,Net-(J15-Pin_3)*%
X161050000Y-101800000D03*
D50*
%TO.P,K1,5*%
%TO.N,+5V*%
X161000000Y-89550000D03*
%TD*%
D38*
%TO.P,C24,1*%
%TO.N,CURRENT_SENSOR_SUPPLY_1.65V*%
X223500000Y-104075000D03*
%TO.P,C24,2*%
%TO.N,GND*%
X223500000Y-102525000D03*
%TD*%
D13*
%TO.P,R55,1*%
%TO.N,GND*%
X183575000Y-48000000D03*
%TO.P,R55,2*%
%TO.N,0-5V_IN_A*%
X181925000Y-48000000D03*
%TD*%
D12*
%TO.P,C35,1*%
%TO.N,Net-(U13-TOCAP)*%
X240980000Y-75750000D03*
%TO.P,C35,2*%
%TO.N,GND*%
X240020000Y-75750000D03*
%TD*%
D16*
%TO.P,R5,1*%
%TO.N,+3.3V*%
X161675000Y-52000000D03*
%TO.P,R5,2*%
%TO.N,SDA_1*%
X163325000Y-52000000D03*
%TD*%
D12*
%TO.P,C33,1*%
%TO.N,Net-(U13-1V2O)*%
X240980000Y-77750000D03*
%TO.P,C33,2*%
%TO.N,GND*%
X240020000Y-77750000D03*
%TD*%
D43*
%TO.P,C16,1*%
%TO.N,+3.3V*%
X188250000Y-74225000D03*
%TO.P,C16,2*%
%TO.N,GND*%
X188250000Y-75775000D03*
%TD*%
D30*
%TO.P,J8,1,Pin_1*%
%TO.N,+12V*%
X197000000Y-120795000D03*
D31*
%TO.P,J8,2,Pin_2*%
%TO.N,Net-(J8-Pin_2)*%
X200500000Y-120795000D03*
%TO.P,J8,3,Pin_3*%
%TO.N,GND*%
X204000000Y-120795000D03*
%TD*%
D24*
%TO.P,D12,1,K*%
%TO.N,GND*%
X260375000Y-47000000D03*
%TO.P,D12,2,A*%
%TO.N,Net-(D12-A)*%
X258500000Y-47000000D03*
%TD*%
D23*
%TO.P,R48,1*%
%TO.N,5V_voltage_detect*%
X171500000Y-77575000D03*
%TO.P,R48,2*%
%TO.N,GND*%
X171500000Y-79225000D03*
%TD*%
D24*
%TO.P,D18,1,K*%
%TO.N,Net-(D18-K)*%
X231437500Y-53750000D03*
%TO.P,D18,2,A*%
%TO.N,+3.3V*%
X229562500Y-53750000D03*
%TD*%
D69*
%TO.P,U6,1,PE2*%
%TO.N,unconnected-(U6-PE2-Pad1)*%
X176325000Y-71675000D03*
%TO.P,U6,2,PE3*%
%TO.N,unconnected-(U6-PE3-Pad2)*%
X176825000Y-71675000D03*
%TO.P,U6,3,PE4*%
%TO.N,unconnected-(U6-PE4-Pad3)*%
X177325000Y-71675000D03*
%TO.P,U6,4,PE5*%
%TO.N,unconnected-(U6-PE5-Pad4)*%
X177825000Y-71675000D03*
%TO.P,U6,5,PE6*%
%TO.N,unconnected-(U6-PE6-Pad5)*%
X178325000Y-71675000D03*
%TO.P,U6,6,VBAT*%
%TO.N,Net-(BT1-+)*%
X178825000Y-71675000D03*
%TO.P,U6,7,PC13*%
%TO.N,Net-(U6-PC13)*%
X179325000Y-71675000D03*
%TO.P,U6,8,PC14*%
%TO.N,unconnected-(U6-PC14-Pad8)*%
X179825000Y-71675000D03*
%TO.P,U6,9,PC15*%
%TO.N,unconnected-(U6-PC15-Pad9)*%
X180325000Y-71675000D03*
%TO.P,U6,10,VSS*%
%TO.N,GND*%
X180825000Y-71675000D03*
%TO.P,U6,11,VDD*%
%TO.N,+3.3V*%
X181325000Y-71675000D03*
%TO.P,U6,12,PH0*%
%TO.N,Net-(U6-PH0)*%
X181825000Y-71675000D03*
%TO.P,U6,13,PH1*%
%TO.N,Net-(U6-PH1)*%
X182325000Y-71675000D03*
%TO.P,U6,14,NRST*%
%TO.N,rst*%
X182825000Y-71675000D03*
%TO.P,U6,15,PC0*%
%TO.N,CURRENT_SENSOR_C*%
X183325000Y-71675000D03*
%TO.P,U6,16,PC1*%
%TO.N,CURRENT_SENSOR_B*%
X183825000Y-71675000D03*
%TO.P,U6,17,PC2*%
%TO.N,CURRENT_SENSOR_A*%
X184325000Y-71675000D03*
%TO.P,U6,18,PC3*%
%TO.N,unconnected-(U6-PC3-Pad18)*%
X184825000Y-71675000D03*
%TO.P,U6,19,VDD*%
%TO.N,+3.3V*%
X185325000Y-71675000D03*
%TO.P,U6,20,VSSA*%
%TO.N,GND*%
X185825000Y-71675000D03*
%TO.P,U6,21,VREF+*%
%TO.N,+3.3V*%
X186325000Y-71675000D03*
%TO.P,U6,22,VDDA*%
X186825000Y-71675000D03*
%TO.P,U6,23,PA0*%
%TO.N,unconnected-(U6-PA0-Pad23)*%
X187325000Y-71675000D03*
%TO.P,U6,24,PA1*%
%TO.N,ETH_CS*%
X187825000Y-71675000D03*
%TO.P,U6,25,PA2*%
%TO.N,ETH_RST*%
X188325000Y-71675000D03*
D70*
%TO.P,U6,26,PA3*%
%TO.N,ETH_INT*%
X190000000Y-70000000D03*
%TO.P,U6,27,VSS*%
%TO.N,GND*%
X190000000Y-69500000D03*
%TO.P,U6,28,VDD*%
%TO.N,+3.3V*%
X190000000Y-69000000D03*
%TO.P,U6,29,PA4*%
%TO.N,PA4*%
X190000000Y-68500000D03*
%TO.P,U6,30,PA5*%
%TO.N,SCK*%
X190000000Y-68000000D03*
%TO.P,U6,31,PA6*%
%TO.N,MISO*%
X190000000Y-67500000D03*
%TO.P,U6,32,PA7*%
%TO.N,MOSI*%
X190000000Y-67000000D03*
%TO.P,U6,33,PC4*%
%TO.N,0-5V_IN_B*%
X190000000Y-66500000D03*
%TO.P,U6,34,PC5*%
%TO.N,0-5V_IN_A*%
X190000000Y-66000000D03*
%TO.P,U6,35,PB0*%
%TO.N,IN_voltage_detect*%
X190000000Y-65500000D03*
%TO.P,U6,36,PB1*%
%TO.N,unconnected-(U6-PB1-Pad36)*%
X190000000Y-65000000D03*
%TO.P,U6,37,PB2*%
%TO.N,unconnected-(U6-PB2-Pad37)*%
X190000000Y-64500000D03*
%TO.P,U6,38,PE7*%
%TO.N,DIG_IN_A*%
X190000000Y-64000000D03*
%TO.P,U6,39,PE8*%
%TO.N,DIG_IN_B*%
X190000000Y-63500000D03*
%TO.P,U6,40,PE9*%
%TO.N,DISPLAY_BG_LED*%
X190000000Y-63000000D03*
%TO.P,U6,41,PE10*%
%TO.N,DISPLAY_SI*%
X190000000Y-62500000D03*
%TO.P,U6,42,PE11*%
%TO.N,DISPLAY_SCL*%
X190000000Y-62000000D03*
%TO.P,U6,43,PE12*%
%TO.N,DISPLAY_RS*%
X190000000Y-61500000D03*
%TO.P,U6,44,PE13*%
%TO.N,DISPLAY_RSE*%
X190000000Y-61000000D03*
%TO.P,U6,45,PE14*%
%TO.N,DISPLAY_CS*%
X190000000Y-60500000D03*
%TO.P,U6,46,PE15*%
%TO.N,SD_DET*%
X190000000Y-60000000D03*
%TO.P,U6,47,PB10*%
%TO.N,SCL_2*%
X190000000Y-59500000D03*
%TO.P,U6,48,PB11*%
%TO.N,SDA_2*%
X190000000Y-59000000D03*
%TO.P,U6,49,VCAP_1*%
%TO.N,unconnected-(U6-VCAP_1-Pad49)*%
X190000000Y-58500000D03*
%TO.P,U6,50,VDD*%
%TO.N,+3.3V*%
X190000000Y-58000000D03*
D69*
%TO.P,U6,51,PB12*%
%TO.N,LED_D*%
X188325000Y-56325000D03*
%TO.P,U6,52,PB13*%
%TO.N,LED_C*%
X187825000Y-56325000D03*
%TO.P,U6,53,PB14*%
%TO.N,LED_B*%
X187325000Y-56325000D03*
%TO.P,U6,54,PB15*%
%TO.N,LED_A*%
X186825000Y-56325000D03*
%TO.P,U6,55,PD8*%
%TO.N,unconnected-(U6-PD8-Pad55)*%
X186325000Y-56325000D03*
%TO.P,U6,56,PD9*%
%TO.N,unconnected-(U6-PD9-Pad56)*%
X185825000Y-56325000D03*
%TO.P,U6,57,PD10*%
%TO.N,unconnected-(U6-PD10-Pad57)*%
X185325000Y-56325000D03*
%TO.P,U6,58,PD11*%
%TO.N,unconnected-(U6-PD11-Pad58)*%
X184825000Y-56325000D03*
%TO.P,U6,59,PD12*%
%TO.N,DS18B20_DATA*%
X184325000Y-56325000D03*
%TO.P,U6,60,PD13*%
%TO.N,unconnected-(U6-PD13-Pad60)*%
X183825000Y-56325000D03*
%TO.P,U6,61,PD14*%
%TO.N,MAX485_RE*%
X183325000Y-56325000D03*
%TO.P,U6,62,PD15*%
%TO.N,MAX485_DE*%
X182825000Y-56325000D03*
%TO.P,U6,63,PC6*%
%TO.N,MAX485_DI*%
X182325000Y-56325000D03*
%TO.P,U6,64,PC7*%
%TO.N,MAX485_RO*%
X181825000Y-56325000D03*
%TO.P,U6,65,PC8*%
%TO.N,SD_D0*%
X181325000Y-56325000D03*
%TO.P,U6,66,PC9*%
%TO.N,SD_D1*%
X180825000Y-56325000D03*
%TO.P,U6,67,PA8*%
%TO.N,unconnected-(U6-PA8-Pad67)*%
X180325000Y-56325000D03*
%TO.P,U6,68,PA9*%
%TO.N,uC_TX*%
X179825000Y-56325000D03*
%TO.P,U6,69,PA10*%
%TO.N,uC_RX*%
X179325000Y-56325000D03*
%TO.P,U6,70,PA11*%
%TO.N,unconnected-(U6-PA11-Pad70)*%
X178825000Y-56325000D03*
%TO.P,U6,71,PA12*%
%TO.N,unconnected-(U6-PA12-Pad71)*%
X178325000Y-56325000D03*
%TO.P,U6,72,PA13*%
%TO.N,unconnected-(U6-PA13-Pad72)*%
X177825000Y-56325000D03*
%TO.P,U6,73,VCAP_2*%
%TO.N,unconnected-(U6-VCAP_2-Pad73)*%
X177325000Y-56325000D03*
%TO.P,U6,74,VSS*%
%TO.N,GND*%
X176825000Y-56325000D03*
%TO.P,U6,75,VDD*%
%TO.N,+3.3V*%
X176325000Y-56325000D03*
D70*
%TO.P,U6,76,PA14*%
%TO.N,unconnected-(U6-PA14-Pad76)*%
X174650000Y-58000000D03*
%TO.P,U6,77,PA15*%
%TO.N,unconnected-(U6-PA15-Pad77)*%
X174650000Y-58500000D03*
%TO.P,U6,78,PC10*%
%TO.N,SD_D2*%
X174650000Y-59000000D03*
%TO.P,U6,79,PC11*%
%TO.N,SD_D3*%
X174650000Y-59500000D03*
%TO.P,U6,80,PC12*%
%TO.N,SD_SCK*%
X174650000Y-60000000D03*
%TO.P,U6,81,PD0*%
%TO.N,D_OUT_A*%
X174650000Y-60500000D03*
%TO.P,U6,82,PD1*%
%TO.N,D_OUT_B*%
X174650000Y-61000000D03*
%TO.P,U6,83,PD2*%
%TO.N,SD_CMD*%
X174650000Y-61500000D03*
%TO.P,U6,84,PD3*%
%TO.N,D_OUT_C*%
X174650000Y-62000000D03*
%TO.P,U6,85,PD4*%
%TO.N,BUTTON_SET_IN*%
X174650000Y-62500000D03*
%TO.P,U6,86,PD5*%
%TO.N,uC_TX2*%
X174650000Y-63000000D03*
%TO.P,U6,87,PD6*%
%TO.N,uC_RX2*%
X174650000Y-63500000D03*
%TO.P,U6,88,PD7*%
%TO.N,BUTTON_PLUS_IN*%
X174650000Y-64000000D03*
%TO.P,U6,89,PB3*%
%TO.N,BUTTON_MINUS_IN*%
X174650000Y-64500000D03*
%TO.P,U6,90,PB4*%
%TO.N,unconnected-(U6-PB4-Pad90)*%
X174650000Y-65000000D03*
%TO.P,U6,91,PB5*%
%TO.N,unconnected-(U6-PB5-Pad91)*%
X174650000Y-65500000D03*
%TO.P,U6,92,PB6*%
%TO.N,SCL_1*%
X174650000Y-66000000D03*
%TO.P,U6,93,PB7*%
%TO.N,SDA_1*%
X174650000Y-66500000D03*
%TO.P,U6,94,BOOT0*%
%TO.N,BOOT_0*%
X174650000Y-67000000D03*
%TO.P,U6,95,PB8*%
%TO.N,unconnected-(U6-PB8-Pad95)*%
X174650000Y-67500000D03*
%TO.P,U6,96,PB9*%
%TO.N,unconnected-(U6-PB9-Pad96)*%
X174650000Y-68000000D03*
%TO.P,U6,97,PE0*%
%TO.N,5V_voltage_detect*%
X174650000Y-68500000D03*
%TO.P,U6,98,PE1*%
%TO.N,PRESSURE_IN*%
X174650000Y-69000000D03*
%TO.P,U6,99,VSS*%
%TO.N,GND*%
X174650000Y-69500000D03*
%TO.P,U6,100,VDD*%
%TO.N,+3.3V*%
X174650000Y-70000000D03*
%TD*%
D23*
%TO.P,R17,1*%
%TO.N,D_OUT_A*%
X149500000Y-83425000D03*
%TO.P,R17,2*%
%TO.N,Net-(Q1-B)*%
X149500000Y-85075000D03*
%TD*%
D14*
%TO.P,C2,1*%
%TO.N,BUTTON_MINUS_IN*%
X164825000Y-59600000D03*
%TO.P,C2,2*%
%TO.N,GND*%
X166375000Y-59600000D03*
%TD*%
D30*
%TO.P,J16,1,Pin_1*%
%TO.N,Net-(J16-Pin_1)*%
X182500000Y-120750000D03*
D31*
%TO.P,J16,2,Pin_2*%
%TO.N,Net-(J16-Pin_2)*%
X186000000Y-120750000D03*
%TO.P,J16,3,Pin_3*%
%TO.N,Net-(J16-Pin_3)*%
X189500000Y-120750000D03*
%TD*%
D13*
%TO.P,R46,1*%
%TO.N,GND*%
X245232500Y-69075000D03*
%TO.P,R46,2*%
%TO.N,Net-(U13-EXRES1)*%
X243582500Y-69075000D03*
%TD*%
D51*
%TO.P,Q5,1,G*%
%TO.N,+3.3V*%
X165050000Y-50125000D03*
%TO.P,Q5,2,S*%
%TO.N,SCL_1*%
X166950000Y-50125000D03*
%TO.P,Q5,3,D*%
%TO.N,SCL_5V*%
X166000000Y-48250000D03*
%TD*%
D10*
%TO.P,J25,1,Pin_1*%
%TO.N,+12V*%
X159000000Y-112475000D03*
D11*
%TO.P,J25,2,Pin_2*%
%TO.N,Net-(J15-Pin_1)*%
X159000000Y-115015000D03*
%TD*%
D58*
%TO.P,J5,1,Pin_1*%
%TO.N,SDA_5V*%
X159750000Y-43282500D03*
D59*
%TO.P,J5,2,Pin_2*%
%TO.N,SCL_5V*%
X162250000Y-43282500D03*
%TO.P,J5,3,Pin_3*%
%TO.N,+5V*%
X164750000Y-43282500D03*
%TO.P,J5,4,Pin_4*%
%TO.N,GND*%
X167250000Y-43282500D03*
%TD*%
D23*
%TO.P,R43,1*%
%TO.N,Net-(C38-Pad2)*%
X246657500Y-67500000D03*
%TO.P,R43,2*%
%TO.N,Net-(U13-RXP)*%
X246657500Y-69150000D03*
%TD*%
D13*
%TO.P,R30,1*%
%TO.N,Net-(D13-A)*%
X176725000Y-74750000D03*
%TO.P,R30,2*%
%TO.N,Net-(U6-PC13)*%
X175075000Y-74750000D03*
%TD*%
D58*
%TO.P,J26,1,Pin_1*%
%TO.N,GND*%
X162400000Y-64100000D03*
D59*
%TO.P,J26,2,Pin_2*%
%TO.N,+5V*%
X164900000Y-64100000D03*
%TO.P,J26,3,Pin_3*%
%TO.N,uC_RX2*%
X167400000Y-64100000D03*
%TO.P,J26,4,Pin_4*%
%TO.N,uC_TX2*%
X169900000Y-64100000D03*
%TD*%
D46*
%TO.P,SW1,1,1*%
%TO.N,GND*%
X150350000Y-50750000D03*
X156150000Y-50750000D03*
%TO.P,SW1,2,2*%
%TO.N,BUTTON_SET_IN*%
X150350000Y-54750000D03*
X156150000Y-54750000D03*
%TD*%
D71*
%TO.P,J17,1,VBUS*%
%TO.N,Net-(J17-VBUS)*%
X232050000Y-42500000D03*
D72*
%TO.P,J17,2,D-*%
%TO.N,Net-(J17-D-)*%
X232850000Y-40750000D03*
%TO.P,J17,3,D+*%
%TO.N,Net-(J17-D+)*%
X233650000Y-42500000D03*
%TO.P,J17,4,ID*%
%TO.N,unconnected-(J17-ID-Pad4)*%
X234450000Y-40750000D03*
%TO.P,J17,5,GND*%
%TO.N,GND*%
X235250000Y-42500000D03*
D73*
%TO.P,J17,6,Shield*%
%TO.N,unconnected-(J17-Shield-Pad6)*%
X230000000Y-41625000D03*
X237300000Y-41625000D03*
%TD*%
D29*
%TO.P,R28,1*%
%TO.N,Net-(U6-PH0)*%
X181540000Y-74000000D03*
%TO.P,R28,2*%
%TO.N,Net-(U6-PH1)*%
X182560000Y-74000000D03*
%TD*%
D27*
%TO.P,D5,1,K*%
%TO.N,+5V*%
X177250000Y-84250000D03*
%TO.P,D5,2,A*%
%TO.N,Net-(D5-A)*%
X173250000Y-84250000D03*
%TD*%
D23*
%TO.P,R11,1*%
%TO.N,Net-(D3-A)*%
X188000000Y-52775000D03*
%TO.P,R11,2*%
%TO.N,LED_B*%
X188000000Y-54425000D03*
%TD*%
D13*
%TO.P,R39,1*%
%TO.N,+5V*%
X163500000Y-46500000D03*
%TO.P,R39,2*%
%TO.N,SDA_5V*%
X161850000Y-46500000D03*
%TD*%
D23*
%TO.P,R41,1*%
%TO.N,TD+*%
X249657500Y-67500000D03*
%TO.P,R41,2*%
%TO.N,Net-(U13-TXP)*%
X249657500Y-69150000D03*
%TD*%
D16*
%TO.P,R65,1*%
%TO.N,Net-(D18-K)*%
X234925000Y-53500000D03*
%TO.P,R65,2*%
%TO.N,uC_TX*%
X236575000Y-53500000D03*
%TD*%
D54*
%TO.P,R60,1*%
%TO.N,DISPLAY_BG_LED*%
X231125000Y-65825000D03*
%TO.P,R60,2*%
%TO.N,Net-(Q6-B)*%
X231125000Y-64175000D03*
%TD*%
D14*
%TO.P,C13,1*%
%TO.N,Net-(U9-~{DTR})*%
X235975000Y-45500000D03*
%TO.P,C13,2*%
%TO.N,rst*%
X237525000Y-45500000D03*
%TD*%
D23*
%TO.P,R49,1*%
%TO.N,+3.3VA*%
X252000000Y-64250000D03*
%TO.P,R49,2*%
%TO.N,TD-*%
X252000000Y-65900000D03*
%TD*%
D27*
%TO.P,D15,1,K*%
%TO.N,+5V*%
X193500000Y-84250000D03*
%TO.P,D15,2,A*%
%TO.N,Net-(D15-A)*%
X189500000Y-84250000D03*
%TD*%
D54*
%TO.P,R29,1*%
%TO.N,+5V*%
X173000000Y-79225000D03*
%TO.P,R29,2*%
%TO.N,5V_voltage_detect*%
X173000000Y-77575000D03*
%TD*%
D74*
%TO.P,J20,*%
%TO.N,*%
X227467500Y-121000000D03*
%TO.P,J20,R1*%
%TO.N,unconnected-(J20-PadR1)*%
X221967500Y-118000000D03*
%TO.P,J20,R2*%
%TO.N,unconnected-(J20-PadR2)*%
X221967500Y-121000000D03*
%TO.P,J20,S*%
%TO.N,CURRENT_SENSOR_SUPPLY_1.65V*%
X226467500Y-112500000D03*
D75*
%TO.P,J20,T*%
%TO.N,CURRENT_SENSOR_A*%
X221967500Y-114000000D03*
%TD*%
D74*
%TO.P,J12,*%
%TO.N,*%
X236467500Y-121000000D03*
%TO.P,J12,R1*%
%TO.N,unconnected-(J12-PadR1)*%
X230967500Y-118000000D03*
%TO.P,J12,R2*%
%TO.N,unconnected-(J12-PadR2)*%
X230967500Y-121000000D03*
%TO.P,J12,S*%
%TO.N,CURRENT_SENSOR_SUPPLY_1.65V*%
X235467500Y-112500000D03*
D75*
%TO.P,J12,T*%
%TO.N,CURRENT_SENSOR_B*%
X230967500Y-114000000D03*
%TD*%
D74*
%TO.P,J18,*%
%TO.N,*%
X245467500Y-121000000D03*
%TO.P,J18,R1*%
%TO.N,unconnected-(J18-PadR1)*%
X239967500Y-118000000D03*
%TO.P,J18,R2*%
%TO.N,unconnected-(J18-PadR2)*%
X239967500Y-121000000D03*
%TO.P,J18,S*%
%TO.N,CURRENT_SENSOR_SUPPLY_1.65V*%
X244467500Y-112500000D03*
D75*
%TO.P,J18,T*%
%TO.N,CURRENT_SENSOR_C*%
X239967500Y-114000000D03*
%TD*%
D76*
%TO.N,GND*%
X253600000Y-108200000D03*
X240525000Y-101025000D03*
X176000000Y-117400000D03*
X245900000Y-83150000D03*
X253500000Y-113000000D03*
X252900000Y-93000000D03*
X248100000Y-84850000D03*
X244250000Y-73250000D03*
X153200000Y-57750000D03*
X255400000Y-103500000D03*
X223000000Y-52500000D03*
X179600000Y-69800000D03*
X187900000Y-117400000D03*
X252500000Y-61000000D03*
X248500000Y-59750000D03*
X238800000Y-70400000D03*
X188200000Y-76900000D03*
X261300000Y-50300000D03*
X242500000Y-67250000D03*
X263300000Y-93800000D03*
X256750000Y-72750000D03*
X194800000Y-69000000D03*
X252100000Y-107400000D03*
X239000000Y-75800000D03*
X167600000Y-59600000D03*
X171500000Y-68150000D03*
X233000000Y-67200000D03*
X257000000Y-62750000D03*
X245250000Y-67750000D03*
X249750000Y-72750000D03*
X153300000Y-50750000D03*
X242200000Y-99500000D03*
X180250000Y-74000000D03*
X263900000Y-89000000D03*
X214600000Y-115500000D03*
X264000000Y-85100000D03*
X150000000Y-86750000D03*
X254100000Y-98500000D03*
X233550000Y-49620000D03*
X175800000Y-77800000D03*
X248000000Y-91500000D03*
X244100000Y-75700000D03*
X185800000Y-74000000D03*
X225900000Y-49700000D03*
X194600000Y-106300000D03*
X244000000Y-67250000D03*
X251500000Y-61000000D03*
X221500000Y-99500000D03*
X228900000Y-45500000D03*
X209300000Y-108200000D03*
X193300000Y-49400000D03*
X239000000Y-77800000D03*
X239000000Y-76800000D03*
X244100000Y-94900000D03*
X257250000Y-74500000D03*
X166000000Y-87000000D03*
X229000000Y-50000000D03*
X167700000Y-56600000D03*
X166000000Y-72400000D03*
X245750000Y-72750000D03*
X252500000Y-72500000D03*
X175000000Y-53300000D03*
X226200000Y-52500000D03*
X191700000Y-70100000D03*
X232300000Y-78900000D03*
X182000000Y-86500000D03*
X153200000Y-71750000D03*
X211400000Y-108200000D03*
X257500000Y-63250000D03*
X215000000Y-54300000D03*
X153100000Y-64750000D03*
X184600000Y-48000000D03*
X240250000Y-67250000D03*
X163900000Y-117500000D03*
X260400000Y-45500000D03*
X158600000Y-77500000D03*
X239025000Y-65725000D03*
X223500000Y-101600000D03*
X214500000Y-39900000D03*
X239000000Y-74800000D03*
X174500000Y-52100000D03*
X173200000Y-72800000D03*
X226200000Y-39100000D03*
X176600000Y-69500000D03*
X210300000Y-68500000D03*
X203300000Y-106900000D03*
X217500000Y-106750000D03*
X184700000Y-49500000D03*
X189750000Y-76850000D03*
X202800000Y-115500000D03*
X246250000Y-76500000D03*
X242200000Y-102550000D03*
X176900000Y-54600000D03*
X185800000Y-69700000D03*
X194800000Y-58200000D03*
X209900000Y-92200000D03*
X170600000Y-79300000D03*
X216800000Y-92200000D03*
X174200000Y-48000000D03*
X250500000Y-61000000D03*
X239000000Y-73300000D03*
X219500000Y-101300000D03*
X248750000Y-72750000D03*
X256500000Y-62250000D03*
X239000000Y-67250000D03*
X242600000Y-84300000D03*
X249700000Y-87000000D03*
X203600000Y-52600000D03*
%TO.N,+5V*%
X164200000Y-47850000D03*
X204900000Y-87700000D03*
X246400000Y-93800000D03*
X247300000Y-93800000D03*
X204100000Y-86900000D03*
X203400000Y-86200000D03*
X245500000Y-93800000D03*
%TO.N,+3.3V*%
X157150000Y-73300000D03*
X192500000Y-59200000D03*
X203500000Y-68600000D03*
X188200000Y-69100000D03*
X259975000Y-86550000D03*
X249400000Y-74700000D03*
X253812500Y-71900000D03*
X259975000Y-87500000D03*
X193100000Y-70100000D03*
X187000000Y-69900000D03*
X205700000Y-92800000D03*
X261000000Y-93600000D03*
X187287500Y-73262500D03*
X165200000Y-54700000D03*
X212500000Y-92800000D03*
X190600000Y-74200000D03*
X220800000Y-52500000D03*
X160500000Y-53500000D03*
X184900000Y-69000000D03*
X258900000Y-108200000D03*
X261000000Y-96950000D03*
X174000000Y-56100000D03*
X229500000Y-57100000D03*
X160700000Y-59600000D03*
X173000000Y-71200000D03*
X165850000Y-50150000D03*
X253812500Y-73500000D03*
X224500000Y-57300000D03*
X162350000Y-50150000D03*
X217900000Y-101200000D03*
X245000000Y-77750000D03*
X160700000Y-56700000D03*
X260900000Y-90100000D03*
X229600000Y-52200000D03*
X181300000Y-69900000D03*
X171000000Y-52100000D03*
%TO.N,rst*%
X206900000Y-58500000D03*
X180200000Y-67600000D03*
%TO.N,GND1*%
X240000000Y-61250000D03*
%TO.N,RC*%
X243750000Y-64250000D03*
X243750000Y-62250000D03*
%TO.N,DS18B20_DATA*%
X184550000Y-54600000D03*
%TO.N,DIG_IN_B*%
X212600000Y-90700000D03*
X195100000Y-64100000D03*
%TO.N,DIG_IN_A*%
X195300000Y-65600000D03*
X206200000Y-91000000D03*
%TO.N,+3.3VA*%
X247750000Y-73500000D03*
X249000000Y-63750000D03*
X251000000Y-71000000D03*
X253000000Y-64300000D03*
X253200000Y-69400000D03*
X250500000Y-63410000D03*
%TO.N,MISO*%
X253000000Y-86500000D03*
X249500000Y-77750000D03*
%TO.N,Net-(J17-D-)*%
X232750000Y-45250000D03*
%TO.N,D_OUT_C*%
X170500000Y-60900000D03*
X181800000Y-82500000D03*
%TO.N,D_OUT_A*%
X149500000Y-82400000D03*
X170900000Y-59200000D03*
%TO.N,D_OUT_B*%
X165300000Y-82200000D03*
X171400000Y-60300000D03*
%TO.N,SD_CMD*%
X180000000Y-64000000D03*
X219200000Y-57400000D03*
%TO.N,uC_RX*%
X178000000Y-52100000D03*
X234500000Y-58250000D03*
%TO.N,uC_TX*%
X233500000Y-57250000D03*
X181500000Y-52100000D03*
%TO.N,SD_SCK*%
X180000000Y-62250000D03*
X221900000Y-55700000D03*
%TO.N,SD_D2*%
X178400000Y-59800000D03*
X212700000Y-54200000D03*
%TO.N,SD_D3*%
X180000000Y-60500000D03*
X218400000Y-55300000D03*
%TO.N,SCK*%
X254250000Y-88000000D03*
X247500000Y-76750000D03*
%TO.N,SDA_1*%
X163500000Y-54750000D03*
X178250000Y-66750000D03*
%TO.N,SCL_1*%
X167000000Y-54750000D03*
X177500000Y-65750000D03*
%TO.N,5V_voltage_detect*%
X177900000Y-68400000D03*
X173000000Y-76100000D03*
%TO.N,IN_voltage_detect*%
X192600000Y-66150000D03*
X196250000Y-103750000D03*
%TO.N,SD_DET*%
X228100000Y-57400000D03*
X196250000Y-59250000D03*
%TO.N,SDA_2*%
X186600000Y-63400000D03*
%TO.N,SCL_2*%
X188200000Y-62600000D03*
%TO.N,MAX485_RE*%
X184800000Y-57900000D03*
X195200000Y-50000000D03*
%TO.N,ETH_CS*%
X253000000Y-91000000D03*
X247250000Y-78000000D03*
%TO.N,MAX485_DE*%
X185900000Y-58800000D03*
X195200000Y-51200000D03*
%TO.N,PA4*%
X187900000Y-67500000D03*
%TO.N,MAX485_DI*%
X182800000Y-58800000D03*
X195200000Y-52500000D03*
%TO.N,CURRENT_SENSOR_B*%
X184000000Y-66200000D03*
%TO.N,MAX485_RO*%
X195200000Y-48700000D03*
X181400000Y-57900000D03*
%TO.N,CURRENT_SENSOR_C*%
X182100000Y-66900000D03*
%TO.N,CURRENT_SENSOR_A*%
X185900000Y-66900000D03*
%TD*%
D77*
%TO.N,GND*%
X239000000Y-73300000D02*
X239000000Y-77800000D01*
D78*
X186000000Y-49462500D02*
X184737500Y-49462500D01*
X223500000Y-102525000D02*
X223500000Y-101600000D01*
D77*
X215510000Y-53790000D02*
X215000000Y-54300000D01*
X240040000Y-74710000D02*
X240640000Y-74110000D01*
X156150000Y-57750000D02*
X153200000Y-57750000D01*
D79*
X240250000Y-67250000D02*
X239000000Y-67250000D01*
D77*
X219500000Y-102450000D02*
X219500000Y-101300000D01*
X185825000Y-74775000D02*
X185825000Y-74000000D01*
X180825000Y-71675000D02*
X180825000Y-70842590D01*
X252500000Y-72500000D02*
X251322500Y-72500000D01*
X211175000Y-106750000D02*
X211175000Y-107975000D01*
X209250000Y-106750000D02*
X209250000Y-108150000D01*
X244225000Y-96250000D02*
X244225000Y-95025000D01*
X252000000Y-92975000D02*
X252875000Y-92975000D01*
X166000000Y-86910000D02*
X166000000Y-87000000D01*
X176825000Y-56325000D02*
X176825000Y-54675000D01*
X249750000Y-86950000D02*
X249700000Y-87000000D01*
X180825000Y-71675000D02*
X180825000Y-73425000D01*
X244000000Y-82750000D02*
X244250000Y-82750000D01*
X238800000Y-71750000D02*
X238800000Y-70400000D01*
X156150000Y-71750000D02*
X156525000Y-71375000D01*
D79*
X245250000Y-67750000D02*
X245250000Y-69057500D01*
D77*
X185800000Y-75020000D02*
X185800000Y-74800000D01*
X189750000Y-75775000D02*
X189750000Y-76850000D01*
D79*
X240250000Y-65725000D02*
X239025000Y-65725000D01*
D77*
X242837500Y-73160000D02*
X244160000Y-73160000D01*
X153200000Y-57750000D02*
X150350000Y-57750000D01*
D79*
X251500000Y-61000000D02*
X251500000Y-61770000D01*
D77*
X245500000Y-82750000D02*
X245850000Y-83100000D01*
X182000000Y-86500000D02*
X182450000Y-86500000D01*
D78*
X158600000Y-76675000D02*
X158600000Y-77500000D01*
D77*
X242837500Y-75660000D02*
X244060000Y-75660000D01*
X175187500Y-115500000D02*
X175187500Y-116587500D01*
X251950000Y-107250000D02*
X252100000Y-107400000D01*
X201437500Y-115500000D02*
X202800000Y-115500000D01*
X209850000Y-92250000D02*
X209900000Y-92200000D01*
X174650000Y-69500000D02*
X176600000Y-69500000D01*
X167750000Y-85160000D02*
X166000000Y-86910000D01*
X175000000Y-54450000D02*
X175000000Y-53300000D01*
X213437500Y-115500000D02*
X214600000Y-115500000D01*
X244225000Y-95025000D02*
X244100000Y-94900000D01*
X175187500Y-116587500D02*
X176000000Y-117400000D01*
X260375000Y-47000000D02*
X260375000Y-45525000D01*
X151562500Y-85200000D02*
X150012500Y-86750000D01*
X253625000Y-109500000D02*
X253625000Y-108225000D01*
X221500000Y-101050000D02*
X221500000Y-99500000D01*
X248610000Y-84850000D02*
X249750000Y-83710000D01*
X244060000Y-75660000D02*
X244100000Y-75700000D01*
X240640000Y-74110000D02*
X240900000Y-74110000D01*
X215825000Y-92250000D02*
X216750000Y-92250000D01*
X240040000Y-74750000D02*
X239050000Y-74750000D01*
D79*
X250500000Y-61770000D02*
X252500000Y-61770000D01*
D77*
X188250000Y-75775000D02*
X188250000Y-76850000D01*
X245875000Y-83125000D02*
X245900000Y-83150000D01*
X244250000Y-82750000D02*
X242700000Y-84300000D01*
D78*
X186000000Y-49462500D02*
X192000000Y-49462500D01*
X193237500Y-49462500D02*
X193300000Y-49400000D01*
D77*
X166375000Y-56700000D02*
X166375000Y-57500000D01*
D79*
X252500000Y-61000000D02*
X250500000Y-61000000D01*
D77*
X245232500Y-69075000D02*
X245750000Y-69592500D01*
X249840000Y-72660000D02*
X249750000Y-72750000D01*
X150012500Y-86750000D02*
X150000000Y-86750000D01*
X166375000Y-56000000D02*
X166375000Y-56700000D01*
X248750000Y-71247500D02*
X248750000Y-72750000D01*
X213625000Y-38690000D02*
X213625000Y-39025000D01*
X251322500Y-72500000D02*
X251162500Y-72660000D01*
X249500000Y-91525000D02*
X248025000Y-91525000D01*
X248100000Y-84850000D02*
X248610000Y-84850000D01*
X170400000Y-69125000D02*
X170525000Y-69125000D01*
D79*
X248525000Y-59775000D02*
X248500000Y-59750000D01*
D77*
X166375000Y-56700000D02*
X167600000Y-56700000D01*
X204425000Y-106750000D02*
X203450000Y-106750000D01*
D79*
X248525000Y-61000000D02*
X248525000Y-59775000D01*
D77*
X209075000Y-92250000D02*
X209850000Y-92250000D01*
X253625000Y-108225000D02*
X253600000Y-108200000D01*
D79*
X250500000Y-61000000D02*
X250500000Y-61770000D01*
D77*
X176825000Y-54675000D02*
X176900000Y-54600000D01*
D79*
X229725000Y-45500000D02*
X228900000Y-45500000D01*
D77*
X173150000Y-48000000D02*
X174200000Y-48000000D01*
X233000000Y-66150000D02*
X233000000Y-67200000D01*
X171500000Y-79225000D02*
X170675000Y-79225000D01*
X245900000Y-83150000D02*
X245900000Y-80692410D01*
X167000000Y-72400000D02*
X166000000Y-72400000D01*
D79*
X229500000Y-49500000D02*
X229000000Y-50000000D01*
D77*
X163437500Y-115500000D02*
X163437500Y-117037500D01*
X240020000Y-76750000D02*
X239050000Y-76750000D01*
X239050000Y-77750000D02*
X239000000Y-77800000D01*
X260375000Y-49375000D02*
X261300000Y-50300000D01*
D79*
X240300000Y-65775000D02*
X240250000Y-65725000D01*
D77*
X240020000Y-75750000D02*
X239050000Y-75750000D01*
X215975000Y-53790000D02*
X215510000Y-53790000D01*
X240020000Y-77750000D02*
X239050000Y-77750000D01*
X185825000Y-71675000D02*
X185825000Y-69725000D01*
D79*
X242500000Y-67250000D02*
X242500000Y-65775000D01*
D77*
X156150000Y-71750000D02*
X153200000Y-71750000D01*
X216075000Y-106750000D02*
X217500000Y-106750000D01*
X180825000Y-70842590D02*
X179782410Y-69800000D01*
X173225000Y-72775000D02*
X173200000Y-72800000D01*
X246250000Y-79572500D02*
X246250000Y-76500000D01*
D79*
X194750000Y-58250000D02*
X194800000Y-58200000D01*
D77*
X239050000Y-73250000D02*
X239000000Y-73300000D01*
X253625000Y-109500000D02*
X253625000Y-111750000D01*
X245900000Y-80692410D02*
X246250000Y-80342410D01*
X186937500Y-116437500D02*
X187900000Y-117400000D01*
X190000000Y-69500000D02*
X191100000Y-69500000D01*
X248025000Y-91525000D02*
X248000000Y-91500000D01*
D79*
X245250000Y-69057500D02*
X245232500Y-69075000D01*
D77*
X263300000Y-92100000D02*
X263300000Y-93800000D01*
D78*
X203305000Y-52305000D02*
X203600000Y-52600000D01*
D77*
X252875000Y-92975000D02*
X252900000Y-93000000D01*
X185825000Y-69725000D02*
X185800000Y-69700000D01*
X174762500Y-76500000D02*
X174762500Y-76762500D01*
X166375000Y-59600000D02*
X167600000Y-59600000D01*
X211175000Y-107975000D02*
X211400000Y-108200000D01*
X223025000Y-52525000D02*
X223000000Y-52500000D01*
X227125000Y-39140000D02*
X226240000Y-39140000D01*
X240040000Y-74750000D02*
X240040000Y-74710000D01*
X150350000Y-50750000D02*
X156150000Y-50750000D01*
X227125000Y-49490000D02*
X226110000Y-49490000D01*
X170675000Y-79225000D02*
X170600000Y-79300000D01*
X186937500Y-115500000D02*
X186937500Y-116437500D01*
X260375000Y-45525000D02*
X260400000Y-45500000D01*
X253625000Y-111750000D02*
X253625000Y-112875000D01*
X245750000Y-69592500D02*
X245750000Y-71247500D01*
X180825000Y-73425000D02*
X180250000Y-74000000D01*
X193775000Y-69000000D02*
X194800000Y-69000000D01*
X251162500Y-72660000D02*
X249840000Y-72660000D01*
X240040000Y-73250000D02*
X239050000Y-73250000D01*
X150350000Y-50750000D02*
X153300000Y-50750000D01*
X242700000Y-84300000D02*
X242600000Y-84300000D01*
X249750000Y-83710000D02*
X249750000Y-86950000D01*
D79*
X242500000Y-65775000D02*
X240300000Y-65775000D01*
D77*
X226175000Y-53790000D02*
X226175000Y-52525000D01*
X209250000Y-108150000D02*
X209300000Y-108200000D01*
X150350000Y-71750000D02*
X153200000Y-71750000D01*
X174250000Y-72775000D02*
X173225000Y-72775000D01*
X226240000Y-39140000D02*
X226200000Y-39100000D01*
D79*
X229500000Y-48775000D02*
X229500000Y-49500000D01*
X245250000Y-67750000D02*
X244750000Y-67250000D01*
D77*
X255700000Y-74500000D02*
X257250000Y-74500000D01*
D79*
X242500000Y-67250000D02*
X240250000Y-67250000D01*
D77*
X239050000Y-75750000D02*
X239000000Y-75800000D01*
X179782410Y-69800000D02*
X179600000Y-69800000D01*
X167600000Y-56700000D02*
X167700000Y-56600000D01*
X223025000Y-53790000D02*
X223025000Y-52525000D01*
D78*
X262875000Y-85100000D02*
X264000000Y-85100000D01*
D77*
X156150000Y-64750000D02*
X153100000Y-64750000D01*
X203450000Y-106750000D02*
X203300000Y-106900000D01*
X244250000Y-82750000D02*
X245500000Y-82750000D01*
X195925000Y-106250000D02*
X194650000Y-106250000D01*
X183575000Y-48000000D02*
X184600000Y-48000000D01*
X246250000Y-80342410D02*
X246250000Y-79572500D01*
X178300000Y-75040000D02*
X178300000Y-75032410D01*
X170525000Y-69125000D02*
X171500000Y-68150000D01*
X245750000Y-71247500D02*
X245750000Y-72750000D01*
X216750000Y-92250000D02*
X216800000Y-92200000D01*
X153300000Y-50750000D02*
X156150000Y-50750000D01*
X185800000Y-74800000D02*
X185825000Y-74775000D01*
X244160000Y-73160000D02*
X244250000Y-73250000D01*
X239050000Y-74750000D02*
X239000000Y-74800000D01*
X260375000Y-49000000D02*
X260375000Y-49375000D01*
X262750000Y-89000000D02*
X263900000Y-89000000D01*
X182450000Y-86500000D02*
X183750000Y-85200000D01*
X226110000Y-49490000D02*
X225900000Y-49700000D01*
X226175000Y-52525000D02*
X226200000Y-52500000D01*
X234050000Y-43700000D02*
X235250000Y-42500000D01*
D79*
X239000000Y-67250000D02*
X238750000Y-67250000D01*
D77*
X253500000Y-103500000D02*
X255400000Y-103500000D01*
X179340000Y-74000000D02*
X178300000Y-75040000D01*
X242787500Y-74110000D02*
X242837500Y-74160000D01*
X185800000Y-75020000D02*
X185800000Y-74000000D01*
D79*
X252500000Y-61000000D02*
X252500000Y-61770000D01*
D77*
X245850000Y-83100000D02*
X245875000Y-83125000D01*
D78*
X202225000Y-52305000D02*
X203305000Y-52305000D01*
D77*
X191100000Y-69500000D02*
X191700000Y-70100000D01*
X174762500Y-76762500D02*
X175800000Y-77800000D01*
X240900000Y-74110000D02*
X242787500Y-74110000D01*
D79*
X244000000Y-67250000D02*
X242500000Y-67250000D01*
D77*
X194650000Y-106250000D02*
X194600000Y-106300000D01*
X213625000Y-39025000D02*
X214500000Y-39900000D01*
X240040000Y-73250000D02*
X240900000Y-74110000D01*
D79*
X240250000Y-67250000D02*
X240250000Y-65725000D01*
D77*
X188250000Y-76850000D02*
X188200000Y-76900000D01*
X180250000Y-74000000D02*
X179340000Y-74000000D01*
D79*
X244750000Y-67250000D02*
X244000000Y-67250000D01*
D77*
X163437500Y-117037500D02*
X163900000Y-117500000D01*
X250975000Y-107250000D02*
X251950000Y-107250000D01*
D78*
X184737500Y-49462500D02*
X184700000Y-49500000D01*
X253050000Y-98500000D02*
X254100000Y-98500000D01*
D77*
X239050000Y-76750000D02*
X239000000Y-76800000D01*
X255275000Y-72750000D02*
X256750000Y-72750000D01*
D79*
X193525000Y-58250000D02*
X194750000Y-58250000D01*
D77*
X150350000Y-64750000D02*
X153100000Y-64750000D01*
X234050000Y-47170000D02*
X234050000Y-43700000D01*
D78*
X192000000Y-49462500D02*
X193237500Y-49462500D01*
D77*
X253625000Y-112875000D02*
X253500000Y-113000000D01*
%TO.N,+12V*%
X195925000Y-111325000D02*
X194225000Y-113025000D01*
X194225000Y-113025000D02*
X194225000Y-118020000D01*
D80*
X211455000Y-123250000D02*
X209000000Y-120795000D01*
X250282500Y-120750000D02*
X247782500Y-123250000D01*
X199455000Y-123250000D02*
X197000000Y-120795000D01*
X211455000Y-123250000D02*
X199455000Y-123250000D01*
X248025000Y-104505000D02*
X248025000Y-107250000D01*
D77*
X195925000Y-107750000D02*
X195925000Y-111325000D01*
D80*
X250282500Y-120750000D02*
X250282500Y-109507500D01*
X246825000Y-103305000D02*
X249705000Y-103305000D01*
X247782500Y-123250000D02*
X211455000Y-123250000D01*
X250282500Y-109507500D02*
X248025000Y-107250000D01*
X246825000Y-103305000D02*
X248025000Y-104505000D01*
X249705000Y-103305000D02*
X249900000Y-103500000D01*
D77*
X194225000Y-118020000D02*
X197000000Y-120795000D01*
D79*
%TO.N,+5V*%
X165800000Y-81200000D02*
X162350000Y-81200000D01*
D80*
X193500000Y-84250000D02*
X201450000Y-84250000D01*
D79*
X162000000Y-81550000D02*
X162350000Y-81200000D01*
D80*
X247175000Y-96250000D02*
X249500000Y-96250000D01*
X247175000Y-98395000D02*
X246825000Y-98745000D01*
D79*
X174200000Y-81200000D02*
X177250000Y-84250000D01*
D80*
X247300000Y-93800000D02*
X248825000Y-93800000D01*
D79*
X180067500Y-40100000D02*
X183250000Y-43282500D01*
D80*
X245500000Y-93800000D02*
X247300000Y-93800000D01*
D77*
X163500000Y-46500000D02*
X164887500Y-46500000D01*
D79*
X169800000Y-40100000D02*
X167932500Y-40100000D01*
D80*
X258479720Y-92100000D02*
X258700000Y-92100000D01*
D79*
X164700000Y-40100000D02*
X164750000Y-40150000D01*
X162350000Y-81200000D02*
X162125000Y-81425000D01*
D77*
X164925000Y-47125000D02*
X164200000Y-47850000D01*
D79*
X161000000Y-84500000D02*
X161250000Y-84250000D01*
X149700000Y-81550000D02*
X162000000Y-81550000D01*
X165750000Y-81150000D02*
X165750000Y-78170000D01*
X161250000Y-82300000D02*
X161250000Y-84250000D01*
D80*
X247175000Y-96250000D02*
X247175000Y-98395000D01*
D79*
X165800000Y-81200000D02*
X173100000Y-81200000D01*
X193000000Y-89550000D02*
X193000000Y-84750000D01*
X190450000Y-81200000D02*
X193500000Y-84250000D01*
X172800000Y-40100000D02*
X172750000Y-40150000D01*
X146900000Y-48800000D02*
X155600000Y-40100000D01*
X169800000Y-40100000D02*
X172800000Y-40100000D01*
X193000000Y-84750000D02*
X193500000Y-84250000D01*
D77*
X164887500Y-46500000D02*
X164925000Y-46537500D01*
D80*
X247300000Y-93800000D02*
X247300000Y-96125000D01*
D79*
X167932500Y-40100000D02*
X164700000Y-40100000D01*
D80*
X252000000Y-94525000D02*
X252000000Y-96250000D01*
D79*
X152650000Y-81550000D02*
X149700000Y-81550000D01*
X249075000Y-94050000D02*
X249500000Y-94475000D01*
X202225000Y-42925000D02*
X199800000Y-40500000D01*
X162125000Y-81425000D02*
X161950000Y-81600000D01*
D80*
X248825000Y-93800000D02*
X249500000Y-94475000D01*
D79*
X162125000Y-81425000D02*
X161250000Y-82300000D01*
D77*
X173000000Y-79225000D02*
X173000000Y-81100000D01*
D80*
X254329720Y-96250000D02*
X258479720Y-92100000D01*
D79*
X146900000Y-79900000D02*
X146900000Y-48800000D01*
X172750000Y-40150000D02*
X172750000Y-43282500D01*
D77*
X173000000Y-81100000D02*
X173100000Y-81200000D01*
X255250000Y-106250000D02*
X258112500Y-109112500D01*
D79*
X165800000Y-81200000D02*
X165750000Y-81150000D01*
X173100000Y-81200000D02*
X174200000Y-81200000D01*
D77*
X252750000Y-106250000D02*
X255250000Y-106250000D01*
D79*
X183250000Y-43282500D02*
X186032500Y-40500000D01*
D80*
X246825000Y-98745000D02*
X249655000Y-98745000D01*
D79*
X202225000Y-48495000D02*
X202225000Y-42925000D01*
D77*
X258112500Y-111225000D02*
X258637500Y-111750000D01*
D79*
X177000000Y-84500000D02*
X177250000Y-84250000D01*
D80*
X252000000Y-96250000D02*
X254329720Y-96250000D01*
D79*
X172800000Y-40100000D02*
X180067500Y-40100000D01*
X161000000Y-89550000D02*
X161000000Y-84500000D01*
D77*
X251750000Y-105250000D02*
X252750000Y-106250000D01*
D80*
X201450000Y-84250000D02*
X203400000Y-86200000D01*
D79*
X149700000Y-81550000D02*
X148550000Y-81550000D01*
D80*
X249500000Y-94475000D02*
X249500000Y-96250000D01*
D79*
X180300000Y-81200000D02*
X190450000Y-81200000D01*
D77*
X249900000Y-98500000D02*
X251750000Y-100350000D01*
D80*
X249655000Y-98745000D02*
X249900000Y-98500000D01*
D77*
X164925000Y-46500000D02*
X164925000Y-47125000D01*
D79*
X177250000Y-84250000D02*
X180300000Y-81200000D01*
X186032500Y-40500000D02*
X199800000Y-40500000D01*
X177000000Y-89550000D02*
X177000000Y-84500000D01*
D80*
X203400000Y-86200000D02*
X204900000Y-87700000D01*
D79*
X164750000Y-40150000D02*
X164750000Y-43282500D01*
D77*
X258112500Y-109112500D02*
X258112500Y-111225000D01*
D80*
X249500000Y-96250000D02*
X252000000Y-96250000D01*
X247300000Y-96125000D02*
X247175000Y-96250000D01*
D79*
X155600000Y-40100000D02*
X164700000Y-40100000D01*
X148550000Y-81550000D02*
X146900000Y-79900000D01*
D77*
X251750000Y-100350000D02*
X251750000Y-105250000D01*
D78*
%TO.N,Net-(D1-A)*%
X186000000Y-52775000D02*
X186000000Y-51337500D01*
D77*
%TO.N,Net-(D2-A)*%
X255500000Y-111750000D02*
X256987500Y-111750000D01*
D78*
%TO.N,Net-(D3-A)*%
X188000000Y-52775000D02*
X188000000Y-51337500D01*
D77*
%TO.N,Net-(J8-Pin_2)*%
X201500000Y-112250000D02*
X200500000Y-113250000D01*
X205000000Y-112250000D02*
X201500000Y-112250000D01*
X200500000Y-113250000D02*
X200500000Y-120795000D01*
X206075000Y-111175000D02*
X205000000Y-112250000D01*
X205730000Y-106405000D02*
X206075000Y-106750000D01*
X206075000Y-106750000D02*
X206075000Y-111175000D01*
X205730000Y-103945000D02*
X205730000Y-106405000D01*
%TO.N,Net-(J9-Pin_2)*%
X212500000Y-107075000D02*
X212500000Y-120795000D01*
X212480000Y-106405000D02*
X212825000Y-106750000D01*
X212480000Y-103945000D02*
X212480000Y-106405000D01*
X212825000Y-106750000D02*
X212500000Y-107075000D01*
%TO.N,Net-(J17-VBUS)*%
X230500000Y-44050000D02*
X232050000Y-42500000D01*
X229500000Y-47225000D02*
X231995000Y-47225000D01*
X232050000Y-47170000D02*
X231721304Y-47170000D01*
X230500000Y-45948696D02*
X230500000Y-44050000D01*
X231100000Y-48120000D02*
X231100000Y-46548696D01*
X231100000Y-46548696D02*
X231025652Y-46474348D01*
X231100000Y-48120000D02*
X232050000Y-47170000D01*
X231995000Y-47225000D02*
X232050000Y-47170000D01*
X231750000Y-42500000D02*
X232050000Y-42500000D01*
X231721304Y-47170000D02*
X231025652Y-46474348D01*
X231025652Y-46474348D02*
X230500000Y-45948696D01*
%TO.N,+3.3V*%
X181325000Y-69925000D02*
X181300000Y-69900000D01*
X165050000Y-50125000D02*
X165050000Y-51875000D01*
X251162500Y-74160000D02*
X253460000Y-74160000D01*
D80*
X253640000Y-74660000D02*
X253800000Y-74500000D01*
X259975000Y-86550000D02*
X259975000Y-87500000D01*
D77*
X162325000Y-50125000D02*
X162350000Y-50150000D01*
D78*
X187112500Y-73087500D02*
X187287500Y-73262500D01*
D80*
X259975000Y-85250000D02*
X259975000Y-86550000D01*
D78*
X191725000Y-58000000D02*
X190000000Y-58000000D01*
D77*
X164925000Y-54425000D02*
X165200000Y-54700000D01*
D80*
X249440000Y-74660000D02*
X249400000Y-74700000D01*
D78*
X186775000Y-72750000D02*
X186725000Y-72800000D01*
D80*
X251162500Y-74660000D02*
X253640000Y-74660000D01*
D77*
X158375000Y-72075000D02*
X157150000Y-73300000D01*
X229562500Y-52237500D02*
X229600000Y-52200000D01*
D78*
X185582236Y-72800000D02*
X185325000Y-72542764D01*
D77*
X181325000Y-71675000D02*
X181325000Y-69925000D01*
X229562500Y-53750000D02*
X229562500Y-52237500D01*
X164925000Y-52000000D02*
X164925000Y-53500000D01*
D78*
X186825000Y-70075000D02*
X187000000Y-69900000D01*
D77*
X220825000Y-52525000D02*
X220800000Y-52500000D01*
D78*
X185325000Y-71675000D02*
X185325000Y-70250305D01*
D79*
X253812500Y-72662500D02*
X253725000Y-72750000D01*
D77*
X165825000Y-50125000D02*
X165850000Y-50150000D01*
X253460000Y-74160000D02*
X253800000Y-74500000D01*
D78*
X174100000Y-56000000D02*
X174000000Y-56100000D01*
D77*
X229562500Y-53750000D02*
X229562500Y-55750000D01*
D79*
X253725000Y-74425000D02*
X253800000Y-74500000D01*
D77*
X165050000Y-50125000D02*
X165825000Y-50125000D01*
D78*
X186775000Y-72750000D02*
X186825000Y-72800000D01*
X184900000Y-69825305D02*
X184900000Y-69000000D01*
D77*
X212480000Y-92820000D02*
X212500000Y-92800000D01*
D80*
X261000000Y-90200000D02*
X261000000Y-92100000D01*
D78*
X186200000Y-72800000D02*
X186250000Y-72750000D01*
X225375000Y-57300000D02*
X224500000Y-57300000D01*
X191975000Y-58675000D02*
X192500000Y-59200000D01*
D77*
X161800000Y-59600000D02*
X160700000Y-59600000D01*
X229562500Y-55750000D02*
X229562500Y-57037500D01*
D80*
X260900000Y-90100000D02*
X261000000Y-90200000D01*
X259800000Y-89000000D02*
X260900000Y-90100000D01*
D78*
X175000000Y-56000000D02*
X176000000Y-56000000D01*
D77*
X258812500Y-109500000D02*
X258812500Y-108287500D01*
D80*
X261000000Y-98400000D02*
X261000000Y-96950000D01*
D77*
X164925000Y-53500000D02*
X164925000Y-54425000D01*
X158600000Y-72075000D02*
X158375000Y-72075000D01*
X161350000Y-50250000D02*
X161475000Y-50125000D01*
D78*
X190575000Y-74225000D02*
X190600000Y-74200000D01*
X185325000Y-72542764D02*
X185325000Y-71675000D01*
X173025000Y-71225000D02*
X173000000Y-71200000D01*
D77*
X161675000Y-52000000D02*
X161675000Y-53500000D01*
D78*
X191975000Y-58250000D02*
X191975000Y-58675000D01*
X186325000Y-72675000D02*
X186325000Y-71675000D01*
X174250000Y-71225000D02*
X173025000Y-71225000D01*
D77*
X220825000Y-53790000D02*
X220825000Y-52525000D01*
X161475000Y-50125000D02*
X162325000Y-50125000D01*
D78*
X192225000Y-69000000D02*
X192225000Y-69225000D01*
X176000000Y-56000000D02*
X176325000Y-56325000D01*
X175000000Y-56000000D02*
X174100000Y-56000000D01*
D80*
X253812500Y-73500000D02*
X253812500Y-71900000D01*
X251162500Y-74660000D02*
X249440000Y-74660000D01*
D77*
X258812500Y-108287500D02*
X258900000Y-108200000D01*
D80*
X253812500Y-75076003D02*
X253812500Y-73500000D01*
D78*
X174250000Y-70400000D02*
X174650000Y-70000000D01*
D80*
X261000000Y-93600000D02*
X261000000Y-92100000D01*
D78*
X189750000Y-74225000D02*
X190575000Y-74225000D01*
D77*
X245750000Y-79572500D02*
X245750000Y-78500000D01*
X253800000Y-74500000D02*
X253800000Y-71012500D01*
D80*
X259975000Y-88825000D02*
X259800000Y-89000000D01*
D77*
X164925000Y-53500000D02*
X165000000Y-53500000D01*
D78*
X190000000Y-69000000D02*
X188300000Y-69000000D01*
D77*
X258812500Y-109500000D02*
X258812500Y-109437500D01*
D78*
X186825000Y-71675000D02*
X186825000Y-70075000D01*
D77*
X253800000Y-71012500D02*
X253812500Y-71000000D01*
D78*
X186825000Y-71675000D02*
X186825000Y-72800000D01*
D77*
X161800000Y-56700000D02*
X161800000Y-56000000D01*
D78*
X186725000Y-72800000D02*
X185582236Y-72800000D01*
X186825000Y-72800000D02*
X187112500Y-73087500D01*
X192225000Y-69225000D02*
X193100000Y-70100000D01*
X186200000Y-72800000D02*
X186325000Y-72675000D01*
X192675000Y-44357500D02*
X193750000Y-43282500D01*
D77*
X218000000Y-102450000D02*
X218000000Y-101300000D01*
X164925000Y-50250000D02*
X165050000Y-50125000D01*
X218000000Y-101300000D02*
X217900000Y-101200000D01*
D80*
X253812500Y-71900000D02*
X253812500Y-71000000D01*
D78*
X191300000Y-69000000D02*
X192225000Y-69000000D01*
D77*
X205730000Y-95055000D02*
X205730000Y-92830000D01*
X205730000Y-92830000D02*
X205700000Y-92800000D01*
X161675000Y-50325000D02*
X161475000Y-50125000D01*
D78*
X191975000Y-58250000D02*
X191725000Y-58000000D01*
X189750000Y-74225000D02*
X188250000Y-74225000D01*
D77*
X161675000Y-52000000D02*
X161675000Y-50325000D01*
X165050000Y-51875000D02*
X164925000Y-52000000D01*
D78*
X185325000Y-70250305D02*
X184900000Y-69825305D01*
X192675000Y-46500000D02*
X192675000Y-44357500D01*
X188250000Y-74225000D02*
X187287500Y-73262500D01*
X185582236Y-72800000D02*
X186200000Y-72800000D01*
X188300000Y-69000000D02*
X188200000Y-69100000D01*
D80*
X259975000Y-87500000D02*
X259975000Y-88825000D01*
D78*
X186250000Y-72750000D02*
X186775000Y-72750000D01*
X190000000Y-69000000D02*
X191300000Y-69000000D01*
D77*
X161800000Y-57500000D02*
X161800000Y-56700000D01*
X251162500Y-74160000D02*
X251162500Y-75160000D01*
X161675000Y-53500000D02*
X160500000Y-53500000D01*
D78*
X174250000Y-71225000D02*
X174250000Y-70400000D01*
D80*
X261000000Y-96950000D02*
X261000000Y-93600000D01*
D77*
X229562500Y-57037500D02*
X229500000Y-57100000D01*
X161800000Y-56700000D02*
X160700000Y-56700000D01*
X212480000Y-95055000D02*
X212480000Y-92820000D01*
X245750000Y-78500000D02*
X245000000Y-77750000D01*
%TO.N,SD_D0*%
X224125000Y-52635050D02*
X223072793Y-51582843D01*
X181325000Y-56325000D02*
X181325000Y-53830636D01*
X223072793Y-51582843D02*
X213782843Y-51582843D01*
X183077818Y-52077818D02*
X184115170Y-52077818D01*
X184115170Y-52077818D02*
X185762352Y-53725000D01*
X185762352Y-53725000D02*
X193125000Y-53725000D01*
X224125000Y-53790000D02*
X224125000Y-52635050D01*
X193125000Y-53725000D02*
X193800000Y-54400000D01*
X210965686Y-54400000D02*
X213782843Y-51582843D01*
X193800000Y-54400000D02*
X210965686Y-54400000D01*
X181325000Y-53830636D02*
X183077818Y-52077818D01*
%TO.N,rst*%
X176167590Y-70500000D02*
X177200000Y-70500000D01*
X234739950Y-59000000D02*
X237675000Y-56064950D01*
X174673696Y-72025000D02*
X175025000Y-71673696D01*
X182305456Y-69105456D02*
X181900000Y-68700000D01*
X168400000Y-74800000D02*
X171175000Y-72025000D01*
X180200000Y-68700000D02*
X181300000Y-68700000D01*
X158600000Y-74800000D02*
X157100000Y-74800000D01*
X158600000Y-73725000D02*
X158600000Y-74800000D01*
X182305456Y-70094544D02*
X182305456Y-69105456D01*
X181900000Y-68700000D02*
X181300000Y-68700000D01*
X182825000Y-70614089D02*
X182305456Y-70094544D01*
X175025000Y-71673696D02*
X175025000Y-71642590D01*
X157100000Y-74800000D02*
X156150000Y-75750000D01*
X180200000Y-67600000D02*
X180200000Y-68700000D01*
X179000000Y-68700000D02*
X180200000Y-68700000D01*
D78*
X158600000Y-75125000D02*
X158600000Y-74800000D01*
D77*
X211734314Y-59000000D02*
X234739950Y-59000000D01*
X206900000Y-58500000D02*
X211234314Y-58500000D01*
X237675000Y-56064950D02*
X237675000Y-45650000D01*
X171175000Y-72025000D02*
X174673696Y-72025000D01*
X158600000Y-74800000D02*
X168400000Y-74800000D01*
X182825000Y-71675000D02*
X182825000Y-70614089D01*
X156150000Y-75750000D02*
X150350000Y-75750000D01*
X237675000Y-45650000D02*
X237525000Y-45500000D01*
X211234314Y-58500000D02*
X211734314Y-59000000D01*
X175025000Y-71642590D02*
X176167590Y-70500000D01*
X177200000Y-70500000D02*
X179000000Y-68700000D01*
%TO.N,GND1*%
X240250000Y-61500000D02*
X240000000Y-61250000D01*
X240250000Y-62775000D02*
X240250000Y-61500000D01*
%TO.N,Net-(U13-XI{slash}CLKIN)*%
X245390000Y-84850000D02*
X245900000Y-84850000D01*
X246750000Y-81507500D02*
X246750000Y-79572500D01*
X246000000Y-84850000D02*
X245900000Y-84850000D01*
X246582500Y-81675000D02*
X246750000Y-81507500D01*
X244250000Y-83710000D02*
X245390000Y-84850000D01*
X246900000Y-81992500D02*
X246900000Y-83950000D01*
X246582500Y-81675000D02*
X246900000Y-81992500D01*
X246900000Y-83950000D02*
X246000000Y-84850000D01*
%TO.N,Net-(U13-XO)*%
X248100000Y-83150000D02*
X249350000Y-83150000D01*
X248100000Y-83150000D02*
X248100000Y-82172500D01*
X247250000Y-79572500D02*
X247250000Y-81322500D01*
X249350000Y-83150000D02*
X249750000Y-82750000D01*
X247250000Y-81322500D02*
X247602500Y-81675000D01*
X248100000Y-82172500D02*
X247602500Y-81675000D01*
%TO.N,Net-(U13-1V2O)*%
X242837500Y-77160000D02*
X241570000Y-77160000D01*
X241570000Y-77160000D02*
X240980000Y-77750000D01*
%TO.N,TC*%
X246975000Y-58565000D02*
X246975000Y-61000000D01*
D78*
X246975000Y-61000000D02*
X246975000Y-62450000D01*
D77*
X248390000Y-57150000D02*
X246975000Y-58565000D01*
D78*
X246975000Y-62450000D02*
X246925000Y-62500000D01*
D77*
%TO.N,Net-(U13-TOCAP)*%
X242837500Y-76160000D02*
X241390000Y-76160000D01*
X241390000Y-76160000D02*
X240980000Y-75750000D01*
%TO.N,RC*%
X244565686Y-62250000D02*
X243750000Y-62250000D01*
X245000000Y-60750000D02*
X245000000Y-60250000D01*
X244750000Y-60000000D02*
X243250000Y-60000000D01*
X243250000Y-60000000D02*
X243000000Y-59750000D01*
X243750000Y-62250000D02*
X243750000Y-61250000D01*
X243750000Y-61250000D02*
X244000000Y-61000000D01*
X245750000Y-55750000D02*
X246890000Y-54610000D01*
X244500000Y-58750000D02*
X244500000Y-56500000D01*
D78*
X244657500Y-64250000D02*
X243750000Y-64250000D01*
D77*
X245250000Y-55750000D02*
X245750000Y-55750000D01*
X243250000Y-59000000D02*
X244250000Y-59000000D01*
X244750000Y-61000000D02*
X245000000Y-60750000D01*
X244500000Y-56500000D02*
X245250000Y-55750000D01*
X244250000Y-59000000D02*
X244500000Y-58750000D01*
X246565686Y-64250000D02*
X244565686Y-62250000D01*
X244000000Y-61000000D02*
X244750000Y-61000000D01*
X247157500Y-64250000D02*
X246565686Y-64250000D01*
X243000000Y-59750000D02*
X243000000Y-59250000D01*
X245000000Y-60250000D02*
X244750000Y-60000000D01*
X246890000Y-54610000D02*
X247110000Y-54610000D01*
D78*
X243725000Y-64225000D02*
X243750000Y-64250000D01*
D77*
X243000000Y-59250000D02*
X243250000Y-59000000D01*
D78*
X242500000Y-64225000D02*
X243725000Y-64225000D01*
D77*
%TO.N,RD-*%
X247370148Y-63275000D02*
X246512352Y-63275000D01*
X245850000Y-62612648D02*
X245993676Y-62756324D01*
X248407500Y-64312352D02*
X247370148Y-63275000D01*
X246512352Y-63275000D02*
X245993676Y-62756324D01*
X245850000Y-57150000D02*
X245850000Y-62612648D01*
X248407500Y-65115000D02*
X248407500Y-64312352D01*
D78*
%TO.N,Net-(C37-Pad2)*%
X248157500Y-66325000D02*
X248407500Y-66075000D01*
X247157500Y-65900000D02*
X248232500Y-65900000D01*
X248232500Y-65900000D02*
X248407500Y-66075000D01*
X248157500Y-67500000D02*
X248157500Y-66325000D01*
D77*
%TO.N,RD+*%
X245907500Y-65115000D02*
X245907500Y-64157500D01*
X245907500Y-64157500D02*
X244750000Y-63000000D01*
X242000000Y-62000000D02*
X242000000Y-55695075D01*
X244135075Y-53560000D02*
X248600000Y-53560000D01*
X242000000Y-55695075D02*
X244135075Y-53560000D01*
X244750000Y-63000000D02*
X243000000Y-63000000D01*
X248600000Y-53560000D02*
X249650000Y-54610000D01*
X242000000Y-62000000D02*
X243000000Y-63000000D01*
%TO.N,DS18B20_DATA*%
X184325000Y-56325000D02*
X184325000Y-55475000D01*
D78*
X194325000Y-46500000D02*
X195532500Y-46500000D01*
X195532500Y-46500000D02*
X198750000Y-43282500D01*
D77*
X184325000Y-55475000D02*
X184325000Y-54825000D01*
X184325000Y-54825000D02*
X184550000Y-54600000D01*
D78*
%TO.N,Net-(C38-Pad2)*%
X245907500Y-66075000D02*
X244907500Y-66075000D01*
X244907500Y-66075000D02*
X244657500Y-65825000D01*
X246657500Y-66825000D02*
X245907500Y-66075000D01*
X246657500Y-67500000D02*
X246657500Y-66825000D01*
D77*
%TO.N,0-5V_IN_A*%
X179650000Y-59250000D02*
X178200000Y-57800000D01*
X172432843Y-56567157D02*
X172432843Y-50267157D01*
X180550000Y-59250000D02*
X179650000Y-59250000D01*
X190000000Y-66000000D02*
X187300000Y-66000000D01*
X175648095Y-57100000D02*
X172965686Y-57100000D01*
X173400000Y-49300000D02*
X175400000Y-49300000D01*
X176700000Y-48000000D02*
X181925000Y-48000000D01*
X176348096Y-57800000D02*
X175648095Y-57100000D01*
D78*
X181925000Y-46500000D02*
X181925000Y-48000000D01*
D77*
X172432843Y-50267157D02*
X173400000Y-49300000D01*
X172965686Y-57100000D02*
X172432843Y-56567157D01*
X175400000Y-49300000D02*
X176700000Y-48000000D01*
X187300000Y-66000000D02*
X180550000Y-59250000D01*
X178200000Y-57800000D02*
X176348096Y-57800000D01*
%TO.N,Net-(R6-Pad1)*%
X215020000Y-103945000D02*
X215020000Y-106155000D01*
X215020000Y-106155000D02*
X214425000Y-106750000D01*
%TO.N,DIG_IN_B*%
X190000000Y-63500000D02*
X194500000Y-63500000D01*
X212625000Y-90700000D02*
X212600000Y-90700000D01*
X210475000Y-110700000D02*
X210475000Y-100350000D01*
X214175000Y-92250000D02*
X212625000Y-90700000D01*
X215020000Y-95805000D02*
X215020000Y-95055000D01*
X210475000Y-100350000D02*
X215020000Y-95805000D01*
X207250000Y-113925000D02*
X210475000Y-110700000D01*
X214175000Y-94210000D02*
X215020000Y-95055000D01*
X214175000Y-92250000D02*
X214175000Y-94210000D01*
X194500000Y-63500000D02*
X195100000Y-64100000D01*
%TO.N,Net-(R22-Pad1)*%
X208270000Y-103945000D02*
X208270000Y-106080000D01*
X208270000Y-106080000D02*
X207600000Y-106750000D01*
%TO.N,DIG_IN_A*%
X207425000Y-92250000D02*
X207425000Y-94210000D01*
X207425000Y-94210000D02*
X208270000Y-95055000D01*
X203750000Y-101000000D02*
X203750000Y-105000000D01*
X208270000Y-95055000D02*
X208270000Y-96480000D01*
X193700000Y-64000000D02*
X195300000Y-65600000D01*
X195000000Y-113750000D02*
X195000000Y-113925000D01*
X190000000Y-64000000D02*
X193700000Y-64000000D01*
X206200000Y-91025000D02*
X207425000Y-92250000D01*
X203750000Y-105000000D02*
X195000000Y-113750000D01*
X208270000Y-96480000D02*
X203750000Y-101000000D01*
X206200000Y-91000000D02*
X206200000Y-91025000D01*
%TO.N,+3.3VA*%
X241410000Y-73660000D02*
X242837500Y-73660000D01*
X247732590Y-73500000D02*
X246616295Y-72383705D01*
X250500000Y-62730000D02*
X250500000Y-63410000D01*
D78*
X248575000Y-62500000D02*
X248575000Y-63325000D01*
D77*
X246750000Y-72517410D02*
X246750000Y-73500000D01*
X251687500Y-71000000D02*
X251687500Y-70912500D01*
X246616295Y-72383705D02*
X246250000Y-72017410D01*
X247750000Y-73500000D02*
X247732590Y-73500000D01*
X241000000Y-73250000D02*
X241410000Y-73660000D01*
X246616295Y-72383705D02*
X246750000Y-72517410D01*
X240700000Y-72950000D02*
X241000000Y-73250000D01*
X243670050Y-73660000D02*
X243960050Y-73950000D01*
X243960050Y-74307360D02*
X243960050Y-73950000D01*
X241070000Y-76660000D02*
X240980000Y-76750000D01*
X245300000Y-75489950D02*
X245300000Y-74660000D01*
X245300000Y-74660000D02*
X246590000Y-74660000D01*
X241090000Y-74660000D02*
X241000000Y-74750000D01*
X245500000Y-73500000D02*
X246750000Y-73500000D01*
X240700000Y-71750000D02*
X240700000Y-72950000D01*
X250500000Y-62730000D02*
X251500000Y-62730000D01*
X242837500Y-74660000D02*
X245300000Y-74660000D01*
X251687500Y-70912500D02*
X253200000Y-69400000D01*
X252500000Y-62730000D02*
X252500000Y-63750000D01*
X242837500Y-74660000D02*
X241090000Y-74660000D01*
X251687500Y-71000000D02*
X251000000Y-71000000D01*
X244129950Y-76660000D02*
X245300000Y-75489950D01*
X243960050Y-74307360D02*
X243607410Y-74660000D01*
X246250000Y-72017410D02*
X246250000Y-71247500D01*
X242837500Y-76660000D02*
X244129950Y-76660000D01*
X247750000Y-72517410D02*
X248250000Y-72017410D01*
X248250000Y-72017410D02*
X248250000Y-71247500D01*
X247750000Y-73500000D02*
X247750000Y-72517410D01*
X245000000Y-72500000D02*
X245000000Y-73000000D01*
X252000000Y-64250000D02*
X252950000Y-64250000D01*
D78*
X250500000Y-64250000D02*
X250500000Y-63410000D01*
X252000000Y-64250000D02*
X250500000Y-64250000D01*
X248575000Y-63325000D02*
X249000000Y-63750000D01*
D77*
X242837500Y-76660000D02*
X241070000Y-76660000D01*
X246750000Y-73500000D02*
X247750000Y-73500000D01*
X242837500Y-73660000D02*
X243670050Y-73660000D01*
X244750000Y-72250000D02*
X245000000Y-72500000D01*
X243607410Y-74660000D02*
X242837500Y-74660000D01*
X252500000Y-63750000D02*
X252000000Y-64250000D01*
X245000000Y-73000000D02*
X245500000Y-73500000D01*
X252500000Y-62730000D02*
X251500000Y-62730000D01*
X252950000Y-64250000D02*
X253000000Y-64300000D01*
X244750000Y-71247500D02*
X244750000Y-72250000D01*
X246590000Y-74660000D02*
X247750000Y-73500000D01*
%TO.N,Net-(U9-VDD)*%
X231725000Y-45500000D02*
X231275000Y-45500000D01*
X232550000Y-46325000D02*
X231725000Y-45500000D01*
X232550000Y-47170000D02*
X232550000Y-46325000D01*
%TO.N,Net-(U9-~{DTR})*%
X235975000Y-45500000D02*
X235975000Y-48095000D01*
X235975000Y-48095000D02*
X236000000Y-48120000D01*
D79*
%TO.N,Net-(D4-A)*%
X149000000Y-89550000D02*
X153437500Y-85112500D01*
X153437500Y-85112500D02*
X153437500Y-84250000D01*
X157250000Y-84250000D02*
X153437500Y-84250000D01*
%TO.N,Net-(D5-A)*%
X169625000Y-84210000D02*
X173210000Y-84210000D01*
X169625000Y-84925000D02*
X169625000Y-84210000D01*
X173210000Y-84210000D02*
X173250000Y-84250000D01*
X165000000Y-89550000D02*
X169625000Y-84925000D01*
D77*
%TO.N,Net-(D6-A)*%
X163450000Y-85687500D02*
X164062500Y-85075000D01*
X163450000Y-96450000D02*
X163450000Y-85687500D01*
X173312500Y-106312500D02*
X163450000Y-96450000D01*
X173312500Y-115500000D02*
X173312500Y-106312500D01*
%TO.N,Net-(D7-A)*%
X152750000Y-101750000D02*
X146750000Y-95750000D01*
X147750000Y-87500000D02*
X147750000Y-85075000D01*
X146750000Y-95750000D02*
X146750000Y-88500000D01*
X161562500Y-115500000D02*
X161562500Y-112737500D01*
X161562500Y-112737500D02*
X152750000Y-103925000D01*
X146750000Y-88500000D02*
X147750000Y-87500000D01*
X152750000Y-103925000D02*
X152750000Y-101750000D01*
X147450000Y-85375000D02*
X147750000Y-85075000D01*
%TO.N,Net-(D8-A)*%
X199487500Y-115575000D02*
X199562500Y-115500000D01*
X195000000Y-115575000D02*
X199487500Y-115575000D01*
%TO.N,Net-(D9-A)*%
X207250000Y-115575000D02*
X211487500Y-115575000D01*
X211487500Y-115575000D02*
X211562500Y-115500000D01*
%TO.N,Net-(D10-A)*%
X257500000Y-49000000D02*
X255750000Y-47250000D01*
X238000000Y-58131372D02*
X238000000Y-78325000D01*
X255750000Y-46000000D02*
X255000000Y-45250000D01*
X255000000Y-45250000D02*
X250881372Y-45250000D01*
X250881372Y-45250000D02*
X238000000Y-58131372D01*
X238000000Y-78325000D02*
X238925000Y-79250000D01*
X255750000Y-47250000D02*
X255750000Y-46000000D01*
X258500000Y-49000000D02*
X257500000Y-49000000D01*
%TO.N,SD_D1*%
X225225000Y-53169364D02*
X225225000Y-53790000D01*
X213617157Y-51182843D02*
X223238479Y-51182843D01*
X193400000Y-53200000D02*
X193400000Y-51100000D01*
X209600000Y-54000000D02*
X210800000Y-54000000D01*
X180825000Y-53764950D02*
X180825000Y-56325000D01*
X184089950Y-50500000D02*
X180825000Y-53764950D01*
X210100000Y-54000000D02*
X209600000Y-54000000D01*
X213050000Y-51750000D02*
X213617157Y-51182843D01*
X209600000Y-54000000D02*
X194200000Y-54000000D01*
X192800000Y-50500000D02*
X184089950Y-50500000D01*
X223238479Y-51182843D02*
X225225000Y-53169364D01*
X210800000Y-54000000D02*
X213050000Y-51750000D01*
X194200000Y-54000000D02*
X193400000Y-53200000D01*
X193400000Y-51100000D02*
X192800000Y-50500000D01*
%TO.N,Net-(D12-A)*%
X243342157Y-51092157D02*
X245350000Y-49084314D01*
X244202500Y-46202500D02*
X242375000Y-44375000D01*
X242500000Y-44500000D02*
X245350000Y-47350000D01*
X243342157Y-51092157D02*
X243845000Y-50589314D01*
X245350000Y-47350000D02*
X245350000Y-48250000D01*
X236800000Y-81625000D02*
X238925000Y-83750000D01*
X242375000Y-44375000D02*
X242375000Y-42875000D01*
X242375000Y-42875000D02*
X243250000Y-42000000D01*
X258500000Y-44250000D02*
X258500000Y-47000000D01*
X236800000Y-57634314D02*
X236800000Y-81625000D01*
X243250000Y-42000000D02*
X256250000Y-42000000D01*
X245350000Y-49084314D02*
X245350000Y-48250000D01*
X256250000Y-42000000D02*
X258500000Y-44250000D01*
X243342157Y-51092157D02*
X236800000Y-57634314D01*
%TO.N,Net-(D13-A)*%
X176637500Y-76500000D02*
X176637500Y-74837500D01*
X176637500Y-74837500D02*
X176725000Y-74750000D01*
%TO.N,Net-(D14-A)*%
X185062500Y-99512500D02*
X185062500Y-115500000D01*
X179000000Y-86075000D02*
X180000000Y-85075000D01*
X182800000Y-93550000D02*
X179000000Y-89750000D01*
X182800000Y-97250000D02*
X185062500Y-99512500D01*
X182800000Y-97250000D02*
X182800000Y-93550000D01*
X179000000Y-89750000D02*
X179000000Y-86075000D01*
D79*
%TO.N,Net-(D15-A)*%
X185625000Y-84925000D02*
X185625000Y-84250000D01*
X181000000Y-89550000D02*
X185625000Y-84925000D01*
X185625000Y-84250000D02*
X189500000Y-84250000D01*
D78*
%TO.N,LED_A*%
X186825000Y-55250000D02*
X186000000Y-54425000D01*
X186825000Y-56325000D02*
X186825000Y-55250000D01*
D77*
%TO.N,MOSI*%
X195990686Y-67000000D02*
X199765686Y-70775000D01*
X222947058Y-84347058D02*
X226600000Y-88000000D01*
X226600000Y-88000000D02*
X250500000Y-88000000D01*
X250500000Y-88000000D02*
X251625000Y-86875000D01*
X249657590Y-80750000D02*
X249250000Y-80342410D01*
X251625000Y-81625000D02*
X250750000Y-80750000D01*
X215852942Y-84347058D02*
X222947058Y-84347058D01*
X199765686Y-70775000D02*
X202280884Y-70775000D01*
X251625000Y-86875000D02*
X251625000Y-81625000D01*
X190000000Y-67000000D02*
X195990686Y-67000000D01*
X249250000Y-80342410D02*
X249250000Y-79572500D01*
X202280884Y-70775000D02*
X215852942Y-84347058D01*
X250750000Y-80750000D02*
X249657590Y-80750000D01*
%TO.N,MISO*%
X222781372Y-84747058D02*
X215687256Y-84747058D01*
X253000000Y-87500000D02*
X252100000Y-88400000D01*
X248750000Y-79572500D02*
X248750000Y-78500000D01*
X252100000Y-88400000D02*
X226434314Y-88400000D01*
X248750000Y-78500000D02*
X249500000Y-77750000D01*
X199600000Y-71175000D02*
X195925000Y-67500000D01*
X202115198Y-71175000D02*
X199600000Y-71175000D01*
X226434314Y-88400000D02*
X222781372Y-84747058D01*
X195925000Y-67500000D02*
X190000000Y-67500000D01*
X253000000Y-86500000D02*
X253000000Y-87500000D01*
X215687256Y-84747058D02*
X202115198Y-71175000D01*
D78*
%TO.N,Net-(J2-Pin_1)*%
X208075000Y-41130000D02*
X208250000Y-40955000D01*
X208075000Y-42025000D02*
X208300000Y-41800000D01*
X204665000Y-51035000D02*
X206000000Y-49700000D01*
X208250000Y-40955000D02*
X208625000Y-41330000D01*
X206000000Y-49700000D02*
X208075000Y-47625000D01*
X206200000Y-49700000D02*
X206000000Y-49700000D01*
X202225000Y-51035000D02*
X204665000Y-51035000D01*
X208075000Y-47625000D02*
X208075000Y-42025000D01*
%TO.N,Net-(J2-Pin_2)*%
X204800000Y-46500000D02*
X207087500Y-46500000D01*
X203049999Y-49765000D02*
X204800000Y-48014999D01*
X202225000Y-49765000D02*
X203049999Y-49765000D01*
X204800000Y-46500000D02*
X204800000Y-41800000D01*
X204800000Y-48014999D02*
X204800000Y-46500000D01*
D77*
%TO.N,SDA_5V*%
X159750000Y-43282500D02*
X159750000Y-44400000D01*
X161850000Y-47675000D02*
X162425000Y-48250000D01*
X161850000Y-46500000D02*
X161850000Y-47675000D01*
X159750000Y-44400000D02*
X161850000Y-46500000D01*
%TO.N,SCL_5V*%
X162250000Y-43282500D02*
X162250000Y-43950000D01*
X166575000Y-46537500D02*
X166575000Y-47675000D01*
X166575000Y-47675000D02*
X166000000Y-48250000D01*
X165225000Y-45150000D02*
X166575000Y-46500000D01*
X163450000Y-45150000D02*
X165225000Y-45150000D01*
X162250000Y-43950000D02*
X163450000Y-45150000D01*
%TO.N,0-5V_IN_B*%
X180300000Y-59650000D02*
X187150000Y-66500000D01*
X179450000Y-59650000D02*
X180300000Y-59650000D01*
X175991205Y-58008795D02*
X176182411Y-58200000D01*
X171500000Y-48000000D02*
X171500000Y-46500000D01*
X172000000Y-49800000D02*
X172000000Y-56700000D01*
X172000000Y-56700000D02*
X172800000Y-57500000D01*
X171500000Y-48000000D02*
X171500000Y-49300000D01*
X178000000Y-58200000D02*
X179450000Y-59650000D01*
X175482410Y-57500000D02*
X175991205Y-58008795D01*
X171500000Y-49300000D02*
X172000000Y-49800000D01*
X187150000Y-66500000D02*
X190000000Y-66500000D01*
X172800000Y-57500000D02*
X175482410Y-57500000D01*
X176182411Y-58200000D02*
X178000000Y-58200000D01*
D80*
%TO.N,Net-(J14-Pin_1)*%
X170750000Y-120750000D02*
X170750000Y-115000000D01*
X170750000Y-115000000D02*
X169547919Y-115000000D01*
X169547919Y-115000000D02*
X169000000Y-114452081D01*
X169000000Y-105750000D02*
X165000000Y-101750000D01*
X169000000Y-114452081D02*
X169000000Y-105750000D01*
%TO.N,Net-(J11-Pin_1)*%
X175000000Y-112290000D02*
X177750000Y-115040000D01*
X175000000Y-103850000D02*
X175000000Y-112290000D01*
X177050000Y-101800000D02*
X175000000Y-103850000D01*
X177750000Y-115040000D02*
X177750000Y-120750000D01*
%TO.N,Net-(J15-Pin_1)*%
X153765000Y-115015000D02*
X150250000Y-111500000D01*
X149391460Y-106608540D02*
X149000000Y-106217081D01*
X149000000Y-106217081D02*
X149000000Y-101750000D01*
X150250000Y-107467080D02*
X149391460Y-106608540D01*
X159000000Y-115015000D02*
X153765000Y-115015000D01*
X159000000Y-120750000D02*
X159000000Y-115015000D01*
X150250000Y-111500000D02*
X150250000Y-107467080D01*
%TO.N,Net-(J15-Pin_3)*%
X166000000Y-120750000D02*
X166000000Y-115025000D01*
X161050000Y-101800000D02*
X161375000Y-102125000D01*
X161375000Y-102125000D02*
X161375000Y-107125000D01*
X162862500Y-111887500D02*
X166000000Y-115025000D01*
X161375000Y-107125000D02*
X162862500Y-108612500D01*
X162862500Y-108612500D02*
X162862500Y-111887500D01*
%TO.N,Net-(J16-Pin_3)*%
X193050000Y-111475000D02*
X193050000Y-101800000D01*
X189500000Y-115025000D02*
X193050000Y-111475000D01*
X189500000Y-115025000D02*
X189500000Y-120750000D01*
%TO.N,Net-(J16-Pin_1)*%
X180200000Y-108450000D02*
X181000000Y-107650000D01*
X181000000Y-107650000D02*
X181000000Y-101750000D01*
X181297919Y-115015000D02*
X180200000Y-113917081D01*
X180200000Y-113917081D02*
X180200000Y-108450000D01*
X182500000Y-115015000D02*
X181297919Y-115015000D01*
X182500000Y-115015000D02*
X182500000Y-120750000D01*
D77*
%TO.N,Net-(J17-D+)*%
X233550000Y-42600000D02*
X233650000Y-42500000D01*
X233550000Y-47170000D02*
X233550000Y-42600000D01*
%TO.N,Net-(J17-D-)*%
X233050000Y-47170000D02*
X233050000Y-45550000D01*
X233050000Y-45550000D02*
X232750000Y-45250000D01*
%TO.N,Net-(Q1-B)*%
X149500000Y-85075000D02*
X149787500Y-85075000D01*
X149787500Y-85075000D02*
X151562500Y-83300000D01*
%TO.N,Net-(Q2-B)*%
X165935000Y-85075000D02*
X165750000Y-85075000D01*
X167750000Y-83260000D02*
X165935000Y-85075000D01*
%TO.N,Net-(Q3-B)*%
X181975000Y-85075000D02*
X181750000Y-85075000D01*
X183750000Y-83300000D02*
X181975000Y-85075000D01*
%TO.N,D_OUT_C*%
X173545154Y-62000000D02*
X174650000Y-62000000D01*
X172645154Y-61100000D02*
X173545154Y-62000000D01*
X181750000Y-83425000D02*
X181750000Y-82550000D01*
X181750000Y-82550000D02*
X181800000Y-82500000D01*
X180000000Y-83425000D02*
X181750000Y-83425000D01*
X170500000Y-60900000D02*
X170700000Y-61100000D01*
X170700000Y-61100000D02*
X172645154Y-61100000D01*
D78*
%TO.N,LED_B*%
X187325000Y-55100000D02*
X187325000Y-56325000D01*
X188000000Y-54425000D02*
X187325000Y-55100000D01*
D77*
%TO.N,D_OUT_A*%
X147750000Y-83425000D02*
X149500000Y-83425000D01*
X173176526Y-60500000D02*
X171876526Y-59200000D01*
X149500000Y-82400000D02*
X149500000Y-83425000D01*
X174650000Y-60500000D02*
X173176526Y-60500000D01*
X149500000Y-83425000D02*
X149575000Y-83425000D01*
X171876526Y-59200000D02*
X170900000Y-59200000D01*
%TO.N,D_OUT_B*%
X165750000Y-82650000D02*
X165300000Y-82200000D01*
X165750000Y-83425000D02*
X165750000Y-82650000D01*
X173110840Y-61000000D02*
X172410840Y-60300000D01*
X164062500Y-83425000D02*
X165750000Y-83425000D01*
X172410840Y-60300000D02*
X171400000Y-60300000D01*
X174650000Y-61000000D02*
X173110840Y-61000000D01*
D78*
%TO.N,Net-(JP1-B)*%
X208912500Y-49327500D02*
X208540000Y-49700000D01*
X208912500Y-46500000D02*
X208912500Y-49327500D01*
D77*
%TO.N,SD_CMD*%
X174650000Y-61500000D02*
X177500000Y-61500000D01*
X219725000Y-53790000D02*
X219725000Y-56875000D01*
X177500000Y-61500000D02*
X180000000Y-64000000D01*
X219725000Y-56875000D02*
X219200000Y-57400000D01*
%TO.N,BOOT_0*%
X164600000Y-68646346D02*
X164600000Y-67693654D01*
X170400000Y-67000000D02*
X174650000Y-67000000D01*
X153000000Y-79100000D02*
X151200000Y-77300000D01*
X148650000Y-76650000D02*
X148650000Y-70650000D01*
X149700000Y-69600000D02*
X163646346Y-69600000D01*
X149300000Y-77300000D02*
X148650000Y-76650000D01*
X170400000Y-67000000D02*
X170400000Y-67475000D01*
X163646346Y-69600000D02*
X164600000Y-68646346D01*
X164600000Y-67693654D02*
X165293654Y-67000000D01*
X148650000Y-70650000D02*
X149700000Y-69600000D01*
X165293654Y-67000000D02*
X170400000Y-67000000D01*
X151200000Y-77300000D02*
X149300000Y-77300000D01*
D78*
%TO.N,Net-(U13-TXN)*%
X249750000Y-71247500D02*
X249750000Y-70557500D01*
X249750000Y-70557500D02*
X251157500Y-69150000D01*
D77*
%TO.N,TD-*%
X252750000Y-58000000D02*
X252750000Y-57400000D01*
X254000000Y-58250000D02*
X254250000Y-58500000D01*
X252750000Y-59500000D02*
X252750000Y-60000000D01*
X254000000Y-60250000D02*
X254250000Y-60500000D01*
X252750000Y-60000000D02*
X253000000Y-60250000D01*
X253000000Y-60250000D02*
X254000000Y-60250000D01*
X252750000Y-57400000D02*
X252500000Y-57150000D01*
X251157500Y-66742500D02*
X252000000Y-65900000D01*
X253850000Y-65900000D02*
X252000000Y-65900000D01*
X254250000Y-59000000D02*
X254000000Y-59250000D01*
X253000000Y-58250000D02*
X252750000Y-58000000D01*
X254000000Y-59250000D02*
X253000000Y-59250000D01*
X254250000Y-65500000D02*
X253850000Y-65900000D01*
X254250000Y-60500000D02*
X254250000Y-65500000D01*
X254000000Y-58250000D02*
X253000000Y-58250000D01*
X253000000Y-59250000D02*
X252750000Y-59500000D01*
X251157500Y-67500000D02*
X251157500Y-66742500D01*
X250930000Y-57150000D02*
X252500000Y-57150000D01*
X254250000Y-58500000D02*
X254250000Y-59000000D01*
%TO.N,TD+*%
X249715000Y-59440000D02*
X249512500Y-59237500D01*
X249657500Y-66742500D02*
X250500000Y-65900000D01*
X250500000Y-65900000D02*
X249725000Y-65125000D01*
X249512500Y-56537500D02*
X251440000Y-54610000D01*
X249715000Y-60000000D02*
X249715000Y-59440000D01*
X249512500Y-59237500D02*
X249512500Y-56537500D01*
X249725000Y-60010000D02*
X249715000Y-60000000D01*
X249657500Y-67500000D02*
X249657500Y-66742500D01*
X249725000Y-65125000D02*
X249725000Y-60010000D01*
X251440000Y-54610000D02*
X252190000Y-54610000D01*
X249512500Y-59237500D02*
X249517500Y-59232500D01*
D78*
%TO.N,Net-(U13-TXP)*%
X249250000Y-69557500D02*
X249657500Y-69150000D01*
X249250000Y-71247500D02*
X249250000Y-69557500D01*
%TO.N,Net-(U13-RXN)*%
X247750000Y-71247500D02*
X247750000Y-69557500D01*
X247750000Y-69557500D02*
X248157500Y-69150000D01*
%TO.N,Net-(U13-RXP)*%
X247250000Y-69742500D02*
X246657500Y-69150000D01*
X247250000Y-71247500D02*
X247250000Y-69742500D01*
D77*
%TO.N,Net-(U13-LINKLED)*%
X244250000Y-79572500D02*
X241572500Y-82250000D01*
X241572500Y-82250000D02*
X240575000Y-82250000D01*
%TO.N,ETHERNET_LED_A*%
X237200000Y-80525000D02*
X238925000Y-82250000D01*
X243665000Y-45099314D02*
X245750000Y-47184314D01*
X237200000Y-57800000D02*
X237200000Y-80525000D01*
X245750000Y-49250000D02*
X237200000Y-57800000D01*
X245750000Y-47184314D02*
X245750000Y-49250000D01*
X243665000Y-43350000D02*
X243665000Y-45099314D01*
%TO.N,Net-(U13-ACTLED)*%
X240575000Y-80750000D02*
X241517410Y-80750000D01*
X243732410Y-78535000D02*
X244982410Y-78535000D01*
X245250000Y-78802590D02*
X245250000Y-79572500D01*
X244982410Y-78535000D02*
X245250000Y-78802590D01*
X241517410Y-80750000D02*
X243732410Y-78535000D01*
%TO.N,ETHERNET_LED_B*%
X237600000Y-57965685D02*
X237600000Y-79425000D01*
X251835000Y-43730685D02*
X237600000Y-57965685D01*
X251835000Y-43350000D02*
X251835000Y-43730685D01*
X237600000Y-79425000D02*
X238925000Y-80750000D01*
%TO.N,Net-(U13-EXRES1)*%
X245250000Y-71247500D02*
X245250000Y-70477590D01*
X245250000Y-70477590D02*
X243847410Y-69075000D01*
X243847410Y-69075000D02*
X243582500Y-69075000D01*
%TO.N,Net-(U13-SPDLED)*%
X242837500Y-78160000D02*
X241665000Y-78160000D01*
X241665000Y-78160000D02*
X240575000Y-79250000D01*
%TO.N,Net-(U13-DUPLED)*%
X241342410Y-83750000D02*
X240575000Y-83750000D01*
X244750000Y-80342410D02*
X241342410Y-83750000D01*
X244750000Y-79572500D02*
X244750000Y-80342410D01*
%TO.N,uC_RX*%
X180982843Y-59117157D02*
X182900000Y-61034315D01*
X236480072Y-49120000D02*
X237275000Y-49914928D01*
X234100000Y-58600000D02*
X234450000Y-58250000D01*
X236575000Y-56175000D02*
X234500000Y-58250000D01*
X179325000Y-58275000D02*
X179900000Y-58850000D01*
X234450000Y-58250000D02*
X234500000Y-58250000D01*
X179325000Y-56325000D02*
X179325000Y-53425000D01*
X179325000Y-56325000D02*
X179325000Y-58275000D01*
X179325000Y-53425000D02*
X178000000Y-52100000D01*
X210657843Y-57357843D02*
X211900000Y-58600000D01*
X236575000Y-55000000D02*
X236575000Y-56175000D01*
X236000000Y-49120000D02*
X236480072Y-49120000D01*
X237275000Y-54300000D02*
X236575000Y-55000000D01*
X189309747Y-57357843D02*
X210657843Y-57357843D01*
X182900000Y-61034315D02*
X185633275Y-61034315D01*
X237275000Y-49914928D02*
X237275000Y-54300000D01*
X185633275Y-61034315D02*
X189309747Y-57357843D01*
X180715686Y-58850000D02*
X180982843Y-59117157D01*
X211900000Y-58600000D02*
X234100000Y-58600000D01*
X179900000Y-58850000D02*
X180715686Y-58850000D01*
%TO.N,uC_TX*%
X233500000Y-57250000D02*
X232550000Y-58200000D01*
X189042157Y-56957843D02*
X185365685Y-60634315D01*
X179825000Y-56325000D02*
X179825000Y-53775000D01*
X235875000Y-55237648D02*
X233862648Y-57250000D01*
X181015685Y-58584315D02*
X180831370Y-58400000D01*
X185365685Y-60634315D02*
X183065686Y-60634315D01*
X236414386Y-49620000D02*
X236000000Y-49620000D01*
X180831370Y-58400000D02*
X180100000Y-58400000D01*
X179825000Y-58125000D02*
X179825000Y-56325000D01*
X180100000Y-58400000D02*
X179825000Y-58125000D01*
X236575000Y-53500000D02*
X235875000Y-54200000D01*
X212100000Y-58200000D02*
X210857843Y-56957843D01*
X235875000Y-54200000D02*
X235875000Y-55237648D01*
X236700000Y-53375000D02*
X236700000Y-49905614D01*
X210857843Y-56957843D02*
X189042157Y-56957843D01*
X232550000Y-58200000D02*
X212100000Y-58200000D01*
X236700000Y-49905614D02*
X236414386Y-49620000D01*
X179825000Y-53775000D02*
X181500000Y-52100000D01*
X233862648Y-57250000D02*
X233500000Y-57250000D01*
X236575000Y-53500000D02*
X236700000Y-53375000D01*
X183065686Y-60634315D02*
X181015685Y-58584315D01*
%TO.N,SD_SCK*%
X174650000Y-60000000D02*
X176900000Y-60000000D01*
X176900000Y-60000000D02*
X179150000Y-62250000D01*
X221900000Y-55700000D02*
X221900000Y-53815000D01*
X179150000Y-62250000D02*
X180000000Y-62250000D01*
X221900000Y-53815000D02*
X221925000Y-53790000D01*
%TO.N,ETH_INT*%
X190000000Y-70000000D02*
X191975000Y-71975000D01*
X191975000Y-71975000D02*
X201783826Y-71975000D01*
X201783826Y-71975000D02*
X215355884Y-85547058D01*
X215355884Y-85547058D02*
X222450000Y-85547058D01*
X252072500Y-79572500D02*
X249750000Y-79572500D01*
X226102942Y-89200000D02*
X255300000Y-89200000D01*
X255750000Y-88750000D02*
X255750000Y-83250000D01*
X255300000Y-89200000D02*
X255750000Y-88750000D01*
X222450000Y-85547058D02*
X226102942Y-89200000D01*
X255750000Y-83250000D02*
X252072500Y-79572500D01*
%TO.N,Net-(BT1-+)*%
X176400000Y-73100000D02*
X178232410Y-73100000D01*
X173975000Y-74662352D02*
X174737352Y-73900000D01*
X176900000Y-80200000D02*
X173975000Y-77275000D01*
X174737352Y-73900000D02*
X175600000Y-73900000D01*
X190100000Y-78900000D02*
X188800000Y-80200000D01*
X188800000Y-80200000D02*
X176900000Y-80200000D01*
X178232410Y-73100000D02*
X178825000Y-72507410D01*
X173975000Y-77275000D02*
X173975000Y-74662352D01*
X178825000Y-72507410D02*
X178825000Y-71675000D01*
X175600000Y-73900000D02*
X176400000Y-73100000D01*
X203000000Y-78900000D02*
X190100000Y-78900000D01*
%TO.N,Net-(U6-PH0)*%
X181825000Y-73715000D02*
X181825000Y-71675000D01*
X181540000Y-74000000D02*
X181825000Y-73715000D01*
X181540000Y-74000000D02*
X181540000Y-75160000D01*
X178300000Y-76000000D02*
X179700000Y-76000000D01*
X181540000Y-75160000D02*
X180200000Y-76500000D01*
X179700000Y-76000000D02*
X180200000Y-76500000D01*
%TO.N,Net-(U6-PH1)*%
X182560000Y-74000000D02*
X182560000Y-75160000D01*
X185800000Y-75980000D02*
X184420000Y-75980000D01*
X182325000Y-73765000D02*
X182325000Y-71675000D01*
X184420000Y-75980000D02*
X183900000Y-76500000D01*
X182560000Y-75160000D02*
X183900000Y-76500000D01*
X182560000Y-74000000D02*
X182325000Y-73765000D01*
D78*
%TO.N,Net-(J1-Pin_3)*%
X188250000Y-43282500D02*
X185032500Y-46500000D01*
X185032500Y-46500000D02*
X183575000Y-46500000D01*
D77*
%TO.N,Net-(U2-Out)*%
X166975000Y-69395000D02*
X165750000Y-68170000D01*
X166975000Y-70900000D02*
X166975000Y-69395000D01*
%TO.N,SD_D2*%
X177600000Y-59000000D02*
X178400000Y-59800000D01*
X174650000Y-59000000D02*
X177600000Y-59000000D01*
X212700000Y-54200000D02*
X214500000Y-52400000D01*
X216135000Y-52400000D02*
X214500000Y-52400000D01*
X217525000Y-53790000D02*
X216135000Y-52400000D01*
%TO.N,SD_D3*%
X218625000Y-55075000D02*
X218400000Y-55300000D01*
X218625000Y-53790000D02*
X218625000Y-55075000D01*
X174650000Y-59500000D02*
X176965686Y-59500000D01*
X177965686Y-60500000D02*
X180000000Y-60500000D01*
X176965686Y-59500000D02*
X177965686Y-60500000D01*
D78*
%TO.N,Net-(J13-Pin_3)*%
X174532500Y-46500000D02*
X173150000Y-46500000D01*
X177750000Y-43282500D02*
X174532500Y-46500000D01*
D77*
%TO.N,SCK*%
X201949512Y-71575000D02*
X215521570Y-85147058D01*
X215521570Y-85147058D02*
X222615686Y-85147058D01*
X222615686Y-85147058D02*
X226268628Y-88800000D01*
X248250000Y-79572500D02*
X248250000Y-77500000D01*
X190000000Y-68000000D02*
X195859314Y-68000000D01*
X248250000Y-77500000D02*
X247500000Y-76750000D01*
X199434314Y-71575000D02*
X201949512Y-71575000D01*
X226268628Y-88800000D02*
X253450000Y-88800000D01*
X253450000Y-88800000D02*
X254250000Y-88000000D01*
X195859314Y-68000000D02*
X199434314Y-71575000D01*
%TO.N,SDA_1*%
X163375000Y-51950000D02*
X163325000Y-52000000D01*
X163325000Y-52000000D02*
X163325000Y-53500000D01*
X163375000Y-50125000D02*
X163375000Y-51950000D01*
X163325000Y-54575000D02*
X163500000Y-54750000D01*
X174650000Y-66500000D02*
X178000000Y-66500000D01*
X163325000Y-53500000D02*
X163325000Y-54575000D01*
X178000000Y-66500000D02*
X178250000Y-66750000D01*
%TO.N,SCL_1*%
X174650000Y-66000000D02*
X177250000Y-66000000D01*
X166575000Y-54325000D02*
X167000000Y-54750000D01*
X166950000Y-50125000D02*
X166950000Y-51625000D01*
X177250000Y-66000000D02*
X177500000Y-65750000D01*
X166950000Y-51625000D02*
X166575000Y-52000000D01*
X166575000Y-52000000D02*
X166575000Y-53500000D01*
X166575000Y-53500000D02*
X166575000Y-54325000D01*
%TO.N,5V_voltage_detect*%
X173000000Y-77575000D02*
X173000000Y-76100000D01*
X171500000Y-77575000D02*
X173000000Y-77575000D01*
X174650000Y-68500000D02*
X177800000Y-68500000D01*
X177800000Y-68500000D02*
X177900000Y-68400000D01*
%TO.N,Net-(U6-PC13)*%
X175537352Y-74750000D02*
X175075000Y-74750000D01*
X179325000Y-72775000D02*
X178600000Y-73500000D01*
X176787352Y-73500000D02*
X175537352Y-74750000D01*
X178600000Y-73500000D02*
X176787352Y-73500000D01*
X179325000Y-71675000D02*
X179325000Y-72775000D01*
%TO.N,IN_voltage_detect*%
X190000000Y-65500000D02*
X191400000Y-65500000D01*
X197575000Y-106250000D02*
X197575000Y-105075000D01*
X197575000Y-107750000D02*
X197575000Y-106250000D01*
X192050000Y-66150000D02*
X191400000Y-65500000D01*
X192600000Y-66150000D02*
X192050000Y-66150000D01*
X197575000Y-105075000D02*
X196250000Y-103750000D01*
%TO.N,PRESSURE_IN*%
X168625000Y-70900000D02*
X171000000Y-70900000D01*
X171000000Y-70900000D02*
X172900000Y-69000000D01*
X172900000Y-69000000D02*
X174650000Y-69000000D01*
X168625000Y-72400000D02*
X168625000Y-70900000D01*
X168750000Y-72500000D02*
X168650000Y-72400000D01*
%TO.N,SD_DET*%
X227125000Y-43290000D02*
X227925000Y-44090000D01*
D78*
X227025000Y-57300000D02*
X228000000Y-57300000D01*
X228000000Y-57300000D02*
X228100000Y-57400000D01*
D77*
X195500000Y-60000000D02*
X190000000Y-60000000D01*
X227925000Y-57225000D02*
X228100000Y-57400000D01*
X227925000Y-44090000D02*
X227925000Y-57225000D01*
D78*
X228000000Y-57100000D02*
X227800000Y-57300000D01*
D77*
X195500000Y-60000000D02*
X196250000Y-59250000D01*
D78*
X227800000Y-57300000D02*
X227025000Y-57300000D01*
%TO.N,SDA_2*%
X186600000Y-61395840D02*
X186600000Y-63400000D01*
X188995840Y-59000000D02*
X186600000Y-61395840D01*
X190000000Y-59000000D02*
X188995840Y-59000000D01*
D77*
%TO.N,ETH_RST*%
X215243140Y-86000000D02*
X201618140Y-72375000D01*
X256150000Y-83084314D02*
X256150000Y-88915686D01*
X256150000Y-88915686D02*
X255465686Y-89600000D01*
X189000000Y-72350000D02*
X188325000Y-71675000D01*
X255465686Y-89600000D02*
X225900000Y-89600000D01*
X222300000Y-86000000D02*
X215243140Y-86000000D01*
X251689434Y-78623750D02*
X254415686Y-81350000D01*
X251162500Y-78160000D02*
X251626250Y-78623750D01*
X201618140Y-72375000D02*
X189000000Y-72375000D01*
X255282841Y-82217157D02*
X255282843Y-82217157D01*
X256000000Y-82934315D02*
X256150000Y-83084314D01*
X189000000Y-72375000D02*
X189000000Y-72350000D01*
X254415686Y-81350000D02*
X254415686Y-81350002D01*
X225900000Y-89600000D02*
X222300000Y-86000000D01*
X255282843Y-82217157D02*
X256000000Y-82934315D01*
X254415686Y-81350002D02*
X255282841Y-82217157D01*
X251626250Y-78623750D02*
X251689434Y-78623750D01*
D78*
%TO.N,SCL_2*%
X190000000Y-59500000D02*
X189132236Y-59500000D01*
X188200000Y-60432236D02*
X188200000Y-62600000D01*
X189132236Y-59500000D02*
X188200000Y-60432236D01*
D77*
%TO.N,MAX485_RE*%
X195435000Y-49765000D02*
X195200000Y-50000000D01*
X196975000Y-49765000D02*
X195435000Y-49765000D01*
X183325000Y-57157410D02*
X183325000Y-56325000D01*
X184800000Y-57900000D02*
X184067590Y-57900000D01*
X184067590Y-57900000D02*
X183325000Y-57157410D01*
%TO.N,CURRENT_SENSOR_SUPPLY_1.65V*%
X223425000Y-104000000D02*
X223500000Y-104075000D01*
X226467500Y-112500000D02*
X226467500Y-110400000D01*
X218000000Y-104100000D02*
X219500000Y-104100000D01*
X226467500Y-109800000D02*
X226467500Y-107267500D01*
X221500000Y-104000000D02*
X223425000Y-104000000D01*
X235467500Y-112500000D02*
X235467500Y-110432500D01*
X219575000Y-104100000D02*
X219675000Y-104000000D01*
X223200000Y-104000000D02*
X223300000Y-104100000D01*
X219675000Y-104000000D02*
X221500000Y-104000000D01*
X221500000Y-104000000D02*
X223200000Y-104000000D01*
X219782500Y-104382500D02*
X219500000Y-104100000D01*
X219500000Y-104100000D02*
X219575000Y-104100000D01*
X226467500Y-110400000D02*
X226467500Y-109800000D01*
X235500000Y-110400000D02*
X226467500Y-110400000D01*
X242367500Y-110400000D02*
X235500000Y-110400000D01*
X226467500Y-107267500D02*
X223300000Y-104100000D01*
X235467500Y-110432500D02*
X235500000Y-110400000D01*
X244467500Y-112500000D02*
X242367500Y-110400000D01*
%TO.N,Net-(D11-A)*%
X255500000Y-109500000D02*
X257162500Y-109500000D01*
%TO.N,DISPLAY_SCL*%
X195202942Y-62000000D02*
X199302942Y-66100000D01*
X216901700Y-66100000D02*
X221860000Y-61141700D01*
X199302942Y-66100000D02*
X216901700Y-66100000D01*
X190000000Y-62000000D02*
X195202942Y-62000000D01*
%TO.N,DISPLAY_CS*%
X199750000Y-64850000D02*
X195400000Y-60500000D01*
X213000000Y-64850000D02*
X199750000Y-64850000D01*
X195400000Y-60500000D02*
X190000000Y-60500000D01*
X214240000Y-61141700D02*
X214240000Y-63610000D01*
X214240000Y-63610000D02*
X213000000Y-64850000D01*
%TO.N,DISPLAY_RSE*%
X195334314Y-61000000D02*
X190000000Y-61000000D01*
X199584314Y-65250000D02*
X195334314Y-61000000D01*
X216780000Y-62470000D02*
X214000000Y-65250000D01*
X214000000Y-65250000D02*
X199584314Y-65250000D01*
X216780000Y-61141700D02*
X216780000Y-62470000D01*
%TO.N,DISPLAY_SI*%
X199137256Y-66500000D02*
X219041700Y-66500000D01*
X190000000Y-62500000D02*
X195137256Y-62500000D01*
X219041700Y-66500000D02*
X224400000Y-61141700D01*
X195137256Y-62500000D02*
X199137256Y-66500000D01*
%TO.N,DISPLAY_RS*%
X214761700Y-65700000D02*
X219320000Y-61141700D01*
X199468628Y-65700000D02*
X214761700Y-65700000D01*
X195268628Y-61500000D02*
X199468628Y-65700000D01*
X190000000Y-61500000D02*
X195268628Y-61500000D01*
D78*
%TO.N,Net-(J10-Pin_9)*%
X234875000Y-61439926D02*
X234580000Y-61144926D01*
X234875000Y-65200000D02*
X234875000Y-61439926D01*
%TO.N,Net-(Q6-B)*%
X231125000Y-64175000D02*
X232925000Y-64175000D01*
X232925000Y-64175000D02*
X233000000Y-64250000D01*
D77*
%TO.N,DISPLAY_BG_LED*%
X230050000Y-66900000D02*
X231125000Y-65825000D01*
X190000000Y-63000000D02*
X195071570Y-63000000D01*
X198971570Y-66900000D02*
X230050000Y-66900000D01*
X195071570Y-63000000D02*
X198971570Y-66900000D01*
%TO.N,ETH_CS*%
X188092590Y-72775000D02*
X201452454Y-72775000D01*
X247750000Y-79572500D02*
X247750000Y-78500000D01*
X247750000Y-78500000D02*
X247250000Y-78000000D01*
X187825000Y-71675000D02*
X187825000Y-72507410D01*
X252000000Y-90000000D02*
X253000000Y-91000000D01*
X222100000Y-86400000D02*
X225700000Y-90000000D01*
X225700000Y-90000000D02*
X252000000Y-90000000D01*
X201452454Y-72775000D02*
X215077454Y-86400000D01*
X215077454Y-86400000D02*
X222100000Y-86400000D01*
X187825000Y-72507410D02*
X188092590Y-72775000D01*
%TO.N,MAX485_DE*%
X182825000Y-57223096D02*
X184401904Y-58800000D01*
X184401904Y-58800000D02*
X185900000Y-58800000D01*
X182825000Y-56325000D02*
X182825000Y-57223096D01*
X195365000Y-51035000D02*
X195200000Y-51200000D01*
X196975000Y-51035000D02*
X195365000Y-51035000D01*
D78*
%TO.N,PA4*%
X188900000Y-68500000D02*
X187900000Y-67500000D01*
X190000000Y-68500000D02*
X188900000Y-68500000D01*
D77*
%TO.N,MAX485_DI*%
X196975000Y-52305000D02*
X195395000Y-52305000D01*
X195395000Y-52305000D02*
X195200000Y-52500000D01*
X182800000Y-58800000D02*
X182325000Y-58325000D01*
X182325000Y-58325000D02*
X182325000Y-56325000D01*
%TO.N,CURRENT_SENSOR_B*%
X183825000Y-70482717D02*
X183400000Y-70057717D01*
X183400000Y-66800000D02*
X184000000Y-66200000D01*
X183400000Y-70057717D02*
X183400000Y-66800000D01*
X183825000Y-71675000D02*
X183825000Y-70482717D01*
D78*
%TO.N,MAX485_RO*%
X195405000Y-48495000D02*
X195200000Y-48700000D01*
X196975000Y-48495000D02*
X195405000Y-48495000D01*
X196880000Y-48400000D02*
X196975000Y-48495000D01*
D77*
X181825000Y-57475000D02*
X181400000Y-57900000D01*
X181825000Y-56325000D02*
X181825000Y-57475000D01*
%TO.N,CURRENT_SENSOR_C*%
X182100000Y-66900000D02*
X182900000Y-67700000D01*
X183325000Y-70548403D02*
X183325000Y-71675000D01*
X182900000Y-67700000D02*
X182900000Y-70123403D01*
X182900000Y-70123403D02*
X183325000Y-70548403D01*
D78*
%TO.N,Net-(D16-A)*%
X190000000Y-52775000D02*
X190000000Y-51337500D01*
D77*
%TO.N,CURRENT_SENSOR_A*%
X185400000Y-66900000D02*
X185900000Y-66900000D01*
X184325000Y-71675000D02*
X184325000Y-70417031D01*
X183800000Y-68500000D02*
X185400000Y-66900000D01*
X183800000Y-69892031D02*
X183800000Y-68500000D01*
X184325000Y-70417031D02*
X183800000Y-69892031D01*
D78*
%TO.N,Net-(D17-A)*%
X192000000Y-52775000D02*
X192000000Y-51337500D01*
%TO.N,LED_C*%
X187950000Y-55150000D02*
X189275000Y-55150000D01*
X189275000Y-55150000D02*
X190000000Y-54425000D01*
X187825000Y-55275000D02*
X187950000Y-55150000D01*
X187825000Y-56325000D02*
X187825000Y-55275000D01*
%TO.N,LED_D*%
X188325000Y-56325000D02*
X189050000Y-55600000D01*
X190825000Y-55600000D02*
X192000000Y-54425000D01*
X189050000Y-55600000D02*
X190825000Y-55600000D01*
D77*
%TO.N,Net-(D18-K)*%
X231687500Y-53500000D02*
X231437500Y-53750000D01*
X234925000Y-53500000D02*
X231687500Y-53500000D01*
%TO.N,Net-(D19-K)*%
X234925000Y-55000000D02*
X232187500Y-55000000D01*
X232187500Y-55000000D02*
X231437500Y-55750000D01*
%TO.N,BUTTON_MINUS_IN*%
X159600000Y-63450000D02*
X159600000Y-65300000D01*
X163450000Y-59600000D02*
X159600000Y-63450000D01*
X150350000Y-68750000D02*
X156150000Y-68750000D01*
X165273654Y-66425000D02*
X163750000Y-64901346D01*
X174650000Y-64500000D02*
X173011826Y-64500000D01*
X173011826Y-64500000D02*
X171086826Y-66425000D01*
X163750000Y-64901346D02*
X163750000Y-60675000D01*
D78*
X163450000Y-59600000D02*
X164825000Y-59600000D01*
D77*
X156150000Y-68600000D02*
X156150000Y-68750000D01*
X163750000Y-60675000D02*
X164825000Y-59600000D01*
X159600000Y-65300000D02*
X156150000Y-68750000D01*
X171086826Y-66425000D02*
X165273654Y-66425000D01*
%TO.N,BUTTON_PLUS_IN*%
X166250000Y-60948696D02*
X165625000Y-60323696D01*
X150350000Y-61750000D02*
X156150000Y-61750000D01*
X156150000Y-61750000D02*
X159625000Y-58275000D01*
X165625000Y-60323696D02*
X165625000Y-58925000D01*
X162675000Y-58275000D02*
X163450000Y-57500000D01*
D78*
X163450000Y-57500000D02*
X164825000Y-57500000D01*
D77*
X165625000Y-58925000D02*
X164825000Y-58125000D01*
X172946140Y-64000000D02*
X170921140Y-66025000D01*
X167373654Y-66025000D02*
X166250000Y-64901346D01*
X164825000Y-58125000D02*
X164825000Y-57500000D01*
X170921140Y-66025000D02*
X167373654Y-66025000D01*
X159625000Y-58275000D02*
X162675000Y-58275000D01*
X166250000Y-64901346D02*
X166250000Y-60948696D01*
X174650000Y-64000000D02*
X172946140Y-64000000D01*
%TO.N,BUTTON_SET_IN*%
X165625000Y-57973696D02*
X165926304Y-58275000D01*
X156150000Y-54750000D02*
X161737648Y-54750000D01*
X161737648Y-54750000D02*
X162987648Y-56000000D01*
X171110050Y-62500000D02*
X174650000Y-62500000D01*
X168375000Y-58275000D02*
X169300000Y-59200000D01*
D78*
X163450000Y-56000000D02*
X164825000Y-56000000D01*
D77*
X162987648Y-56000000D02*
X163450000Y-56000000D01*
X164825000Y-56000000D02*
X165625000Y-56800000D01*
X165625000Y-56800000D02*
X165625000Y-57973696D01*
X169300000Y-60689950D02*
X171110050Y-62500000D01*
X164825000Y-56000000D02*
X165098696Y-56000000D01*
X165926304Y-58275000D02*
X168375000Y-58275000D01*
X169300000Y-59200000D02*
X169300000Y-60689950D01*
X150350000Y-54750000D02*
X156150000Y-54750000D01*
%TO.N,uC_TX2*%
X171200000Y-63000000D02*
X170100000Y-64100000D01*
X174650000Y-63000000D02*
X171200000Y-63000000D01*
X170100000Y-64100000D02*
X169900000Y-64100000D01*
%TO.N,uC_RX2*%
X168700000Y-65600000D02*
X167400000Y-64300000D01*
X170780454Y-65600000D02*
X168700000Y-65600000D01*
X172880454Y-63500000D02*
X170780454Y-65600000D01*
X167400000Y-64300000D02*
X167400000Y-64100000D01*
X174650000Y-63500000D02*
X172880454Y-63500000D01*
%TD*%
M02*
