M48
; DRILL file {KiCad 8.0.6} date 2024-12-11T15:10:52+0100
; FORMAT={-:-/ absolute / metric / decimal}
; #@! TF.CreationDate,2024-12-11T15:10:52+01:00
; #@! TF.GenerationSoftware,Kicad,Pcbnew,8.0.6
; #@! TF.FileFunction,Plated,1,4,PTH
FMAT,2
METRIC
; #@! TA.AperFunction,Plated,PTH,ViaDrill
T1C0.400
; #@! TA.AperFunction,Plated,PTH,ComponentDrill
T2C0.600
; #@! TA.AperFunction,Plated,PTH,ComponentDrill
T3C0.700
; #@! TA.AperFunction,Plated,PTH,ComponentDrill
T4C0.890
; #@! TA.AperFunction,Plated,PTH,ComponentDrill
T5C0.950
; #@! TA.AperFunction,Plated,PTH,ComponentDrill
T6C1.000
; #@! TA.AperFunction,Plated,PTH,ComponentDrill
T7C1.020
; #@! TA.AperFunction,Plated,PTH,ComponentDrill
T8C1.300
; #@! TA.AperFunction,Plated,PTH,ComponentDrill
T9C1.630
%
G90
G05
T1
X149.5Y-82.4
X150.0Y-86.75
X153.1Y-64.75
X153.2Y-57.75
X153.2Y-71.75
X153.3Y-50.75
X157.15Y-73.3
X158.6Y-77.5
X160.5Y-53.5
X160.7Y-56.7
X160.7Y-59.6
X162.35Y-50.15
X163.5Y-54.75
X163.9Y-117.5
X164.2Y-47.85
X165.2Y-54.7
X165.3Y-82.2
X165.85Y-50.15
X166.0Y-72.4
X166.0Y-87.0
X167.0Y-54.75
X167.6Y-59.6
X167.7Y-56.6
X170.5Y-60.9
X170.6Y-79.3
X170.9Y-59.2
X171.0Y-52.1
X171.4Y-60.3
X171.5Y-68.15
X173.0Y-71.2
X173.0Y-76.1
X173.2Y-72.8
X174.0Y-56.1
X174.2Y-48.0
X174.5Y-52.1
X175.0Y-53.3
X175.8Y-77.8
X176.0Y-117.4
X176.6Y-69.5
X176.9Y-54.6
X177.5Y-65.75
X177.9Y-68.4
X178.0Y-52.1
X178.25Y-66.75
X178.4Y-59.8
X179.6Y-69.8
X180.0Y-60.5
X180.0Y-62.25
X180.0Y-64.0
X180.2Y-67.6
X180.25Y-74.0
X181.3Y-69.9
X181.4Y-57.9
X181.5Y-52.1
X181.8Y-82.5
X182.0Y-86.5
X182.1Y-66.9
X182.8Y-58.8
X184.0Y-66.2
X184.55Y-54.6
X184.6Y-48.0
X184.7Y-49.5
X184.8Y-57.9
X184.9Y-69.0
X185.8Y-69.7
X185.8Y-74.0
X185.9Y-58.8
X185.9Y-66.9
X186.6Y-63.4
X187.0Y-69.9
X187.287Y-73.263
X187.9Y-67.5
X187.9Y-117.4
X188.2Y-62.6
X188.2Y-69.1
X188.2Y-76.9
X189.75Y-76.85
X190.6Y-74.2
X191.7Y-70.1
X192.5Y-59.2
X192.6Y-66.15
X193.1Y-70.1
X193.3Y-49.4
X194.6Y-106.3
X194.8Y-58.2
X194.8Y-69.0
X195.1Y-64.1
X195.2Y-48.7
X195.2Y-50.0
X195.2Y-51.2
X195.2Y-52.5
X195.3Y-65.6
X196.25Y-59.25
X196.25Y-103.75
X202.8Y-115.5
X203.3Y-106.9
X203.4Y-86.2
X203.5Y-68.6
X203.6Y-52.6
X204.1Y-86.9
X204.9Y-87.7
X205.7Y-92.8
X206.2Y-91.0
X206.9Y-58.5
X209.3Y-108.2
X209.9Y-92.2
X210.3Y-68.5
X211.4Y-108.2
X212.5Y-92.8
X212.6Y-90.7
X212.7Y-54.2
X214.5Y-39.9
X214.6Y-115.5
X215.0Y-54.3
X216.8Y-92.2
X217.5Y-106.75
X217.9Y-101.2
X218.4Y-55.3
X219.2Y-57.4
X219.5Y-101.3
X220.8Y-52.5
X221.5Y-99.5
X221.9Y-55.7
X223.0Y-52.5
X223.5Y-101.6
X224.5Y-57.3
X225.9Y-49.7
X226.2Y-39.1
X226.2Y-52.5
X228.1Y-57.4
X228.9Y-45.5
X229.0Y-50.0
X229.5Y-57.1
X229.6Y-52.2
X232.3Y-78.9
X232.75Y-45.25
X233.0Y-67.2
X233.5Y-57.25
X233.55Y-49.62
X234.5Y-58.25
X238.8Y-70.4
X239.0Y-67.25
X239.0Y-73.3
X239.0Y-74.8
X239.0Y-75.8
X239.0Y-76.8
X239.0Y-77.8
X239.025Y-65.725
X240.0Y-61.25
X240.25Y-67.25
X240.525Y-101.025
X242.2Y-99.5
X242.2Y-102.55
X242.5Y-67.25
X242.6Y-84.3
X243.75Y-62.25
X243.75Y-64.25
X244.0Y-67.25
X244.1Y-75.7
X244.1Y-94.9
X244.25Y-73.25
X245.0Y-77.75
X245.25Y-67.75
X245.5Y-93.8
X245.75Y-72.75
X245.9Y-83.15
X246.25Y-76.5
X246.4Y-93.8
X247.25Y-78.0
X247.3Y-93.8
X247.5Y-76.75
X247.75Y-73.5
X248.0Y-91.5
X248.1Y-84.85
X248.5Y-59.75
X248.75Y-72.75
X249.0Y-63.75
X249.4Y-74.7
X249.5Y-77.75
X249.7Y-87.0
X249.75Y-72.75
X250.5Y-61.0
X250.5Y-63.41
X251.0Y-71.0
X251.5Y-61.0
X252.1Y-107.4
X252.5Y-61.0
X252.5Y-72.5
X252.9Y-93.0
X253.0Y-64.3
X253.0Y-86.5
X253.0Y-91.0
X253.2Y-69.4
X253.5Y-113.0
X253.6Y-108.2
X253.812Y-71.9
X253.812Y-73.5
X254.1Y-98.5
X254.25Y-88.0
X255.4Y-103.5
X256.5Y-62.25
X256.75Y-72.75
X257.0Y-62.75
X257.25Y-74.5
X257.5Y-63.25
X258.9Y-108.2
X259.975Y-86.55
X259.975Y-87.5
X260.4Y-45.5
X260.9Y-90.1
X261.0Y-93.6
X261.0Y-96.95
X261.3Y-50.3
X263.3Y-93.8
X263.9Y-89.0
X264.0Y-85.1
T3
X232.05Y-42.5
X232.85Y-40.75
X233.65Y-42.5
X234.45Y-40.75
X235.25Y-42.5
T4
X243.31Y-57.15
X244.57Y-54.61
X245.85Y-57.15
X247.11Y-54.61
X248.39Y-57.15
X249.65Y-54.61
X250.93Y-57.15
X252.19Y-54.61
T5
X159.75Y-43.282
X162.25Y-43.282
X162.4Y-64.1
X164.75Y-43.282
X164.9Y-64.1
X167.25Y-43.282
X167.4Y-64.1
X169.9Y-64.1
X172.75Y-43.282
X175.25Y-43.282
X177.75Y-43.282
X183.25Y-43.282
X185.75Y-43.282
X188.25Y-43.282
X193.75Y-43.282
X196.25Y-43.282
X198.75Y-43.282
T6
X149.0Y-89.55
X150.46Y-79.1
X153.0Y-79.1
X159.0Y-112.475
X159.0Y-115.015
X161.0Y-89.55
X163.21Y-68.17
X163.21Y-78.17
X165.0Y-89.55
X165.75Y-68.17
X165.75Y-78.17
X166.0Y-112.485
X166.0Y-115.025
X168.29Y-68.17
X168.29Y-78.17
X170.75Y-112.46
X170.75Y-115.0
X177.0Y-89.55
X177.75Y-112.5
X177.75Y-115.04
X181.0Y-89.55
X182.5Y-112.475
X182.5Y-115.015
X189.5Y-112.485
X189.5Y-115.025
X193.0Y-89.55
X206.0Y-49.7
X208.54Y-49.7
X214.24Y-61.142
X216.78Y-61.142
X219.32Y-61.142
X221.86Y-61.142
X224.4Y-61.142
X226.94Y-61.142
X229.48Y-61.142
X232.04Y-61.144
X234.58Y-61.145
T7
X241.125Y-43.35
X243.665Y-43.35
X251.835Y-43.35
X254.375Y-43.35
T8
X149.0Y-101.75
X155.05Y-87.6
X159.0Y-120.75
X161.05Y-101.8
X162.5Y-120.75
X165.0Y-101.75
X166.0Y-120.75
X170.75Y-120.75
X171.05Y-87.6
X174.25Y-120.75
X177.05Y-101.8
X177.75Y-120.75
X181.0Y-101.75
X182.5Y-120.75
X186.0Y-120.75
X187.05Y-87.6
X189.5Y-120.75
X193.05Y-101.8
X197.0Y-120.795
X200.5Y-120.795
X204.0Y-120.795
X204.8Y-41.8
X208.3Y-41.8
X209.0Y-120.795
X212.5Y-120.795
X216.0Y-120.795
X250.282Y-120.75
X253.782Y-120.75
T9
X240.005Y-51.3
X255.495Y-51.3
T2
G00X221.968Y-114.3
M15
G01X221.968Y-113.7
M16
G05
G00X221.968Y-118.3
M15
G01X221.968Y-117.7
M16
G05
G00X221.968Y-121.3
M15
G01X221.968Y-120.7
M16
G05
G00X226.468Y-112.8
M15
G01X226.468Y-112.2
M16
G05
G00X227.468Y-121.3
M15
G01X227.468Y-120.7
M16
G05
G00X230.968Y-114.3
M15
G01X230.968Y-113.7
M16
G05
G00X230.968Y-118.3
M15
G01X230.968Y-117.7
M16
G05
G00X230.968Y-121.3
M15
G01X230.968Y-120.7
M16
G05
G00X235.468Y-112.8
M15
G01X235.468Y-112.2
M16
G05
G00X236.468Y-121.3
M15
G01X236.468Y-120.7
M16
G05
G00X239.968Y-114.3
M15
G01X239.968Y-113.7
M16
G05
G00X239.968Y-118.3
M15
G01X239.968Y-117.7
M16
G05
G00X239.968Y-121.3
M15
G01X239.968Y-120.7
M16
G05
G00X244.468Y-112.8
M15
G01X244.468Y-112.2
M16
G05
G00X245.468Y-121.3
M15
G01X245.468Y-120.7
M16
G05
T3
G00X230.0Y-40.975
M15
G01X230.0Y-42.275
M16
G05
G00X237.3Y-40.975
M15
G01X237.3Y-42.275
M16
G05
M30
